G04 MADE WITH FRITZING*
G04 WWW.FRITZING.ORG*
G04 DOUBLE SIDED*
G04 HOLES PLATED*
G04 CONTOUR ON CENTER OF CONTOUR VECTOR*
%ASAXBY*%
%FSLAX23Y23*%
%MOIN*%
%OFA0B0*%
%SFA1.0B1.0*%
%ADD10C,0.092000*%
%ADD11C,0.085000*%
%ADD12C,0.090000*%
%ADD13C,0.088000*%
%ADD14C,0.080000*%
%ADD15C,0.088740*%
%ADD16C,0.049370*%
%ADD17C,0.116299*%
%ADD18C,0.127717*%
%ADD19C,0.120236*%
%ADD20C,0.148425*%
%ADD21C,0.096000*%
%ADD22R,0.092000X0.092000*%
%ADD23R,0.041496X0.045433*%
%ADD24R,0.088000X0.088000*%
%ADD25R,0.079972X0.080000*%
%ADD26R,0.085000X0.085000*%
%ADD27R,0.001000X0.001000*%
%LNMASK1*%
G90*
G70*
G54D10*
X2087Y1282D03*
X1789Y1282D03*
G54D11*
X1560Y1518D03*
X1160Y1518D03*
G54D12*
X2386Y1776D03*
X2386Y1928D03*
X2386Y1776D03*
X2386Y1928D03*
G54D13*
X368Y129D03*
X468Y129D03*
X568Y129D03*
X668Y129D03*
X768Y129D03*
X868Y129D03*
X968Y129D03*
X1068Y129D03*
X1168Y129D03*
X1268Y129D03*
X1368Y129D03*
G54D14*
X886Y658D03*
X886Y758D03*
X886Y858D03*
X886Y958D03*
X886Y1058D03*
X886Y1158D03*
X886Y1258D03*
X886Y1358D03*
X886Y1458D03*
X886Y1558D03*
X886Y1658D03*
X886Y1758D03*
X886Y1858D03*
X886Y1958D03*
X886Y2058D03*
X286Y658D03*
X286Y758D03*
X286Y858D03*
X286Y958D03*
X286Y1058D03*
X286Y1158D03*
X286Y1258D03*
X286Y1358D03*
X286Y1458D03*
X286Y1558D03*
X286Y1658D03*
X286Y1758D03*
X286Y1858D03*
X286Y1958D03*
X286Y2058D03*
G54D15*
X293Y2148D03*
X884Y2148D03*
X296Y568D03*
X876Y568D03*
G54D16*
X1318Y614D03*
G54D17*
X2436Y898D03*
G54D18*
X2426Y148D03*
G54D17*
X2426Y2068D03*
G54D19*
X146Y138D03*
G54D17*
X146Y2068D03*
G54D11*
X2144Y1536D03*
X2144Y2030D03*
X1683Y2035D03*
X1921Y1475D03*
X1688Y1536D03*
G54D16*
X1607Y227D03*
G54D20*
X2431Y893D03*
G54D21*
X2376Y451D03*
G54D20*
X2431Y143D03*
G54D14*
X1776Y118D03*
X1776Y218D03*
X1776Y318D03*
X1776Y418D03*
X1776Y518D03*
X1776Y618D03*
X1776Y718D03*
X1776Y818D03*
X1776Y918D03*
G54D21*
X2376Y589D03*
G54D16*
X1607Y578D03*
G54D22*
X2088Y1282D03*
G54D23*
X1656Y1128D03*
X1731Y1128D03*
X1694Y1206D03*
G54D24*
X368Y129D03*
G54D25*
X886Y658D03*
G54D26*
X2144Y1537D03*
G54D27*
X2341Y1821D02*
X2430Y1821D01*
X2341Y1820D02*
X2430Y1820D01*
X2341Y1819D02*
X2430Y1819D01*
X2341Y1818D02*
X2430Y1818D01*
X2341Y1817D02*
X2430Y1817D01*
X2341Y1816D02*
X2430Y1816D01*
X2341Y1815D02*
X2430Y1815D01*
X2341Y1814D02*
X2430Y1814D01*
X2341Y1813D02*
X2430Y1813D01*
X2341Y1812D02*
X2430Y1812D01*
X2341Y1811D02*
X2430Y1811D01*
X2341Y1810D02*
X2430Y1810D01*
X2341Y1809D02*
X2430Y1809D01*
X2341Y1808D02*
X2430Y1808D01*
X2341Y1807D02*
X2430Y1807D01*
X2341Y1806D02*
X2430Y1806D01*
X2341Y1805D02*
X2430Y1805D01*
X2341Y1804D02*
X2430Y1804D01*
X2341Y1803D02*
X2430Y1803D01*
X2341Y1802D02*
X2430Y1802D01*
X2341Y1801D02*
X2430Y1801D01*
X2341Y1800D02*
X2430Y1800D01*
X2341Y1799D02*
X2430Y1799D01*
X2341Y1798D02*
X2430Y1798D01*
X2341Y1797D02*
X2430Y1797D01*
X2341Y1796D02*
X2430Y1796D01*
X2341Y1795D02*
X2381Y1795D01*
X2390Y1795D02*
X2430Y1795D01*
X2341Y1794D02*
X2377Y1794D01*
X2393Y1794D02*
X2430Y1794D01*
X2341Y1793D02*
X2376Y1793D01*
X2395Y1793D02*
X2430Y1793D01*
X2341Y1792D02*
X2374Y1792D01*
X2397Y1792D02*
X2430Y1792D01*
X2341Y1791D02*
X2373Y1791D01*
X2398Y1791D02*
X2430Y1791D01*
X2341Y1790D02*
X2372Y1790D01*
X2399Y1790D02*
X2430Y1790D01*
X2341Y1789D02*
X2371Y1789D01*
X2400Y1789D02*
X2430Y1789D01*
X2341Y1788D02*
X2370Y1788D01*
X2401Y1788D02*
X2430Y1788D01*
X2341Y1787D02*
X2369Y1787D01*
X2401Y1787D02*
X2430Y1787D01*
X2341Y1786D02*
X2369Y1786D01*
X2402Y1786D02*
X2430Y1786D01*
X2341Y1785D02*
X2368Y1785D01*
X2403Y1785D02*
X2430Y1785D01*
X2341Y1784D02*
X2367Y1784D01*
X2403Y1784D02*
X2430Y1784D01*
X2341Y1783D02*
X2367Y1783D01*
X2403Y1783D02*
X2430Y1783D01*
X2341Y1782D02*
X2367Y1782D01*
X2404Y1782D02*
X2430Y1782D01*
X2341Y1781D02*
X2367Y1781D01*
X2404Y1781D02*
X2430Y1781D01*
X2341Y1780D02*
X2366Y1780D01*
X2404Y1780D02*
X2430Y1780D01*
X2341Y1779D02*
X2366Y1779D01*
X2404Y1779D02*
X2430Y1779D01*
X2341Y1778D02*
X2366Y1778D01*
X2404Y1778D02*
X2430Y1778D01*
X2341Y1777D02*
X2366Y1777D01*
X2404Y1777D02*
X2430Y1777D01*
X2341Y1776D02*
X2366Y1776D01*
X2404Y1776D02*
X2430Y1776D01*
X2341Y1775D02*
X2366Y1775D01*
X2404Y1775D02*
X2430Y1775D01*
X2341Y1774D02*
X2366Y1774D01*
X2404Y1774D02*
X2430Y1774D01*
X2341Y1773D02*
X2367Y1773D01*
X2404Y1773D02*
X2430Y1773D01*
X2341Y1772D02*
X2367Y1772D01*
X2404Y1772D02*
X2430Y1772D01*
X2341Y1771D02*
X2367Y1771D01*
X2403Y1771D02*
X2430Y1771D01*
X2341Y1770D02*
X2367Y1770D01*
X2403Y1770D02*
X2430Y1770D01*
X2341Y1769D02*
X2368Y1769D01*
X2403Y1769D02*
X2430Y1769D01*
X2341Y1768D02*
X2368Y1768D01*
X2402Y1768D02*
X2430Y1768D01*
X2341Y1767D02*
X2369Y1767D01*
X2402Y1767D02*
X2430Y1767D01*
X2341Y1766D02*
X2370Y1766D01*
X2401Y1766D02*
X2430Y1766D01*
X2341Y1765D02*
X2370Y1765D01*
X2400Y1765D02*
X2430Y1765D01*
X2341Y1764D02*
X2371Y1764D01*
X2399Y1764D02*
X2430Y1764D01*
X2341Y1763D02*
X2372Y1763D01*
X2398Y1763D02*
X2430Y1763D01*
X2341Y1762D02*
X2374Y1762D01*
X2397Y1762D02*
X2430Y1762D01*
X2341Y1761D02*
X2375Y1761D01*
X2396Y1761D02*
X2430Y1761D01*
X2341Y1760D02*
X2377Y1760D01*
X2394Y1760D02*
X2430Y1760D01*
X2341Y1759D02*
X2380Y1759D01*
X2391Y1759D02*
X2430Y1759D01*
X2341Y1758D02*
X2430Y1758D01*
X2341Y1757D02*
X2430Y1757D01*
X2341Y1756D02*
X2430Y1756D01*
X2341Y1755D02*
X2430Y1755D01*
X2341Y1754D02*
X2430Y1754D01*
X2341Y1753D02*
X2430Y1753D01*
X2341Y1752D02*
X2430Y1752D01*
X2341Y1751D02*
X2430Y1751D01*
X2341Y1750D02*
X2430Y1750D01*
X2341Y1749D02*
X2430Y1749D01*
X2341Y1748D02*
X2430Y1748D01*
X2341Y1747D02*
X2430Y1747D01*
X2341Y1746D02*
X2430Y1746D01*
X2341Y1745D02*
X2430Y1745D01*
X2341Y1744D02*
X2430Y1744D01*
X2341Y1743D02*
X2430Y1743D01*
X2341Y1742D02*
X2430Y1742D01*
X2341Y1741D02*
X2430Y1741D01*
X2341Y1740D02*
X2430Y1740D01*
X2341Y1739D02*
X2430Y1739D01*
X2341Y1738D02*
X2430Y1738D01*
X2341Y1737D02*
X2430Y1737D01*
X2341Y1736D02*
X2430Y1736D01*
X2341Y1735D02*
X2430Y1735D01*
X2341Y1734D02*
X2430Y1734D01*
X2341Y1733D02*
X2430Y1733D01*
X2341Y1732D02*
X2429Y1732D01*
D02*
G04 End of Mask1*
M02*