; NON-PLATED HOLES START AT T1
; THROUGH (PLATED) HOLES START AT T100
M48
INCH
T1C0.117717
T2C0.078740
T3C0.106299
T4C0.110236
T100C0.035000
T101C0.042000
T102C0.036000
T103C0.047244
T104C0.039370
T105C0.038000
T106C0.098425
T107C0.015748
%
T1
X024261Y001476
T2
X008839Y021483
X002934Y021483
X008761Y005676
X002961Y005676
T3
X024261Y020676
X001461Y020676
X024361Y008976
T4
X001461Y001376
T100
X011595Y015183
X016829Y020354
X015595Y015183
X021438Y015361
X019214Y014746
X016882Y015361
X021438Y020301
T101
X017894Y012821
X020874Y012821
T102
X002861Y019576
X002861Y010576
X002861Y008576
X008861Y017576
X008861Y020576
X008861Y009576
X002861Y011576
X008861Y019576
X008861Y016576
X008861Y018576
X002861Y006576
X008861Y010576
X008861Y007576
X002861Y009576
X002861Y013576
X002861Y012576
X008861Y011576
X008861Y006576
X002861Y014576
X002861Y007576
X002861Y020576
X008861Y012576
X008861Y014576
X008861Y013576
X008861Y008576
X002861Y016576
X002861Y018576
X002861Y017576
X002861Y015576
X008861Y015576
T103
X023861Y017758
X023861Y019276
T104
X017761Y002176
X017761Y006176
X017761Y009176
X017761Y007176
X017761Y004176
X017761Y001176
X023761Y005885
X017761Y008176
X017761Y005176
X017761Y003176
X023761Y004507
T105
X004675Y001293
X003675Y001293
X007675Y001293
X006675Y001293
X011675Y001293
X010675Y001293
X012675Y001293
X005675Y001293
X013675Y001293
X009675Y001293
X008675Y001293
T106
X024311Y001426
X024311Y008926
T107
X013177Y006138
X016065Y005780
X016067Y002271
T00
M30
