G04 MADE WITH FRITZING*
G04 WWW.FRITZING.ORG*
G04 DOUBLE SIDED*
G04 HOLES PLATED*
G04 CONTOUR ON CENTER OF CONTOUR VECTOR*
%ASAXBY*%
%FSLAX23Y23*%
%MOIN*%
%OFA0B0*%
%SFA1.0B1.0*%
%ADD10R,2.542440X2.211660X2.526440X2.195660*%
%ADD11C,0.008000*%
%ADD12R,0.001000X0.001000*%
%LNSILK0*%
G90*
G70*
G54D11*
X4Y2208D02*
X2538Y2208D01*
X2538Y4D01*
X4Y4D01*
X4Y2208D01*
D02*
G54D12*
X1238Y2197D02*
X1247Y2197D01*
X1237Y2196D02*
X1248Y2196D01*
X1236Y2195D02*
X1249Y2195D01*
X1236Y2194D02*
X1249Y2194D01*
X1235Y2193D02*
X1249Y2193D01*
X1310Y2193D02*
X1329Y2193D01*
X1440Y2193D02*
X1444Y2193D01*
X1235Y2192D02*
X1249Y2192D01*
X1309Y2192D02*
X1330Y2192D01*
X1439Y2192D02*
X1445Y2192D01*
X1235Y2191D02*
X1249Y2191D01*
X1308Y2191D02*
X1331Y2191D01*
X1438Y2191D02*
X1446Y2191D01*
X1235Y2190D02*
X1249Y2190D01*
X1308Y2190D02*
X1331Y2190D01*
X1438Y2190D02*
X1446Y2190D01*
X1235Y2189D02*
X1249Y2189D01*
X1308Y2189D02*
X1332Y2189D01*
X1437Y2189D02*
X1446Y2189D01*
X1236Y2188D02*
X1249Y2188D01*
X1308Y2188D02*
X1332Y2188D01*
X1437Y2188D02*
X1446Y2188D01*
X1236Y2187D02*
X1249Y2187D01*
X1308Y2187D02*
X1331Y2187D01*
X1437Y2187D02*
X1446Y2187D01*
X1236Y2186D02*
X1249Y2186D01*
X1308Y2186D02*
X1331Y2186D01*
X1437Y2186D02*
X1446Y2186D01*
X1237Y2185D02*
X1248Y2185D01*
X1308Y2185D02*
X1330Y2185D01*
X1437Y2185D02*
X1446Y2185D01*
X1239Y2184D02*
X1246Y2184D01*
X1308Y2184D02*
X1328Y2184D01*
X1437Y2184D02*
X1446Y2184D01*
X1308Y2183D02*
X1317Y2183D01*
X1437Y2183D02*
X1446Y2183D01*
X1308Y2182D02*
X1317Y2182D01*
X1437Y2182D02*
X1446Y2182D01*
X1308Y2181D02*
X1317Y2181D01*
X1437Y2181D02*
X1446Y2181D01*
X1308Y2180D02*
X1317Y2180D01*
X1437Y2180D02*
X1446Y2180D01*
X1308Y2179D02*
X1317Y2179D01*
X1437Y2179D02*
X1446Y2179D01*
X1308Y2178D02*
X1317Y2178D01*
X1437Y2178D02*
X1446Y2178D01*
X1308Y2177D02*
X1317Y2177D01*
X1437Y2177D02*
X1446Y2177D01*
X1308Y2176D02*
X1317Y2176D01*
X1437Y2176D02*
X1446Y2176D01*
X1308Y2175D02*
X1317Y2175D01*
X1437Y2175D02*
X1446Y2175D01*
X1308Y2174D02*
X1317Y2174D01*
X1437Y2174D02*
X1446Y2174D01*
X1308Y2173D02*
X1317Y2173D01*
X1437Y2173D02*
X1446Y2173D01*
X1083Y2172D02*
X1096Y2172D01*
X1114Y2172D02*
X1117Y2172D01*
X1158Y2172D02*
X1177Y2172D01*
X1238Y2172D02*
X1256Y2172D01*
X1308Y2172D02*
X1317Y2172D01*
X1363Y2172D02*
X1366Y2172D01*
X1403Y2172D02*
X1406Y2172D01*
X1437Y2172D02*
X1446Y2172D01*
X1081Y2171D02*
X1098Y2171D01*
X1112Y2171D02*
X1118Y2171D01*
X1155Y2171D02*
X1180Y2171D01*
X1237Y2171D02*
X1258Y2171D01*
X1308Y2171D02*
X1317Y2171D01*
X1362Y2171D02*
X1368Y2171D01*
X1401Y2171D02*
X1407Y2171D01*
X1437Y2171D02*
X1446Y2171D01*
X1079Y2170D02*
X1100Y2170D01*
X1111Y2170D02*
X1119Y2170D01*
X1154Y2170D02*
X1182Y2170D01*
X1236Y2170D02*
X1259Y2170D01*
X1308Y2170D02*
X1317Y2170D01*
X1361Y2170D02*
X1368Y2170D01*
X1401Y2170D02*
X1408Y2170D01*
X1437Y2170D02*
X1446Y2170D01*
X1078Y2169D02*
X1102Y2169D01*
X1111Y2169D02*
X1119Y2169D01*
X1152Y2169D02*
X1183Y2169D01*
X1236Y2169D02*
X1259Y2169D01*
X1308Y2169D02*
X1317Y2169D01*
X1360Y2169D02*
X1369Y2169D01*
X1400Y2169D02*
X1409Y2169D01*
X1437Y2169D02*
X1446Y2169D01*
X1077Y2168D02*
X1103Y2168D01*
X1111Y2168D02*
X1120Y2168D01*
X1151Y2168D02*
X1184Y2168D01*
X1235Y2168D02*
X1259Y2168D01*
X1308Y2168D02*
X1317Y2168D01*
X1360Y2168D02*
X1369Y2168D01*
X1400Y2168D02*
X1409Y2168D01*
X1437Y2168D02*
X1446Y2168D01*
X1076Y2167D02*
X1105Y2167D01*
X1111Y2167D02*
X1120Y2167D01*
X1150Y2167D02*
X1185Y2167D01*
X1235Y2167D02*
X1259Y2167D01*
X1308Y2167D02*
X1317Y2167D01*
X1360Y2167D02*
X1369Y2167D01*
X1400Y2167D02*
X1409Y2167D01*
X1437Y2167D02*
X1446Y2167D01*
X1075Y2166D02*
X1107Y2166D01*
X1111Y2166D02*
X1120Y2166D01*
X1149Y2166D02*
X1187Y2166D01*
X1235Y2166D02*
X1259Y2166D01*
X1308Y2166D02*
X1317Y2166D01*
X1360Y2166D02*
X1369Y2166D01*
X1400Y2166D02*
X1409Y2166D01*
X1437Y2166D02*
X1446Y2166D01*
X1074Y2165D02*
X1108Y2165D01*
X1111Y2165D02*
X1120Y2165D01*
X1148Y2165D02*
X1188Y2165D01*
X1235Y2165D02*
X1259Y2165D01*
X1308Y2165D02*
X1317Y2165D01*
X1360Y2165D02*
X1369Y2165D01*
X1400Y2165D02*
X1409Y2165D01*
X1437Y2165D02*
X1446Y2165D01*
X1074Y2164D02*
X1120Y2164D01*
X1147Y2164D02*
X1188Y2164D01*
X1235Y2164D02*
X1258Y2164D01*
X1308Y2164D02*
X1317Y2164D01*
X1360Y2164D02*
X1369Y2164D01*
X1400Y2164D02*
X1409Y2164D01*
X1437Y2164D02*
X1446Y2164D01*
X1073Y2163D02*
X1120Y2163D01*
X1146Y2163D02*
X1189Y2163D01*
X1235Y2163D02*
X1256Y2163D01*
X1308Y2163D02*
X1317Y2163D01*
X1360Y2163D02*
X1369Y2163D01*
X1400Y2163D02*
X1409Y2163D01*
X1437Y2163D02*
X1446Y2163D01*
X1073Y2162D02*
X1084Y2162D01*
X1095Y2162D02*
X1120Y2162D01*
X1145Y2162D02*
X1159Y2162D01*
X1177Y2162D02*
X1190Y2162D01*
X1235Y2162D02*
X1244Y2162D01*
X1308Y2162D02*
X1317Y2162D01*
X1360Y2162D02*
X1369Y2162D01*
X1400Y2162D02*
X1409Y2162D01*
X1437Y2162D02*
X1446Y2162D01*
X1073Y2161D02*
X1083Y2161D01*
X1097Y2161D02*
X1120Y2161D01*
X1145Y2161D02*
X1157Y2161D01*
X1178Y2161D02*
X1190Y2161D01*
X1235Y2161D02*
X1244Y2161D01*
X1308Y2161D02*
X1317Y2161D01*
X1360Y2161D02*
X1369Y2161D01*
X1400Y2161D02*
X1409Y2161D01*
X1437Y2161D02*
X1446Y2161D01*
X1072Y2160D02*
X1082Y2160D01*
X1098Y2160D02*
X1120Y2160D01*
X1144Y2160D02*
X1156Y2160D01*
X1179Y2160D02*
X1191Y2160D01*
X1235Y2160D02*
X1244Y2160D01*
X1308Y2160D02*
X1317Y2160D01*
X1360Y2160D02*
X1369Y2160D01*
X1400Y2160D02*
X1409Y2160D01*
X1437Y2160D02*
X1446Y2160D01*
X1072Y2159D02*
X1082Y2159D01*
X1100Y2159D02*
X1120Y2159D01*
X1144Y2159D02*
X1155Y2159D01*
X1180Y2159D02*
X1191Y2159D01*
X1235Y2159D02*
X1244Y2159D01*
X1308Y2159D02*
X1317Y2159D01*
X1360Y2159D02*
X1369Y2159D01*
X1400Y2159D02*
X1409Y2159D01*
X1437Y2159D02*
X1446Y2159D01*
X1072Y2158D02*
X1081Y2158D01*
X1101Y2158D02*
X1120Y2158D01*
X1144Y2158D02*
X1154Y2158D01*
X1181Y2158D02*
X1192Y2158D01*
X1235Y2158D02*
X1244Y2158D01*
X1308Y2158D02*
X1317Y2158D01*
X1360Y2158D02*
X1369Y2158D01*
X1400Y2158D02*
X1409Y2158D01*
X1437Y2158D02*
X1446Y2158D01*
X1072Y2157D02*
X1081Y2157D01*
X1103Y2157D02*
X1120Y2157D01*
X1143Y2157D02*
X1153Y2157D01*
X1182Y2157D02*
X1192Y2157D01*
X1235Y2157D02*
X1244Y2157D01*
X1308Y2157D02*
X1317Y2157D01*
X1360Y2157D02*
X1369Y2157D01*
X1399Y2157D02*
X1409Y2157D01*
X1437Y2157D02*
X1446Y2157D01*
X1072Y2156D02*
X1081Y2156D01*
X1104Y2156D02*
X1120Y2156D01*
X1143Y2156D02*
X1153Y2156D01*
X1183Y2156D02*
X1192Y2156D01*
X1235Y2156D02*
X1244Y2156D01*
X1308Y2156D02*
X1317Y2156D01*
X1360Y2156D02*
X1369Y2156D01*
X1399Y2156D02*
X1408Y2156D01*
X1437Y2156D02*
X1446Y2156D01*
X1072Y2155D02*
X1081Y2155D01*
X1106Y2155D02*
X1120Y2155D01*
X1143Y2155D02*
X1152Y2155D01*
X1183Y2155D02*
X1192Y2155D01*
X1235Y2155D02*
X1244Y2155D01*
X1308Y2155D02*
X1317Y2155D01*
X1360Y2155D02*
X1369Y2155D01*
X1399Y2155D02*
X1408Y2155D01*
X1437Y2155D02*
X1446Y2155D01*
X1072Y2154D02*
X1081Y2154D01*
X1107Y2154D02*
X1120Y2154D01*
X1143Y2154D02*
X1152Y2154D01*
X1183Y2154D02*
X1192Y2154D01*
X1235Y2154D02*
X1244Y2154D01*
X1308Y2154D02*
X1317Y2154D01*
X1360Y2154D02*
X1369Y2154D01*
X1399Y2154D02*
X1408Y2154D01*
X1437Y2154D02*
X1446Y2154D01*
X1072Y2153D02*
X1081Y2153D01*
X1109Y2153D02*
X1120Y2153D01*
X1143Y2153D02*
X1152Y2153D01*
X1183Y2153D02*
X1192Y2153D01*
X1235Y2153D02*
X1244Y2153D01*
X1308Y2153D02*
X1317Y2153D01*
X1360Y2153D02*
X1369Y2153D01*
X1399Y2153D02*
X1408Y2153D01*
X1437Y2153D02*
X1446Y2153D01*
X1072Y2152D02*
X1081Y2152D01*
X1110Y2152D02*
X1120Y2152D01*
X1143Y2152D02*
X1152Y2152D01*
X1183Y2152D02*
X1192Y2152D01*
X1235Y2152D02*
X1244Y2152D01*
X1308Y2152D02*
X1317Y2152D01*
X1360Y2152D02*
X1369Y2152D01*
X1399Y2152D02*
X1408Y2152D01*
X1437Y2152D02*
X1446Y2152D01*
X1072Y2151D02*
X1081Y2151D01*
X1111Y2151D02*
X1120Y2151D01*
X1143Y2151D02*
X1152Y2151D01*
X1183Y2151D02*
X1192Y2151D01*
X1235Y2151D02*
X1244Y2151D01*
X1308Y2151D02*
X1317Y2151D01*
X1360Y2151D02*
X1369Y2151D01*
X1399Y2151D02*
X1408Y2151D01*
X1437Y2151D02*
X1446Y2151D01*
X1470Y2151D02*
X1473Y2151D01*
X1072Y2150D02*
X1081Y2150D01*
X1111Y2150D02*
X1120Y2150D01*
X1143Y2150D02*
X1152Y2150D01*
X1183Y2150D02*
X1192Y2150D01*
X1235Y2150D02*
X1244Y2150D01*
X1308Y2150D02*
X1317Y2150D01*
X1360Y2150D02*
X1369Y2150D01*
X1399Y2150D02*
X1408Y2150D01*
X1437Y2150D02*
X1446Y2150D01*
X1469Y2150D02*
X1475Y2150D01*
X1072Y2149D02*
X1081Y2149D01*
X1111Y2149D02*
X1120Y2149D01*
X1143Y2149D02*
X1152Y2149D01*
X1183Y2149D02*
X1192Y2149D01*
X1235Y2149D02*
X1244Y2149D01*
X1308Y2149D02*
X1317Y2149D01*
X1360Y2149D02*
X1369Y2149D01*
X1399Y2149D02*
X1408Y2149D01*
X1437Y2149D02*
X1446Y2149D01*
X1468Y2149D02*
X1475Y2149D01*
X1072Y2148D02*
X1081Y2148D01*
X1111Y2148D02*
X1120Y2148D01*
X1143Y2148D02*
X1152Y2148D01*
X1183Y2148D02*
X1192Y2148D01*
X1235Y2148D02*
X1244Y2148D01*
X1308Y2148D02*
X1317Y2148D01*
X1360Y2148D02*
X1369Y2148D01*
X1399Y2148D02*
X1408Y2148D01*
X1437Y2148D02*
X1446Y2148D01*
X1467Y2148D02*
X1476Y2148D01*
X1072Y2147D02*
X1081Y2147D01*
X1111Y2147D02*
X1120Y2147D01*
X1143Y2147D02*
X1192Y2147D01*
X1235Y2147D02*
X1244Y2147D01*
X1308Y2147D02*
X1317Y2147D01*
X1360Y2147D02*
X1369Y2147D01*
X1399Y2147D02*
X1408Y2147D01*
X1437Y2147D02*
X1446Y2147D01*
X1467Y2147D02*
X1476Y2147D01*
X1072Y2146D02*
X1081Y2146D01*
X1111Y2146D02*
X1120Y2146D01*
X1143Y2146D02*
X1192Y2146D01*
X1235Y2146D02*
X1244Y2146D01*
X1308Y2146D02*
X1317Y2146D01*
X1360Y2146D02*
X1369Y2146D01*
X1399Y2146D02*
X1408Y2146D01*
X1437Y2146D02*
X1446Y2146D01*
X1467Y2146D02*
X1476Y2146D01*
X1072Y2145D02*
X1081Y2145D01*
X1111Y2145D02*
X1120Y2145D01*
X1143Y2145D02*
X1192Y2145D01*
X1235Y2145D02*
X1244Y2145D01*
X1308Y2145D02*
X1317Y2145D01*
X1360Y2145D02*
X1369Y2145D01*
X1399Y2145D02*
X1408Y2145D01*
X1437Y2145D02*
X1446Y2145D01*
X1467Y2145D02*
X1476Y2145D01*
X1072Y2144D02*
X1081Y2144D01*
X1111Y2144D02*
X1120Y2144D01*
X1143Y2144D02*
X1192Y2144D01*
X1235Y2144D02*
X1244Y2144D01*
X1308Y2144D02*
X1317Y2144D01*
X1360Y2144D02*
X1369Y2144D01*
X1399Y2144D02*
X1408Y2144D01*
X1437Y2144D02*
X1446Y2144D01*
X1467Y2144D02*
X1476Y2144D01*
X1072Y2143D02*
X1081Y2143D01*
X1111Y2143D02*
X1120Y2143D01*
X1143Y2143D02*
X1192Y2143D01*
X1235Y2143D02*
X1244Y2143D01*
X1308Y2143D02*
X1317Y2143D01*
X1360Y2143D02*
X1369Y2143D01*
X1399Y2143D02*
X1408Y2143D01*
X1437Y2143D02*
X1446Y2143D01*
X1467Y2143D02*
X1476Y2143D01*
X1072Y2142D02*
X1081Y2142D01*
X1111Y2142D02*
X1120Y2142D01*
X1143Y2142D02*
X1192Y2142D01*
X1235Y2142D02*
X1244Y2142D01*
X1308Y2142D02*
X1317Y2142D01*
X1360Y2142D02*
X1369Y2142D01*
X1399Y2142D02*
X1408Y2142D01*
X1437Y2142D02*
X1446Y2142D01*
X1467Y2142D02*
X1476Y2142D01*
X1072Y2141D02*
X1081Y2141D01*
X1111Y2141D02*
X1120Y2141D01*
X1143Y2141D02*
X1192Y2141D01*
X1235Y2141D02*
X1244Y2141D01*
X1308Y2141D02*
X1317Y2141D01*
X1360Y2141D02*
X1369Y2141D01*
X1399Y2141D02*
X1408Y2141D01*
X1437Y2141D02*
X1446Y2141D01*
X1467Y2141D02*
X1476Y2141D01*
X1072Y2140D02*
X1081Y2140D01*
X1111Y2140D02*
X1120Y2140D01*
X1144Y2140D02*
X1192Y2140D01*
X1235Y2140D02*
X1244Y2140D01*
X1308Y2140D02*
X1317Y2140D01*
X1360Y2140D02*
X1369Y2140D01*
X1399Y2140D02*
X1408Y2140D01*
X1437Y2140D02*
X1446Y2140D01*
X1467Y2140D02*
X1476Y2140D01*
X1072Y2139D02*
X1081Y2139D01*
X1111Y2139D02*
X1120Y2139D01*
X1144Y2139D02*
X1192Y2139D01*
X1235Y2139D02*
X1244Y2139D01*
X1308Y2139D02*
X1317Y2139D01*
X1360Y2139D02*
X1369Y2139D01*
X1399Y2139D02*
X1408Y2139D01*
X1437Y2139D02*
X1446Y2139D01*
X1467Y2139D02*
X1476Y2139D01*
X1072Y2138D02*
X1081Y2138D01*
X1111Y2138D02*
X1120Y2138D01*
X1145Y2138D02*
X1192Y2138D01*
X1235Y2138D02*
X1244Y2138D01*
X1308Y2138D02*
X1317Y2138D01*
X1360Y2138D02*
X1369Y2138D01*
X1399Y2138D02*
X1408Y2138D01*
X1437Y2138D02*
X1446Y2138D01*
X1467Y2138D02*
X1476Y2138D01*
X1072Y2137D02*
X1081Y2137D01*
X1111Y2137D02*
X1120Y2137D01*
X1148Y2137D02*
X1192Y2137D01*
X1235Y2137D02*
X1244Y2137D01*
X1308Y2137D02*
X1317Y2137D01*
X1360Y2137D02*
X1369Y2137D01*
X1399Y2137D02*
X1408Y2137D01*
X1437Y2137D02*
X1446Y2137D01*
X1467Y2137D02*
X1476Y2137D01*
X1072Y2136D02*
X1081Y2136D01*
X1111Y2136D02*
X1120Y2136D01*
X1183Y2136D02*
X1192Y2136D01*
X1235Y2136D02*
X1244Y2136D01*
X1308Y2136D02*
X1317Y2136D01*
X1360Y2136D02*
X1370Y2136D01*
X1399Y2136D02*
X1408Y2136D01*
X1437Y2136D02*
X1446Y2136D01*
X1467Y2136D02*
X1476Y2136D01*
X1071Y2135D02*
X1081Y2135D01*
X1111Y2135D02*
X1120Y2135D01*
X1183Y2135D02*
X1192Y2135D01*
X1235Y2135D02*
X1244Y2135D01*
X1308Y2135D02*
X1317Y2135D01*
X1360Y2135D02*
X1371Y2135D01*
X1399Y2135D02*
X1408Y2135D01*
X1437Y2135D02*
X1446Y2135D01*
X1467Y2135D02*
X1476Y2135D01*
X1071Y2134D02*
X1080Y2134D01*
X1111Y2134D02*
X1120Y2134D01*
X1183Y2134D02*
X1192Y2134D01*
X1235Y2134D02*
X1244Y2134D01*
X1308Y2134D02*
X1317Y2134D01*
X1360Y2134D02*
X1373Y2134D01*
X1399Y2134D02*
X1408Y2134D01*
X1437Y2134D02*
X1446Y2134D01*
X1467Y2134D02*
X1476Y2134D01*
X1071Y2133D02*
X1080Y2133D01*
X1111Y2133D02*
X1120Y2133D01*
X1183Y2133D02*
X1192Y2133D01*
X1235Y2133D02*
X1244Y2133D01*
X1308Y2133D02*
X1317Y2133D01*
X1360Y2133D02*
X1374Y2133D01*
X1399Y2133D02*
X1408Y2133D01*
X1437Y2133D02*
X1446Y2133D01*
X1467Y2133D02*
X1476Y2133D01*
X1071Y2132D02*
X1080Y2132D01*
X1111Y2132D02*
X1120Y2132D01*
X1182Y2132D02*
X1192Y2132D01*
X1235Y2132D02*
X1244Y2132D01*
X1308Y2132D02*
X1317Y2132D01*
X1360Y2132D02*
X1376Y2132D01*
X1399Y2132D02*
X1408Y2132D01*
X1437Y2132D02*
X1446Y2132D01*
X1467Y2132D02*
X1476Y2132D01*
X1071Y2131D02*
X1080Y2131D01*
X1111Y2131D02*
X1120Y2131D01*
X1182Y2131D02*
X1192Y2131D01*
X1235Y2131D02*
X1244Y2131D01*
X1308Y2131D02*
X1317Y2131D01*
X1360Y2131D02*
X1377Y2131D01*
X1399Y2131D02*
X1408Y2131D01*
X1437Y2131D02*
X1446Y2131D01*
X1467Y2131D02*
X1476Y2131D01*
X1071Y2130D02*
X1080Y2130D01*
X1111Y2130D02*
X1120Y2130D01*
X1181Y2130D02*
X1192Y2130D01*
X1235Y2130D02*
X1244Y2130D01*
X1308Y2130D02*
X1317Y2130D01*
X1360Y2130D02*
X1379Y2130D01*
X1398Y2130D02*
X1408Y2130D01*
X1437Y2130D02*
X1447Y2130D01*
X1467Y2130D02*
X1476Y2130D01*
X1071Y2129D02*
X1080Y2129D01*
X1111Y2129D02*
X1120Y2129D01*
X1180Y2129D02*
X1191Y2129D01*
X1235Y2129D02*
X1244Y2129D01*
X1308Y2129D02*
X1317Y2129D01*
X1360Y2129D02*
X1381Y2129D01*
X1398Y2129D02*
X1408Y2129D01*
X1438Y2129D02*
X1447Y2129D01*
X1467Y2129D02*
X1476Y2129D01*
X1071Y2128D02*
X1080Y2128D01*
X1111Y2128D02*
X1120Y2128D01*
X1179Y2128D02*
X1191Y2128D01*
X1235Y2128D02*
X1244Y2128D01*
X1308Y2128D02*
X1317Y2128D01*
X1360Y2128D02*
X1382Y2128D01*
X1398Y2128D02*
X1407Y2128D01*
X1438Y2128D02*
X1448Y2128D01*
X1466Y2128D02*
X1476Y2128D01*
X1071Y2127D02*
X1080Y2127D01*
X1111Y2127D02*
X1120Y2127D01*
X1177Y2127D02*
X1190Y2127D01*
X1235Y2127D02*
X1244Y2127D01*
X1308Y2127D02*
X1317Y2127D01*
X1360Y2127D02*
X1384Y2127D01*
X1397Y2127D02*
X1407Y2127D01*
X1438Y2127D02*
X1448Y2127D01*
X1465Y2127D02*
X1476Y2127D01*
X1071Y2126D02*
X1080Y2126D01*
X1111Y2126D02*
X1120Y2126D01*
X1175Y2126D02*
X1190Y2126D01*
X1235Y2126D02*
X1245Y2126D01*
X1307Y2126D02*
X1317Y2126D01*
X1360Y2126D02*
X1385Y2126D01*
X1394Y2126D02*
X1407Y2126D01*
X1438Y2126D02*
X1451Y2126D01*
X1463Y2126D02*
X1475Y2126D01*
X1071Y2125D02*
X1080Y2125D01*
X1111Y2125D02*
X1120Y2125D01*
X1146Y2125D02*
X1189Y2125D01*
X1223Y2125D02*
X1257Y2125D01*
X1295Y2125D02*
X1329Y2125D01*
X1360Y2125D02*
X1407Y2125D01*
X1439Y2125D02*
X1475Y2125D01*
X1071Y2124D02*
X1080Y2124D01*
X1111Y2124D02*
X1120Y2124D01*
X1144Y2124D02*
X1188Y2124D01*
X1222Y2124D02*
X1258Y2124D01*
X1294Y2124D02*
X1330Y2124D01*
X1360Y2124D02*
X1406Y2124D01*
X1439Y2124D02*
X1474Y2124D01*
X1071Y2123D02*
X1080Y2123D01*
X1111Y2123D02*
X1120Y2123D01*
X1144Y2123D02*
X1187Y2123D01*
X1221Y2123D02*
X1259Y2123D01*
X1293Y2123D02*
X1331Y2123D01*
X1360Y2123D02*
X1369Y2123D01*
X1372Y2123D02*
X1405Y2123D01*
X1440Y2123D02*
X1474Y2123D01*
X1071Y2122D02*
X1080Y2122D01*
X1111Y2122D02*
X1120Y2122D01*
X1143Y2122D02*
X1186Y2122D01*
X1221Y2122D02*
X1259Y2122D01*
X1293Y2122D02*
X1331Y2122D01*
X1360Y2122D02*
X1369Y2122D01*
X1374Y2122D02*
X1405Y2122D01*
X1440Y2122D02*
X1473Y2122D01*
X1071Y2121D02*
X1080Y2121D01*
X1111Y2121D02*
X1120Y2121D01*
X1143Y2121D02*
X1185Y2121D01*
X1221Y2121D02*
X1259Y2121D01*
X1293Y2121D02*
X1332Y2121D01*
X1360Y2121D02*
X1369Y2121D01*
X1375Y2121D02*
X1404Y2121D01*
X1441Y2121D02*
X1472Y2121D01*
X1071Y2120D02*
X1080Y2120D01*
X1111Y2120D02*
X1120Y2120D01*
X1143Y2120D02*
X1184Y2120D01*
X1221Y2120D02*
X1259Y2120D01*
X1293Y2120D02*
X1332Y2120D01*
X1360Y2120D02*
X1369Y2120D01*
X1377Y2120D02*
X1403Y2120D01*
X1442Y2120D02*
X1471Y2120D01*
X1071Y2119D02*
X1080Y2119D01*
X1111Y2119D02*
X1119Y2119D01*
X1144Y2119D02*
X1183Y2119D01*
X1221Y2119D02*
X1259Y2119D01*
X1293Y2119D02*
X1331Y2119D01*
X1360Y2119D02*
X1369Y2119D01*
X1379Y2119D02*
X1402Y2119D01*
X1443Y2119D02*
X1470Y2119D01*
X1072Y2118D02*
X1079Y2118D01*
X1112Y2118D02*
X1119Y2118D01*
X1144Y2118D02*
X1181Y2118D01*
X1221Y2118D02*
X1258Y2118D01*
X1294Y2118D02*
X1331Y2118D01*
X1361Y2118D02*
X1368Y2118D01*
X1380Y2118D02*
X1400Y2118D01*
X1445Y2118D02*
X1469Y2118D01*
X1073Y2117D02*
X1078Y2117D01*
X1113Y2117D02*
X1118Y2117D01*
X1145Y2117D02*
X1179Y2117D01*
X1222Y2117D02*
X1257Y2117D01*
X1295Y2117D02*
X1330Y2117D01*
X1362Y2117D02*
X1367Y2117D01*
X1382Y2117D02*
X1399Y2117D01*
X1447Y2117D02*
X1467Y2117D01*
X1075Y2116D02*
X1076Y2116D01*
X1115Y2116D02*
X1116Y2116D01*
X1147Y2116D02*
X1176Y2116D01*
X1224Y2116D02*
X1256Y2116D01*
X1297Y2116D02*
X1328Y2116D01*
X1364Y2116D02*
X1365Y2116D01*
X1386Y2116D02*
X1395Y2116D01*
X1450Y2116D02*
X1464Y2116D01*
X951Y2099D02*
X959Y2099D01*
X950Y2098D02*
X961Y2098D01*
X949Y2097D02*
X961Y2097D01*
X948Y2096D02*
X962Y2096D01*
X948Y2095D02*
X962Y2095D01*
X1457Y2095D02*
X1480Y2095D01*
X948Y2094D02*
X962Y2094D01*
X1454Y2094D02*
X1481Y2094D01*
X948Y2093D02*
X962Y2093D01*
X1453Y2093D02*
X1482Y2093D01*
X948Y2092D02*
X962Y2092D01*
X1451Y2092D02*
X1483Y2092D01*
X948Y2091D02*
X962Y2091D01*
X1179Y2091D02*
X1180Y2091D01*
X1450Y2091D02*
X1483Y2091D01*
X948Y2090D02*
X962Y2090D01*
X1177Y2090D02*
X1182Y2090D01*
X1449Y2090D02*
X1483Y2090D01*
X948Y2089D02*
X962Y2089D01*
X1176Y2089D02*
X1183Y2089D01*
X1448Y2089D02*
X1483Y2089D01*
X949Y2088D02*
X962Y2088D01*
X1175Y2088D02*
X1184Y2088D01*
X1448Y2088D02*
X1482Y2088D01*
X949Y2087D02*
X961Y2087D01*
X1175Y2087D02*
X1184Y2087D01*
X1447Y2087D02*
X1482Y2087D01*
X951Y2086D02*
X960Y2086D01*
X1175Y2086D02*
X1184Y2086D01*
X1446Y2086D02*
X1481Y2086D01*
X1175Y2085D02*
X1184Y2085D01*
X1446Y2085D02*
X1458Y2085D01*
X1464Y2085D02*
X1473Y2085D01*
X1175Y2084D02*
X1184Y2084D01*
X1445Y2084D02*
X1456Y2084D01*
X1464Y2084D02*
X1473Y2084D01*
X1175Y2083D02*
X1184Y2083D01*
X1445Y2083D02*
X1455Y2083D01*
X1464Y2083D02*
X1473Y2083D01*
X1175Y2082D02*
X1184Y2082D01*
X1444Y2082D02*
X1455Y2082D01*
X1464Y2082D02*
X1473Y2082D01*
X1175Y2081D02*
X1184Y2081D01*
X1444Y2081D02*
X1454Y2081D01*
X1464Y2081D02*
X1473Y2081D01*
X1175Y2080D02*
X1184Y2080D01*
X1443Y2080D02*
X1454Y2080D01*
X1464Y2080D02*
X1473Y2080D01*
X1175Y2079D02*
X1184Y2079D01*
X1443Y2079D02*
X1453Y2079D01*
X1464Y2079D02*
X1473Y2079D01*
X1175Y2078D02*
X1184Y2078D01*
X1442Y2078D02*
X1453Y2078D01*
X1464Y2078D02*
X1473Y2078D01*
X1175Y2077D02*
X1184Y2077D01*
X1442Y2077D02*
X1452Y2077D01*
X1464Y2077D02*
X1473Y2077D01*
X1175Y2076D02*
X1184Y2076D01*
X1441Y2076D02*
X1452Y2076D01*
X1464Y2076D02*
X1473Y2076D01*
X1175Y2075D02*
X1184Y2075D01*
X1441Y2075D02*
X1451Y2075D01*
X1464Y2075D02*
X1473Y2075D01*
X952Y2074D02*
X968Y2074D01*
X1015Y2074D02*
X1023Y2074D01*
X1045Y2074D02*
X1045Y2074D01*
X1089Y2074D02*
X1104Y2074D01*
X1155Y2074D02*
X1190Y2074D01*
X1232Y2074D02*
X1240Y2074D01*
X1261Y2074D02*
X1262Y2074D01*
X1305Y2074D02*
X1324Y2074D01*
X1379Y2074D02*
X1394Y2074D01*
X1440Y2074D02*
X1451Y2074D01*
X1464Y2074D02*
X1473Y2074D01*
X950Y2073D02*
X970Y2073D01*
X1011Y2073D02*
X1027Y2073D01*
X1042Y2073D02*
X1047Y2073D01*
X1086Y2073D02*
X1109Y2073D01*
X1152Y2073D02*
X1192Y2073D01*
X1228Y2073D02*
X1244Y2073D01*
X1259Y2073D02*
X1264Y2073D01*
X1300Y2073D02*
X1327Y2073D01*
X1375Y2073D02*
X1398Y2073D01*
X1440Y2073D02*
X1450Y2073D01*
X1464Y2073D02*
X1473Y2073D01*
X949Y2072D02*
X971Y2072D01*
X1009Y2072D02*
X1029Y2072D01*
X1041Y2072D02*
X1048Y2072D01*
X1084Y2072D02*
X1111Y2072D01*
X1151Y2072D02*
X1193Y2072D01*
X1226Y2072D02*
X1246Y2072D01*
X1258Y2072D02*
X1265Y2072D01*
X1298Y2072D02*
X1328Y2072D01*
X1373Y2072D02*
X1400Y2072D01*
X1439Y2072D02*
X1450Y2072D01*
X1464Y2072D02*
X1473Y2072D01*
X949Y2071D02*
X972Y2071D01*
X1008Y2071D02*
X1031Y2071D01*
X1041Y2071D02*
X1049Y2071D01*
X1082Y2071D02*
X1112Y2071D01*
X1151Y2071D02*
X1193Y2071D01*
X1225Y2071D02*
X1248Y2071D01*
X1258Y2071D02*
X1266Y2071D01*
X1297Y2071D02*
X1328Y2071D01*
X1372Y2071D02*
X1401Y2071D01*
X1439Y2071D02*
X1449Y2071D01*
X1464Y2071D02*
X1473Y2071D01*
X948Y2070D02*
X972Y2070D01*
X1007Y2070D02*
X1032Y2070D01*
X1040Y2070D02*
X1049Y2070D01*
X1081Y2070D02*
X1113Y2070D01*
X1150Y2070D02*
X1194Y2070D01*
X1223Y2070D02*
X1249Y2070D01*
X1257Y2070D02*
X1266Y2070D01*
X1296Y2070D02*
X1328Y2070D01*
X1370Y2070D02*
X1402Y2070D01*
X1438Y2070D02*
X1449Y2070D01*
X1464Y2070D02*
X1473Y2070D01*
X948Y2069D02*
X972Y2069D01*
X1006Y2069D02*
X1034Y2069D01*
X1040Y2069D02*
X1049Y2069D01*
X1080Y2069D02*
X1114Y2069D01*
X1150Y2069D02*
X1194Y2069D01*
X1222Y2069D02*
X1251Y2069D01*
X1257Y2069D02*
X1266Y2069D01*
X1295Y2069D02*
X1328Y2069D01*
X1369Y2069D02*
X1404Y2069D01*
X1438Y2069D02*
X1448Y2069D01*
X1464Y2069D02*
X1473Y2069D01*
X948Y2068D02*
X972Y2068D01*
X1005Y2068D02*
X1035Y2068D01*
X1040Y2068D02*
X1049Y2068D01*
X1079Y2068D02*
X1116Y2068D01*
X1150Y2068D02*
X1194Y2068D01*
X1222Y2068D02*
X1252Y2068D01*
X1257Y2068D02*
X1266Y2068D01*
X1294Y2068D02*
X1328Y2068D01*
X1368Y2068D02*
X1405Y2068D01*
X1437Y2068D02*
X1448Y2068D01*
X1464Y2068D02*
X1473Y2068D01*
X948Y2067D02*
X972Y2067D01*
X1004Y2067D02*
X1037Y2067D01*
X1040Y2067D02*
X1049Y2067D01*
X1078Y2067D02*
X1117Y2067D01*
X1151Y2067D02*
X1193Y2067D01*
X1221Y2067D02*
X1254Y2067D01*
X1257Y2067D02*
X1266Y2067D01*
X1293Y2067D02*
X1328Y2067D01*
X1367Y2067D02*
X1406Y2067D01*
X1437Y2067D02*
X1447Y2067D01*
X1464Y2067D02*
X1473Y2067D01*
X948Y2066D02*
X971Y2066D01*
X1004Y2066D02*
X1049Y2066D01*
X1077Y2066D02*
X1118Y2066D01*
X1151Y2066D02*
X1193Y2066D01*
X1220Y2066D02*
X1255Y2066D01*
X1257Y2066D02*
X1266Y2066D01*
X1293Y2066D02*
X1327Y2066D01*
X1366Y2066D02*
X1407Y2066D01*
X1436Y2066D02*
X1447Y2066D01*
X1464Y2066D02*
X1473Y2066D01*
X948Y2065D02*
X970Y2065D01*
X1003Y2065D02*
X1049Y2065D01*
X1076Y2065D02*
X1118Y2065D01*
X1152Y2065D02*
X1192Y2065D01*
X1220Y2065D02*
X1266Y2065D01*
X1292Y2065D02*
X1326Y2065D01*
X1365Y2065D02*
X1408Y2065D01*
X1436Y2065D02*
X1446Y2065D01*
X1464Y2065D02*
X1473Y2065D01*
X948Y2064D02*
X958Y2064D01*
X1003Y2064D02*
X1016Y2064D01*
X1024Y2064D02*
X1049Y2064D01*
X1075Y2064D02*
X1090Y2064D01*
X1104Y2064D02*
X1119Y2064D01*
X1174Y2064D02*
X1184Y2064D01*
X1220Y2064D02*
X1233Y2064D01*
X1241Y2064D02*
X1266Y2064D01*
X1292Y2064D02*
X1305Y2064D01*
X1364Y2064D02*
X1379Y2064D01*
X1393Y2064D02*
X1408Y2064D01*
X1436Y2064D02*
X1446Y2064D01*
X1464Y2064D02*
X1473Y2064D01*
X948Y2063D02*
X957Y2063D01*
X1002Y2063D02*
X1013Y2063D01*
X1026Y2063D02*
X1049Y2063D01*
X1075Y2063D02*
X1087Y2063D01*
X1107Y2063D02*
X1120Y2063D01*
X1175Y2063D02*
X1184Y2063D01*
X1219Y2063D02*
X1230Y2063D01*
X1242Y2063D02*
X1266Y2063D01*
X1291Y2063D02*
X1302Y2063D01*
X1364Y2063D02*
X1376Y2063D01*
X1396Y2063D02*
X1409Y2063D01*
X1435Y2063D02*
X1445Y2063D01*
X1464Y2063D02*
X1473Y2063D01*
X948Y2062D02*
X957Y2062D01*
X1002Y2062D02*
X1012Y2062D01*
X1027Y2062D02*
X1049Y2062D01*
X1074Y2062D02*
X1086Y2062D01*
X1108Y2062D02*
X1120Y2062D01*
X1175Y2062D02*
X1184Y2062D01*
X1219Y2062D02*
X1229Y2062D01*
X1244Y2062D02*
X1266Y2062D01*
X1291Y2062D02*
X1301Y2062D01*
X1363Y2062D02*
X1375Y2062D01*
X1397Y2062D02*
X1409Y2062D01*
X1435Y2062D02*
X1445Y2062D01*
X1464Y2062D02*
X1473Y2062D01*
X948Y2061D02*
X957Y2061D01*
X1002Y2061D02*
X1011Y2061D01*
X1029Y2061D02*
X1049Y2061D01*
X1074Y2061D02*
X1085Y2061D01*
X1109Y2061D02*
X1121Y2061D01*
X1175Y2061D02*
X1184Y2061D01*
X1219Y2061D02*
X1228Y2061D01*
X1245Y2061D02*
X1266Y2061D01*
X1291Y2061D02*
X1301Y2061D01*
X1363Y2061D02*
X1374Y2061D01*
X1399Y2061D02*
X1410Y2061D01*
X1435Y2061D02*
X1444Y2061D01*
X1464Y2061D02*
X1473Y2061D01*
X948Y2060D02*
X957Y2060D01*
X1002Y2060D02*
X1011Y2060D01*
X1030Y2060D02*
X1049Y2060D01*
X1073Y2060D02*
X1084Y2060D01*
X1111Y2060D02*
X1121Y2060D01*
X1175Y2060D02*
X1184Y2060D01*
X1219Y2060D02*
X1228Y2060D01*
X1247Y2060D02*
X1266Y2060D01*
X1291Y2060D02*
X1300Y2060D01*
X1362Y2060D02*
X1373Y2060D01*
X1400Y2060D02*
X1410Y2060D01*
X1435Y2060D02*
X1444Y2060D01*
X1464Y2060D02*
X1473Y2060D01*
X948Y2059D02*
X957Y2059D01*
X1002Y2059D02*
X1011Y2059D01*
X1032Y2059D02*
X1049Y2059D01*
X1073Y2059D02*
X1083Y2059D01*
X1111Y2059D02*
X1121Y2059D01*
X1175Y2059D02*
X1184Y2059D01*
X1219Y2059D02*
X1228Y2059D01*
X1249Y2059D02*
X1266Y2059D01*
X1291Y2059D02*
X1300Y2059D01*
X1362Y2059D02*
X1372Y2059D01*
X1401Y2059D02*
X1410Y2059D01*
X1434Y2059D02*
X1444Y2059D01*
X1464Y2059D02*
X1473Y2059D01*
X948Y2058D02*
X957Y2058D01*
X1002Y2058D02*
X1011Y2058D01*
X1033Y2058D02*
X1049Y2058D01*
X1073Y2058D02*
X1082Y2058D01*
X1112Y2058D02*
X1121Y2058D01*
X1175Y2058D02*
X1184Y2058D01*
X1219Y2058D02*
X1228Y2058D01*
X1250Y2058D02*
X1266Y2058D01*
X1291Y2058D02*
X1300Y2058D01*
X1362Y2058D02*
X1372Y2058D01*
X1401Y2058D02*
X1410Y2058D01*
X1434Y2058D02*
X1444Y2058D01*
X1464Y2058D02*
X1473Y2058D01*
X948Y2057D02*
X957Y2057D01*
X1002Y2057D02*
X1011Y2057D01*
X1035Y2057D02*
X1049Y2057D01*
X1073Y2057D02*
X1082Y2057D01*
X1112Y2057D02*
X1121Y2057D01*
X1175Y2057D02*
X1184Y2057D01*
X1219Y2057D02*
X1228Y2057D01*
X1252Y2057D02*
X1266Y2057D01*
X1291Y2057D02*
X1300Y2057D01*
X1362Y2057D02*
X1371Y2057D01*
X1402Y2057D02*
X1411Y2057D01*
X1434Y2057D02*
X1443Y2057D01*
X1464Y2057D02*
X1473Y2057D01*
X948Y2056D02*
X957Y2056D01*
X1002Y2056D02*
X1011Y2056D01*
X1036Y2056D02*
X1049Y2056D01*
X1073Y2056D02*
X1082Y2056D01*
X1112Y2056D02*
X1122Y2056D01*
X1175Y2056D02*
X1184Y2056D01*
X1219Y2056D02*
X1228Y2056D01*
X1253Y2056D02*
X1266Y2056D01*
X1291Y2056D02*
X1300Y2056D01*
X1362Y2056D02*
X1371Y2056D01*
X1402Y2056D02*
X1411Y2056D01*
X1434Y2056D02*
X1443Y2056D01*
X1464Y2056D02*
X1473Y2056D01*
X948Y2055D02*
X957Y2055D01*
X1002Y2055D02*
X1011Y2055D01*
X1038Y2055D02*
X1049Y2055D01*
X1073Y2055D02*
X1082Y2055D01*
X1112Y2055D02*
X1122Y2055D01*
X1175Y2055D02*
X1184Y2055D01*
X1219Y2055D02*
X1228Y2055D01*
X1255Y2055D02*
X1266Y2055D01*
X1291Y2055D02*
X1300Y2055D01*
X1362Y2055D02*
X1371Y2055D01*
X1402Y2055D02*
X1411Y2055D01*
X1434Y2055D02*
X1443Y2055D01*
X1464Y2055D02*
X1473Y2055D01*
X948Y2054D02*
X957Y2054D01*
X1002Y2054D02*
X1011Y2054D01*
X1039Y2054D02*
X1049Y2054D01*
X1073Y2054D02*
X1082Y2054D01*
X1112Y2054D02*
X1122Y2054D01*
X1175Y2054D02*
X1184Y2054D01*
X1218Y2054D02*
X1228Y2054D01*
X1256Y2054D02*
X1266Y2054D01*
X1291Y2054D02*
X1300Y2054D01*
X1362Y2054D02*
X1371Y2054D01*
X1402Y2054D02*
X1411Y2054D01*
X1434Y2054D02*
X1444Y2054D01*
X1464Y2054D02*
X1473Y2054D01*
X948Y2053D02*
X957Y2053D01*
X1002Y2053D02*
X1011Y2053D01*
X1040Y2053D02*
X1049Y2053D01*
X1073Y2053D02*
X1082Y2053D01*
X1112Y2053D02*
X1122Y2053D01*
X1175Y2053D02*
X1184Y2053D01*
X1218Y2053D02*
X1228Y2053D01*
X1257Y2053D02*
X1266Y2053D01*
X1291Y2053D02*
X1300Y2053D01*
X1362Y2053D02*
X1371Y2053D01*
X1402Y2053D02*
X1411Y2053D01*
X1435Y2053D02*
X1444Y2053D01*
X1464Y2053D02*
X1473Y2053D01*
X948Y2052D02*
X957Y2052D01*
X1002Y2052D02*
X1011Y2052D01*
X1040Y2052D02*
X1049Y2052D01*
X1073Y2052D02*
X1082Y2052D01*
X1112Y2052D02*
X1122Y2052D01*
X1175Y2052D02*
X1184Y2052D01*
X1218Y2052D02*
X1228Y2052D01*
X1257Y2052D02*
X1266Y2052D01*
X1291Y2052D02*
X1329Y2052D01*
X1362Y2052D02*
X1371Y2052D01*
X1402Y2052D02*
X1411Y2052D01*
X1435Y2052D02*
X1444Y2052D01*
X1464Y2052D02*
X1473Y2052D01*
X948Y2051D02*
X957Y2051D01*
X1002Y2051D02*
X1011Y2051D01*
X1040Y2051D02*
X1049Y2051D01*
X1073Y2051D02*
X1082Y2051D01*
X1112Y2051D02*
X1122Y2051D01*
X1175Y2051D02*
X1184Y2051D01*
X1218Y2051D02*
X1227Y2051D01*
X1257Y2051D02*
X1266Y2051D01*
X1291Y2051D02*
X1331Y2051D01*
X1362Y2051D02*
X1371Y2051D01*
X1402Y2051D02*
X1411Y2051D01*
X1435Y2051D02*
X1445Y2051D01*
X1464Y2051D02*
X1473Y2051D01*
X948Y2050D02*
X957Y2050D01*
X1002Y2050D02*
X1011Y2050D01*
X1040Y2050D02*
X1049Y2050D01*
X1073Y2050D02*
X1082Y2050D01*
X1112Y2050D02*
X1122Y2050D01*
X1175Y2050D02*
X1184Y2050D01*
X1218Y2050D02*
X1227Y2050D01*
X1257Y2050D02*
X1266Y2050D01*
X1291Y2050D02*
X1332Y2050D01*
X1362Y2050D02*
X1371Y2050D01*
X1402Y2050D02*
X1411Y2050D01*
X1435Y2050D02*
X1445Y2050D01*
X1464Y2050D02*
X1473Y2050D01*
X948Y2049D02*
X957Y2049D01*
X1001Y2049D02*
X1011Y2049D01*
X1040Y2049D02*
X1049Y2049D01*
X1073Y2049D02*
X1082Y2049D01*
X1112Y2049D02*
X1122Y2049D01*
X1175Y2049D02*
X1184Y2049D01*
X1218Y2049D02*
X1227Y2049D01*
X1257Y2049D02*
X1266Y2049D01*
X1291Y2049D02*
X1334Y2049D01*
X1362Y2049D02*
X1371Y2049D01*
X1402Y2049D02*
X1411Y2049D01*
X1436Y2049D02*
X1445Y2049D01*
X1464Y2049D02*
X1473Y2049D01*
X948Y2048D02*
X957Y2048D01*
X1001Y2048D02*
X1011Y2048D01*
X1040Y2048D02*
X1049Y2048D01*
X1073Y2048D02*
X1082Y2048D01*
X1112Y2048D02*
X1122Y2048D01*
X1175Y2048D02*
X1184Y2048D01*
X1218Y2048D02*
X1227Y2048D01*
X1257Y2048D02*
X1266Y2048D01*
X1291Y2048D02*
X1335Y2048D01*
X1362Y2048D02*
X1411Y2048D01*
X1436Y2048D02*
X1446Y2048D01*
X1464Y2048D02*
X1473Y2048D01*
X948Y2047D02*
X957Y2047D01*
X1001Y2047D02*
X1010Y2047D01*
X1040Y2047D02*
X1049Y2047D01*
X1073Y2047D02*
X1082Y2047D01*
X1112Y2047D02*
X1122Y2047D01*
X1175Y2047D02*
X1184Y2047D01*
X1218Y2047D02*
X1227Y2047D01*
X1257Y2047D02*
X1266Y2047D01*
X1291Y2047D02*
X1335Y2047D01*
X1362Y2047D02*
X1411Y2047D01*
X1436Y2047D02*
X1447Y2047D01*
X1464Y2047D02*
X1473Y2047D01*
X948Y2046D02*
X957Y2046D01*
X1001Y2046D02*
X1010Y2046D01*
X1040Y2046D02*
X1049Y2046D01*
X1073Y2046D02*
X1082Y2046D01*
X1112Y2046D02*
X1122Y2046D01*
X1175Y2046D02*
X1184Y2046D01*
X1218Y2046D02*
X1227Y2046D01*
X1257Y2046D02*
X1266Y2046D01*
X1290Y2046D02*
X1336Y2046D01*
X1362Y2046D02*
X1411Y2046D01*
X1437Y2046D02*
X1447Y2046D01*
X1464Y2046D02*
X1473Y2046D01*
X948Y2045D02*
X957Y2045D01*
X1001Y2045D02*
X1010Y2045D01*
X1040Y2045D02*
X1049Y2045D01*
X1073Y2045D02*
X1082Y2045D01*
X1112Y2045D02*
X1122Y2045D01*
X1175Y2045D02*
X1184Y2045D01*
X1218Y2045D02*
X1227Y2045D01*
X1257Y2045D02*
X1266Y2045D01*
X1290Y2045D02*
X1337Y2045D01*
X1362Y2045D02*
X1411Y2045D01*
X1437Y2045D02*
X1448Y2045D01*
X1464Y2045D02*
X1473Y2045D01*
X948Y2044D02*
X957Y2044D01*
X1001Y2044D02*
X1010Y2044D01*
X1040Y2044D02*
X1049Y2044D01*
X1073Y2044D02*
X1082Y2044D01*
X1112Y2044D02*
X1122Y2044D01*
X1175Y2044D02*
X1184Y2044D01*
X1218Y2044D02*
X1227Y2044D01*
X1257Y2044D02*
X1266Y2044D01*
X1290Y2044D02*
X1337Y2044D01*
X1362Y2044D02*
X1411Y2044D01*
X1438Y2044D02*
X1448Y2044D01*
X1464Y2044D02*
X1473Y2044D01*
X948Y2043D02*
X957Y2043D01*
X1001Y2043D02*
X1010Y2043D01*
X1040Y2043D02*
X1049Y2043D01*
X1073Y2043D02*
X1082Y2043D01*
X1112Y2043D02*
X1122Y2043D01*
X1175Y2043D02*
X1184Y2043D01*
X1218Y2043D02*
X1227Y2043D01*
X1257Y2043D02*
X1266Y2043D01*
X1290Y2043D02*
X1338Y2043D01*
X1362Y2043D02*
X1411Y2043D01*
X1438Y2043D02*
X1449Y2043D01*
X1464Y2043D02*
X1473Y2043D01*
X948Y2042D02*
X957Y2042D01*
X1001Y2042D02*
X1010Y2042D01*
X1040Y2042D02*
X1049Y2042D01*
X1073Y2042D02*
X1082Y2042D01*
X1112Y2042D02*
X1122Y2042D01*
X1175Y2042D02*
X1184Y2042D01*
X1218Y2042D02*
X1227Y2042D01*
X1257Y2042D02*
X1266Y2042D01*
X1290Y2042D02*
X1302Y2042D01*
X1327Y2042D02*
X1338Y2042D01*
X1362Y2042D02*
X1411Y2042D01*
X1439Y2042D02*
X1449Y2042D01*
X1464Y2042D02*
X1473Y2042D01*
X948Y2041D02*
X957Y2041D01*
X1001Y2041D02*
X1010Y2041D01*
X1040Y2041D02*
X1049Y2041D01*
X1073Y2041D02*
X1082Y2041D01*
X1112Y2041D02*
X1122Y2041D01*
X1175Y2041D02*
X1184Y2041D01*
X1218Y2041D02*
X1227Y2041D01*
X1257Y2041D02*
X1266Y2041D01*
X1290Y2041D02*
X1301Y2041D01*
X1328Y2041D02*
X1338Y2041D01*
X1363Y2041D02*
X1411Y2041D01*
X1439Y2041D02*
X1450Y2041D01*
X1464Y2041D02*
X1473Y2041D01*
X948Y2040D02*
X957Y2040D01*
X1001Y2040D02*
X1010Y2040D01*
X1040Y2040D02*
X1049Y2040D01*
X1073Y2040D02*
X1082Y2040D01*
X1112Y2040D02*
X1122Y2040D01*
X1175Y2040D02*
X1184Y2040D01*
X1218Y2040D02*
X1227Y2040D01*
X1257Y2040D02*
X1266Y2040D01*
X1290Y2040D02*
X1300Y2040D01*
X1329Y2040D02*
X1338Y2040D01*
X1364Y2040D02*
X1411Y2040D01*
X1440Y2040D02*
X1450Y2040D01*
X1464Y2040D02*
X1473Y2040D01*
X948Y2039D02*
X957Y2039D01*
X1001Y2039D02*
X1010Y2039D01*
X1040Y2039D02*
X1049Y2039D01*
X1073Y2039D02*
X1082Y2039D01*
X1112Y2039D02*
X1122Y2039D01*
X1175Y2039D02*
X1184Y2039D01*
X1218Y2039D02*
X1227Y2039D01*
X1257Y2039D02*
X1266Y2039D01*
X1290Y2039D02*
X1300Y2039D01*
X1329Y2039D02*
X1338Y2039D01*
X1365Y2039D02*
X1411Y2039D01*
X1440Y2039D02*
X1451Y2039D01*
X1464Y2039D02*
X1473Y2039D01*
X948Y2038D02*
X957Y2038D01*
X1001Y2038D02*
X1010Y2038D01*
X1040Y2038D02*
X1049Y2038D01*
X1073Y2038D02*
X1082Y2038D01*
X1112Y2038D02*
X1122Y2038D01*
X1175Y2038D02*
X1184Y2038D01*
X1218Y2038D02*
X1227Y2038D01*
X1257Y2038D02*
X1266Y2038D01*
X1290Y2038D02*
X1299Y2038D01*
X1329Y2038D02*
X1338Y2038D01*
X1402Y2038D02*
X1411Y2038D01*
X1441Y2038D02*
X1451Y2038D01*
X1464Y2038D02*
X1473Y2038D01*
X948Y2037D02*
X957Y2037D01*
X1001Y2037D02*
X1010Y2037D01*
X1040Y2037D02*
X1049Y2037D01*
X1073Y2037D02*
X1082Y2037D01*
X1112Y2037D02*
X1122Y2037D01*
X1175Y2037D02*
X1184Y2037D01*
X1218Y2037D02*
X1227Y2037D01*
X1257Y2037D02*
X1266Y2037D01*
X1290Y2037D02*
X1299Y2037D01*
X1329Y2037D02*
X1338Y2037D01*
X1402Y2037D02*
X1411Y2037D01*
X1441Y2037D02*
X1452Y2037D01*
X1464Y2037D02*
X1473Y2037D01*
X948Y2036D02*
X957Y2036D01*
X1001Y2036D02*
X1010Y2036D01*
X1040Y2036D02*
X1049Y2036D01*
X1073Y2036D02*
X1082Y2036D01*
X1112Y2036D02*
X1122Y2036D01*
X1175Y2036D02*
X1184Y2036D01*
X1218Y2036D02*
X1227Y2036D01*
X1257Y2036D02*
X1266Y2036D01*
X1290Y2036D02*
X1299Y2036D01*
X1329Y2036D02*
X1338Y2036D01*
X1402Y2036D02*
X1411Y2036D01*
X1442Y2036D02*
X1452Y2036D01*
X1464Y2036D02*
X1473Y2036D01*
X948Y2035D02*
X957Y2035D01*
X1001Y2035D02*
X1010Y2035D01*
X1040Y2035D02*
X1049Y2035D01*
X1073Y2035D02*
X1082Y2035D01*
X1112Y2035D02*
X1122Y2035D01*
X1147Y2035D02*
X1152Y2035D01*
X1175Y2035D02*
X1184Y2035D01*
X1218Y2035D02*
X1227Y2035D01*
X1257Y2035D02*
X1266Y2035D01*
X1290Y2035D02*
X1299Y2035D01*
X1329Y2035D02*
X1338Y2035D01*
X1402Y2035D02*
X1411Y2035D01*
X1442Y2035D02*
X1453Y2035D01*
X1464Y2035D02*
X1473Y2035D01*
X948Y2034D02*
X957Y2034D01*
X1001Y2034D02*
X1010Y2034D01*
X1040Y2034D02*
X1049Y2034D01*
X1073Y2034D02*
X1082Y2034D01*
X1112Y2034D02*
X1121Y2034D01*
X1146Y2034D02*
X1153Y2034D01*
X1175Y2034D02*
X1184Y2034D01*
X1218Y2034D02*
X1227Y2034D01*
X1257Y2034D02*
X1266Y2034D01*
X1290Y2034D02*
X1299Y2034D01*
X1329Y2034D02*
X1338Y2034D01*
X1401Y2034D02*
X1411Y2034D01*
X1443Y2034D02*
X1453Y2034D01*
X1464Y2034D02*
X1473Y2034D01*
X948Y2033D02*
X957Y2033D01*
X1001Y2033D02*
X1010Y2033D01*
X1040Y2033D02*
X1049Y2033D01*
X1073Y2033D02*
X1083Y2033D01*
X1112Y2033D02*
X1121Y2033D01*
X1146Y2033D02*
X1154Y2033D01*
X1175Y2033D02*
X1184Y2033D01*
X1218Y2033D02*
X1227Y2033D01*
X1257Y2033D02*
X1266Y2033D01*
X1290Y2033D02*
X1301Y2033D01*
X1329Y2033D02*
X1338Y2033D01*
X1401Y2033D02*
X1410Y2033D01*
X1443Y2033D02*
X1454Y2033D01*
X1464Y2033D02*
X1473Y2033D01*
X948Y2032D02*
X957Y2032D01*
X1001Y2032D02*
X1010Y2032D01*
X1040Y2032D02*
X1049Y2032D01*
X1073Y2032D02*
X1083Y2032D01*
X1111Y2032D02*
X1121Y2032D01*
X1145Y2032D02*
X1154Y2032D01*
X1175Y2032D02*
X1184Y2032D01*
X1218Y2032D02*
X1227Y2032D01*
X1257Y2032D02*
X1266Y2032D01*
X1290Y2032D02*
X1302Y2032D01*
X1329Y2032D02*
X1338Y2032D01*
X1400Y2032D02*
X1410Y2032D01*
X1444Y2032D02*
X1454Y2032D01*
X1464Y2032D02*
X1473Y2032D01*
X948Y2031D02*
X957Y2031D01*
X1001Y2031D02*
X1010Y2031D01*
X1040Y2031D02*
X1049Y2031D01*
X1073Y2031D02*
X1084Y2031D01*
X1110Y2031D02*
X1121Y2031D01*
X1145Y2031D02*
X1154Y2031D01*
X1175Y2031D02*
X1184Y2031D01*
X1218Y2031D02*
X1227Y2031D01*
X1257Y2031D02*
X1266Y2031D01*
X1290Y2031D02*
X1304Y2031D01*
X1329Y2031D02*
X1338Y2031D01*
X1399Y2031D02*
X1410Y2031D01*
X1444Y2031D02*
X1455Y2031D01*
X1464Y2031D02*
X1473Y2031D01*
X948Y2030D02*
X957Y2030D01*
X1001Y2030D02*
X1010Y2030D01*
X1040Y2030D02*
X1049Y2030D01*
X1074Y2030D02*
X1086Y2030D01*
X1109Y2030D02*
X1121Y2030D01*
X1145Y2030D02*
X1155Y2030D01*
X1174Y2030D02*
X1184Y2030D01*
X1218Y2030D02*
X1227Y2030D01*
X1257Y2030D02*
X1266Y2030D01*
X1290Y2030D02*
X1306Y2030D01*
X1329Y2030D02*
X1338Y2030D01*
X1398Y2030D02*
X1410Y2030D01*
X1445Y2030D02*
X1455Y2030D01*
X1464Y2030D02*
X1473Y2030D01*
X948Y2029D02*
X957Y2029D01*
X1001Y2029D02*
X1010Y2029D01*
X1040Y2029D02*
X1049Y2029D01*
X1074Y2029D02*
X1087Y2029D01*
X1108Y2029D02*
X1120Y2029D01*
X1145Y2029D02*
X1156Y2029D01*
X1173Y2029D02*
X1184Y2029D01*
X1218Y2029D02*
X1227Y2029D01*
X1257Y2029D02*
X1266Y2029D01*
X1290Y2029D02*
X1307Y2029D01*
X1328Y2029D02*
X1338Y2029D01*
X1397Y2029D02*
X1409Y2029D01*
X1445Y2029D02*
X1456Y2029D01*
X1464Y2029D02*
X1473Y2029D01*
X948Y2028D02*
X957Y2028D01*
X1001Y2028D02*
X1010Y2028D01*
X1040Y2028D02*
X1049Y2028D01*
X1075Y2028D02*
X1088Y2028D01*
X1106Y2028D02*
X1120Y2028D01*
X1146Y2028D02*
X1157Y2028D01*
X1172Y2028D02*
X1183Y2028D01*
X1218Y2028D02*
X1227Y2028D01*
X1257Y2028D02*
X1266Y2028D01*
X1290Y2028D02*
X1309Y2028D01*
X1327Y2028D02*
X1338Y2028D01*
X1395Y2028D02*
X1409Y2028D01*
X1446Y2028D02*
X1457Y2028D01*
X1464Y2028D02*
X1473Y2028D01*
X936Y2027D02*
X969Y2027D01*
X1001Y2027D02*
X1010Y2027D01*
X1040Y2027D02*
X1049Y2027D01*
X1076Y2027D02*
X1119Y2027D01*
X1146Y2027D02*
X1183Y2027D01*
X1218Y2027D02*
X1227Y2027D01*
X1257Y2027D02*
X1266Y2027D01*
X1290Y2027D02*
X1337Y2027D01*
X1365Y2027D02*
X1408Y2027D01*
X1446Y2027D02*
X1480Y2027D01*
X935Y2026D02*
X970Y2026D01*
X1001Y2026D02*
X1010Y2026D01*
X1040Y2026D02*
X1049Y2026D01*
X1076Y2026D02*
X1118Y2026D01*
X1147Y2026D02*
X1183Y2026D01*
X1218Y2026D02*
X1227Y2026D01*
X1257Y2026D02*
X1266Y2026D01*
X1290Y2026D02*
X1337Y2026D01*
X1364Y2026D02*
X1407Y2026D01*
X1447Y2026D02*
X1481Y2026D01*
X934Y2025D02*
X971Y2025D01*
X1001Y2025D02*
X1010Y2025D01*
X1040Y2025D02*
X1049Y2025D01*
X1077Y2025D02*
X1117Y2025D01*
X1147Y2025D02*
X1182Y2025D01*
X1218Y2025D02*
X1227Y2025D01*
X1257Y2025D02*
X1266Y2025D01*
X1290Y2025D02*
X1336Y2025D01*
X1363Y2025D02*
X1406Y2025D01*
X1447Y2025D02*
X1482Y2025D01*
X934Y2024D02*
X972Y2024D01*
X1001Y2024D02*
X1010Y2024D01*
X1040Y2024D02*
X1049Y2024D01*
X1078Y2024D02*
X1116Y2024D01*
X1148Y2024D02*
X1181Y2024D01*
X1218Y2024D02*
X1227Y2024D01*
X1257Y2024D02*
X1266Y2024D01*
X1290Y2024D02*
X1336Y2024D01*
X1362Y2024D02*
X1405Y2024D01*
X1448Y2024D02*
X1483Y2024D01*
X933Y2023D02*
X972Y2023D01*
X1001Y2023D02*
X1010Y2023D01*
X1040Y2023D02*
X1049Y2023D01*
X1079Y2023D02*
X1115Y2023D01*
X1148Y2023D02*
X1181Y2023D01*
X1217Y2023D02*
X1226Y2023D01*
X1257Y2023D02*
X1266Y2023D01*
X1290Y2023D02*
X1335Y2023D01*
X1362Y2023D02*
X1404Y2023D01*
X1448Y2023D02*
X1483Y2023D01*
X933Y2022D02*
X972Y2022D01*
X1001Y2022D02*
X1010Y2022D01*
X1040Y2022D02*
X1049Y2022D01*
X1081Y2022D02*
X1114Y2022D01*
X1149Y2022D02*
X1180Y2022D01*
X1218Y2022D02*
X1226Y2022D01*
X1257Y2022D02*
X1266Y2022D01*
X1290Y2022D02*
X1334Y2022D01*
X1362Y2022D02*
X1403Y2022D01*
X1449Y2022D02*
X1483Y2022D01*
X933Y2021D02*
X972Y2021D01*
X1001Y2021D02*
X1009Y2021D01*
X1040Y2021D02*
X1049Y2021D01*
X1082Y2021D02*
X1113Y2021D01*
X1150Y2021D02*
X1179Y2021D01*
X1218Y2021D02*
X1226Y2021D01*
X1257Y2021D02*
X1266Y2021D01*
X1290Y2021D02*
X1298Y2021D01*
X1302Y2021D02*
X1333Y2021D01*
X1362Y2021D02*
X1402Y2021D01*
X1450Y2021D02*
X1483Y2021D01*
X934Y2020D02*
X971Y2020D01*
X1001Y2020D02*
X1009Y2020D01*
X1041Y2020D02*
X1049Y2020D01*
X1083Y2020D02*
X1111Y2020D01*
X1152Y2020D02*
X1177Y2020D01*
X1218Y2020D02*
X1226Y2020D01*
X1258Y2020D02*
X1265Y2020D01*
X1290Y2020D02*
X1298Y2020D01*
X1304Y2020D02*
X1332Y2020D01*
X1363Y2020D02*
X1401Y2020D01*
X1452Y2020D02*
X1482Y2020D01*
X935Y2019D02*
X971Y2019D01*
X1002Y2019D02*
X1008Y2019D01*
X1042Y2019D02*
X1048Y2019D01*
X1085Y2019D02*
X1110Y2019D01*
X1153Y2019D02*
X1176Y2019D01*
X1219Y2019D02*
X1225Y2019D01*
X1258Y2019D02*
X1265Y2019D01*
X1291Y2019D02*
X1297Y2019D01*
X1306Y2019D02*
X1330Y2019D01*
X1363Y2019D02*
X1399Y2019D01*
X1453Y2019D02*
X1482Y2019D01*
X936Y2018D02*
X969Y2018D01*
X1003Y2018D02*
X1007Y2018D01*
X1043Y2018D02*
X1047Y2018D01*
X1087Y2018D02*
X1107Y2018D01*
X1156Y2018D02*
X1173Y2018D01*
X1220Y2018D02*
X1224Y2018D01*
X1260Y2018D02*
X1263Y2018D01*
X1292Y2018D02*
X1296Y2018D01*
X1307Y2018D02*
X1328Y2018D01*
X1365Y2018D02*
X1397Y2018D01*
X1456Y2018D02*
X1480Y2018D01*
X1080Y1995D02*
X1121Y1995D01*
X1169Y1995D02*
X1193Y1995D01*
X1229Y1995D02*
X1261Y1995D01*
X1301Y1995D02*
X1338Y1995D01*
X1078Y1994D02*
X1123Y1994D01*
X1168Y1994D02*
X1195Y1994D01*
X1226Y1994D02*
X1264Y1994D01*
X1299Y1994D02*
X1340Y1994D01*
X1077Y1993D02*
X1124Y1993D01*
X1168Y1993D02*
X1196Y1993D01*
X1225Y1993D02*
X1266Y1993D01*
X1297Y1993D02*
X1341Y1993D01*
X1077Y1992D02*
X1125Y1992D01*
X1168Y1992D02*
X1197Y1992D01*
X1224Y1992D02*
X1267Y1992D01*
X1296Y1992D02*
X1342Y1992D01*
X1076Y1991D02*
X1125Y1991D01*
X1168Y1991D02*
X1197Y1991D01*
X1223Y1991D02*
X1268Y1991D01*
X1295Y1991D02*
X1342Y1991D01*
X1076Y1990D02*
X1125Y1990D01*
X1168Y1990D02*
X1197Y1990D01*
X1222Y1990D02*
X1268Y1990D01*
X1294Y1990D02*
X1342Y1990D01*
X1076Y1989D02*
X1125Y1989D01*
X1168Y1989D02*
X1197Y1989D01*
X1222Y1989D02*
X1269Y1989D01*
X1294Y1989D02*
X1342Y1989D01*
X1076Y1988D02*
X1125Y1988D01*
X1168Y1988D02*
X1197Y1988D01*
X1221Y1988D02*
X1269Y1988D01*
X1294Y1988D02*
X1341Y1988D01*
X1076Y1987D02*
X1125Y1987D01*
X1168Y1987D02*
X1196Y1987D01*
X1221Y1987D02*
X1269Y1987D01*
X1293Y1987D02*
X1341Y1987D01*
X1076Y1986D02*
X1125Y1986D01*
X1168Y1986D02*
X1195Y1986D01*
X1221Y1986D02*
X1270Y1986D01*
X1293Y1986D02*
X1340Y1986D01*
X1076Y1985D02*
X1086Y1985D01*
X1116Y1985D02*
X1125Y1985D01*
X1168Y1985D02*
X1178Y1985D01*
X1221Y1985D02*
X1230Y1985D01*
X1260Y1985D02*
X1270Y1985D01*
X1293Y1985D02*
X1303Y1985D01*
X1076Y1984D02*
X1085Y1984D01*
X1116Y1984D02*
X1125Y1984D01*
X1168Y1984D02*
X1178Y1984D01*
X1221Y1984D02*
X1230Y1984D01*
X1261Y1984D02*
X1270Y1984D01*
X1293Y1984D02*
X1302Y1984D01*
X1076Y1983D02*
X1085Y1983D01*
X1116Y1983D02*
X1125Y1983D01*
X1168Y1983D02*
X1178Y1983D01*
X1221Y1983D02*
X1230Y1983D01*
X1261Y1983D02*
X1270Y1983D01*
X1293Y1983D02*
X1302Y1983D01*
X1076Y1982D02*
X1085Y1982D01*
X1116Y1982D02*
X1125Y1982D01*
X1168Y1982D02*
X1178Y1982D01*
X1221Y1982D02*
X1230Y1982D01*
X1261Y1982D02*
X1270Y1982D01*
X1293Y1982D02*
X1302Y1982D01*
X1076Y1981D02*
X1085Y1981D01*
X1116Y1981D02*
X1125Y1981D01*
X1168Y1981D02*
X1178Y1981D01*
X1221Y1981D02*
X1230Y1981D01*
X1261Y1981D02*
X1270Y1981D01*
X1293Y1981D02*
X1302Y1981D01*
X1076Y1980D02*
X1085Y1980D01*
X1116Y1980D02*
X1125Y1980D01*
X1168Y1980D02*
X1178Y1980D01*
X1221Y1980D02*
X1230Y1980D01*
X1261Y1980D02*
X1270Y1980D01*
X1293Y1980D02*
X1302Y1980D01*
X1076Y1979D02*
X1085Y1979D01*
X1116Y1979D02*
X1125Y1979D01*
X1168Y1979D02*
X1178Y1979D01*
X1221Y1979D02*
X1230Y1979D01*
X1261Y1979D02*
X1270Y1979D01*
X1293Y1979D02*
X1302Y1979D01*
X1076Y1978D02*
X1085Y1978D01*
X1116Y1978D02*
X1125Y1978D01*
X1168Y1978D02*
X1178Y1978D01*
X1221Y1978D02*
X1230Y1978D01*
X1261Y1978D02*
X1270Y1978D01*
X1293Y1978D02*
X1302Y1978D01*
X1076Y1977D02*
X1085Y1977D01*
X1116Y1977D02*
X1125Y1977D01*
X1168Y1977D02*
X1178Y1977D01*
X1221Y1977D02*
X1230Y1977D01*
X1261Y1977D02*
X1270Y1977D01*
X1293Y1977D02*
X1302Y1977D01*
X1076Y1976D02*
X1085Y1976D01*
X1116Y1976D02*
X1125Y1976D01*
X1168Y1976D02*
X1178Y1976D01*
X1221Y1976D02*
X1230Y1976D01*
X1261Y1976D02*
X1270Y1976D01*
X1293Y1976D02*
X1302Y1976D01*
X1076Y1975D02*
X1085Y1975D01*
X1116Y1975D02*
X1125Y1975D01*
X1168Y1975D02*
X1178Y1975D01*
X1221Y1975D02*
X1230Y1975D01*
X1261Y1975D02*
X1270Y1975D01*
X1293Y1975D02*
X1302Y1975D01*
X1076Y1974D02*
X1085Y1974D01*
X1116Y1974D02*
X1125Y1974D01*
X1168Y1974D02*
X1178Y1974D01*
X1221Y1974D02*
X1230Y1974D01*
X1261Y1974D02*
X1270Y1974D01*
X1293Y1974D02*
X1302Y1974D01*
X1076Y1973D02*
X1085Y1973D01*
X1116Y1973D02*
X1125Y1973D01*
X1168Y1973D02*
X1178Y1973D01*
X1221Y1973D02*
X1230Y1973D01*
X1261Y1973D02*
X1270Y1973D01*
X1293Y1973D02*
X1302Y1973D01*
X1076Y1972D02*
X1085Y1972D01*
X1116Y1972D02*
X1125Y1972D01*
X1168Y1972D02*
X1178Y1972D01*
X1221Y1972D02*
X1230Y1972D01*
X1261Y1972D02*
X1270Y1972D01*
X1293Y1972D02*
X1302Y1972D01*
X1076Y1971D02*
X1085Y1971D01*
X1116Y1971D02*
X1125Y1971D01*
X1168Y1971D02*
X1178Y1971D01*
X1221Y1971D02*
X1230Y1971D01*
X1261Y1971D02*
X1270Y1971D01*
X1293Y1971D02*
X1302Y1971D01*
X1076Y1970D02*
X1086Y1970D01*
X1116Y1970D02*
X1125Y1970D01*
X1168Y1970D02*
X1178Y1970D01*
X1221Y1970D02*
X1230Y1970D01*
X1261Y1970D02*
X1270Y1970D01*
X1293Y1970D02*
X1302Y1970D01*
X1076Y1969D02*
X1125Y1969D01*
X1168Y1969D02*
X1178Y1969D01*
X1221Y1969D02*
X1230Y1969D01*
X1261Y1969D02*
X1270Y1969D01*
X1293Y1969D02*
X1302Y1969D01*
X1076Y1968D02*
X1125Y1968D01*
X1168Y1968D02*
X1178Y1968D01*
X1221Y1968D02*
X1230Y1968D01*
X1261Y1968D02*
X1270Y1968D01*
X1293Y1968D02*
X1302Y1968D01*
X1076Y1967D02*
X1125Y1967D01*
X1168Y1967D02*
X1178Y1967D01*
X1221Y1967D02*
X1230Y1967D01*
X1261Y1967D02*
X1270Y1967D01*
X1293Y1967D02*
X1302Y1967D01*
X1076Y1966D02*
X1125Y1966D01*
X1168Y1966D02*
X1178Y1966D01*
X1221Y1966D02*
X1230Y1966D01*
X1261Y1966D02*
X1270Y1966D01*
X1293Y1966D02*
X1302Y1966D01*
X1076Y1965D02*
X1125Y1965D01*
X1168Y1965D02*
X1178Y1965D01*
X1221Y1965D02*
X1230Y1965D01*
X1261Y1965D02*
X1270Y1965D01*
X1293Y1965D02*
X1302Y1965D01*
X1076Y1964D02*
X1125Y1964D01*
X1168Y1964D02*
X1178Y1964D01*
X1221Y1964D02*
X1230Y1964D01*
X1261Y1964D02*
X1270Y1964D01*
X1293Y1964D02*
X1302Y1964D01*
X1076Y1963D02*
X1125Y1963D01*
X1168Y1963D02*
X1178Y1963D01*
X1221Y1963D02*
X1230Y1963D01*
X1261Y1963D02*
X1270Y1963D01*
X1293Y1963D02*
X1302Y1963D01*
X1076Y1962D02*
X1124Y1962D01*
X1168Y1962D02*
X1178Y1962D01*
X1221Y1962D02*
X1230Y1962D01*
X1261Y1962D02*
X1270Y1962D01*
X1293Y1962D02*
X1302Y1962D01*
X1076Y1961D02*
X1123Y1961D01*
X1168Y1961D02*
X1178Y1961D01*
X1221Y1961D02*
X1230Y1961D01*
X1261Y1961D02*
X1270Y1961D01*
X1293Y1961D02*
X1334Y1961D01*
X1076Y1960D02*
X1122Y1960D01*
X1168Y1960D02*
X1178Y1960D01*
X1221Y1960D02*
X1230Y1960D01*
X1261Y1960D02*
X1270Y1960D01*
X1293Y1960D02*
X1337Y1960D01*
X1076Y1959D02*
X1085Y1959D01*
X1168Y1959D02*
X1178Y1959D01*
X1221Y1959D02*
X1230Y1959D01*
X1261Y1959D02*
X1270Y1959D01*
X1293Y1959D02*
X1338Y1959D01*
X1076Y1958D02*
X1085Y1958D01*
X1168Y1958D02*
X1178Y1958D01*
X1221Y1958D02*
X1230Y1958D01*
X1261Y1958D02*
X1270Y1958D01*
X1294Y1958D02*
X1339Y1958D01*
X1076Y1957D02*
X1085Y1957D01*
X1168Y1957D02*
X1178Y1957D01*
X1221Y1957D02*
X1230Y1957D01*
X1261Y1957D02*
X1270Y1957D01*
X1294Y1957D02*
X1340Y1957D01*
X1076Y1956D02*
X1085Y1956D01*
X1168Y1956D02*
X1178Y1956D01*
X1221Y1956D02*
X1230Y1956D01*
X1261Y1956D02*
X1270Y1956D01*
X1295Y1956D02*
X1341Y1956D01*
X1076Y1955D02*
X1085Y1955D01*
X1168Y1955D02*
X1178Y1955D01*
X1221Y1955D02*
X1230Y1955D01*
X1261Y1955D02*
X1270Y1955D01*
X1295Y1955D02*
X1341Y1955D01*
X1076Y1954D02*
X1085Y1954D01*
X1168Y1954D02*
X1178Y1954D01*
X1221Y1954D02*
X1230Y1954D01*
X1261Y1954D02*
X1270Y1954D01*
X1296Y1954D02*
X1341Y1954D01*
X1076Y1953D02*
X1085Y1953D01*
X1168Y1953D02*
X1178Y1953D01*
X1221Y1953D02*
X1230Y1953D01*
X1261Y1953D02*
X1270Y1953D01*
X1298Y1953D02*
X1342Y1953D01*
X1076Y1952D02*
X1085Y1952D01*
X1151Y1952D02*
X1155Y1952D01*
X1168Y1952D02*
X1178Y1952D01*
X1221Y1952D02*
X1230Y1952D01*
X1261Y1952D02*
X1270Y1952D01*
X1299Y1952D02*
X1342Y1952D01*
X1076Y1951D02*
X1085Y1951D01*
X1150Y1951D02*
X1156Y1951D01*
X1168Y1951D02*
X1178Y1951D01*
X1221Y1951D02*
X1230Y1951D01*
X1261Y1951D02*
X1270Y1951D01*
X1333Y1951D02*
X1342Y1951D01*
X1076Y1950D02*
X1085Y1950D01*
X1149Y1950D02*
X1157Y1950D01*
X1168Y1950D02*
X1178Y1950D01*
X1221Y1950D02*
X1230Y1950D01*
X1261Y1950D02*
X1270Y1950D01*
X1333Y1950D02*
X1342Y1950D01*
X1076Y1949D02*
X1085Y1949D01*
X1149Y1949D02*
X1157Y1949D01*
X1168Y1949D02*
X1178Y1949D01*
X1221Y1949D02*
X1230Y1949D01*
X1261Y1949D02*
X1270Y1949D01*
X1333Y1949D02*
X1342Y1949D01*
X1076Y1948D02*
X1085Y1948D01*
X1149Y1948D02*
X1158Y1948D01*
X1168Y1948D02*
X1178Y1948D01*
X1221Y1948D02*
X1230Y1948D01*
X1261Y1948D02*
X1270Y1948D01*
X1333Y1948D02*
X1342Y1948D01*
X1076Y1947D02*
X1085Y1947D01*
X1149Y1947D02*
X1158Y1947D01*
X1168Y1947D02*
X1178Y1947D01*
X1221Y1947D02*
X1230Y1947D01*
X1261Y1947D02*
X1270Y1947D01*
X1333Y1947D02*
X1342Y1947D01*
X1076Y1946D02*
X1085Y1946D01*
X1149Y1946D02*
X1158Y1946D01*
X1168Y1946D02*
X1178Y1946D01*
X1221Y1946D02*
X1230Y1946D01*
X1261Y1946D02*
X1270Y1946D01*
X1333Y1946D02*
X1342Y1946D01*
X1076Y1945D02*
X1085Y1945D01*
X1149Y1945D02*
X1158Y1945D01*
X1168Y1945D02*
X1178Y1945D01*
X1221Y1945D02*
X1230Y1945D01*
X1261Y1945D02*
X1270Y1945D01*
X1333Y1945D02*
X1342Y1945D01*
X1076Y1944D02*
X1085Y1944D01*
X1149Y1944D02*
X1158Y1944D01*
X1168Y1944D02*
X1178Y1944D01*
X1221Y1944D02*
X1230Y1944D01*
X1261Y1944D02*
X1270Y1944D01*
X1333Y1944D02*
X1342Y1944D01*
X1076Y1943D02*
X1085Y1943D01*
X1149Y1943D02*
X1158Y1943D01*
X1168Y1943D02*
X1178Y1943D01*
X1221Y1943D02*
X1230Y1943D01*
X1261Y1943D02*
X1270Y1943D01*
X1333Y1943D02*
X1342Y1943D01*
X1076Y1942D02*
X1085Y1942D01*
X1149Y1942D02*
X1158Y1942D01*
X1168Y1942D02*
X1178Y1942D01*
X1221Y1942D02*
X1230Y1942D01*
X1261Y1942D02*
X1270Y1942D01*
X1333Y1942D02*
X1342Y1942D01*
X1076Y1941D02*
X1085Y1941D01*
X1149Y1941D02*
X1158Y1941D01*
X1168Y1941D02*
X1178Y1941D01*
X1221Y1941D02*
X1230Y1941D01*
X1261Y1941D02*
X1270Y1941D01*
X1333Y1941D02*
X1342Y1941D01*
X1076Y1940D02*
X1085Y1940D01*
X1149Y1940D02*
X1158Y1940D01*
X1168Y1940D02*
X1178Y1940D01*
X1221Y1940D02*
X1230Y1940D01*
X1261Y1940D02*
X1270Y1940D01*
X1333Y1940D02*
X1342Y1940D01*
X1076Y1939D02*
X1085Y1939D01*
X1149Y1939D02*
X1158Y1939D01*
X1168Y1939D02*
X1178Y1939D01*
X1221Y1939D02*
X1230Y1939D01*
X1261Y1939D02*
X1270Y1939D01*
X1333Y1939D02*
X1342Y1939D01*
X1076Y1938D02*
X1085Y1938D01*
X1149Y1938D02*
X1158Y1938D01*
X1168Y1938D02*
X1178Y1938D01*
X1221Y1938D02*
X1230Y1938D01*
X1261Y1938D02*
X1270Y1938D01*
X1333Y1938D02*
X1342Y1938D01*
X1076Y1937D02*
X1085Y1937D01*
X1149Y1937D02*
X1158Y1937D01*
X1168Y1937D02*
X1178Y1937D01*
X1221Y1937D02*
X1230Y1937D01*
X1261Y1937D02*
X1270Y1937D01*
X1333Y1937D02*
X1342Y1937D01*
X1076Y1936D02*
X1085Y1936D01*
X1149Y1936D02*
X1158Y1936D01*
X1168Y1936D02*
X1178Y1936D01*
X1221Y1936D02*
X1230Y1936D01*
X1261Y1936D02*
X1270Y1936D01*
X1333Y1936D02*
X1342Y1936D01*
X1076Y1935D02*
X1085Y1935D01*
X1149Y1935D02*
X1158Y1935D01*
X1168Y1935D02*
X1178Y1935D01*
X1221Y1935D02*
X1230Y1935D01*
X1261Y1935D02*
X1270Y1935D01*
X1333Y1935D02*
X1342Y1935D01*
X1076Y1934D02*
X1085Y1934D01*
X1149Y1934D02*
X1158Y1934D01*
X1168Y1934D02*
X1178Y1934D01*
X1221Y1934D02*
X1230Y1934D01*
X1261Y1934D02*
X1270Y1934D01*
X1333Y1934D02*
X1342Y1934D01*
X1076Y1933D02*
X1085Y1933D01*
X1149Y1933D02*
X1158Y1933D01*
X1168Y1933D02*
X1178Y1933D01*
X1221Y1933D02*
X1230Y1933D01*
X1261Y1933D02*
X1270Y1933D01*
X1333Y1933D02*
X1342Y1933D01*
X1076Y1932D02*
X1085Y1932D01*
X1149Y1932D02*
X1158Y1932D01*
X1168Y1932D02*
X1178Y1932D01*
X1221Y1932D02*
X1230Y1932D01*
X1261Y1932D02*
X1270Y1932D01*
X1333Y1932D02*
X1342Y1932D01*
X1076Y1931D02*
X1085Y1931D01*
X1149Y1931D02*
X1158Y1931D01*
X1168Y1931D02*
X1178Y1931D01*
X1221Y1931D02*
X1230Y1931D01*
X1261Y1931D02*
X1270Y1931D01*
X1333Y1931D02*
X1342Y1931D01*
X1076Y1930D02*
X1085Y1930D01*
X1149Y1930D02*
X1158Y1930D01*
X1168Y1930D02*
X1178Y1930D01*
X1221Y1930D02*
X1230Y1930D01*
X1261Y1930D02*
X1270Y1930D01*
X1333Y1930D02*
X1342Y1930D01*
X1076Y1929D02*
X1085Y1929D01*
X1149Y1929D02*
X1158Y1929D01*
X1168Y1929D02*
X1178Y1929D01*
X1221Y1929D02*
X1230Y1929D01*
X1261Y1929D02*
X1270Y1929D01*
X1333Y1929D02*
X1342Y1929D01*
X1076Y1928D02*
X1085Y1928D01*
X1149Y1928D02*
X1158Y1928D01*
X1168Y1928D02*
X1178Y1928D01*
X1221Y1928D02*
X1230Y1928D01*
X1261Y1928D02*
X1270Y1928D01*
X1333Y1928D02*
X1342Y1928D01*
X1076Y1927D02*
X1087Y1927D01*
X1149Y1927D02*
X1194Y1927D01*
X1221Y1927D02*
X1270Y1927D01*
X1297Y1927D02*
X1342Y1927D01*
X1076Y1926D02*
X1089Y1926D01*
X1149Y1926D02*
X1196Y1926D01*
X1221Y1926D02*
X1270Y1926D01*
X1295Y1926D02*
X1342Y1926D01*
X1076Y1925D02*
X1089Y1925D01*
X1149Y1925D02*
X1196Y1925D01*
X1221Y1925D02*
X1269Y1925D01*
X1294Y1925D02*
X1342Y1925D01*
X1076Y1924D02*
X1090Y1924D01*
X1149Y1924D02*
X1197Y1924D01*
X1221Y1924D02*
X1269Y1924D01*
X1293Y1924D02*
X1342Y1924D01*
X1076Y1923D02*
X1090Y1923D01*
X1149Y1923D02*
X1197Y1923D01*
X1222Y1923D02*
X1269Y1923D01*
X1293Y1923D02*
X1342Y1923D01*
X1076Y1922D02*
X1090Y1922D01*
X1149Y1922D02*
X1197Y1922D01*
X1222Y1922D02*
X1268Y1922D01*
X1293Y1922D02*
X1342Y1922D01*
X1077Y1921D02*
X1090Y1921D01*
X1149Y1921D02*
X1197Y1921D01*
X1223Y1921D02*
X1267Y1921D01*
X1293Y1921D02*
X1342Y1921D01*
X1077Y1920D02*
X1090Y1920D01*
X1149Y1920D02*
X1197Y1920D01*
X1224Y1920D02*
X1266Y1920D01*
X1294Y1920D02*
X1342Y1920D01*
X1078Y1919D02*
X1089Y1919D01*
X1150Y1919D02*
X1196Y1919D01*
X1225Y1919D02*
X1265Y1919D01*
X1294Y1919D02*
X1342Y1919D01*
X1079Y1918D02*
X1088Y1918D01*
X1151Y1918D02*
X1195Y1918D01*
X1227Y1918D02*
X1263Y1918D01*
X1296Y1918D02*
X1342Y1918D01*
D02*
G04 End of Silk0*
M02*