G04 MADE WITH FRITZING*
G04 WWW.FRITZING.ORG*
G04 DOUBLE SIDED*
G04 HOLES PLATED*
G04 CONTOUR ON CENTER OF CONTOUR VECTOR*
%ASAXBY*%
%FSLAX23Y23*%
%MOIN*%
%OFA0B0*%
%SFA1.0B1.0*%
%ADD10C,0.138425*%
%ADD11C,0.086000*%
%ADD12C,0.070000*%
%ADD13C,0.078000*%
%ADD14C,0.066194*%
%ADD15C,0.066222*%
%ADD16C,0.039370*%
%ADD17C,0.079370*%
%ADD18R,0.078000X0.078000*%
%ADD19R,0.079370X0.079370*%
%ADD20C,0.024000*%
%LNCOPPER1*%
G90*
G70*
G54D10*
X3587Y1380D03*
G54D11*
X3532Y938D03*
G54D10*
X3587Y630D03*
G54D12*
X2932Y605D03*
X2932Y705D03*
X2932Y805D03*
X2932Y905D03*
X2932Y1005D03*
X2932Y1105D03*
X2932Y1205D03*
X2932Y1305D03*
X2932Y1405D03*
G54D11*
X3532Y1076D03*
G54D13*
X1430Y254D03*
X1530Y254D03*
X1630Y254D03*
X1730Y254D03*
X1830Y254D03*
X1930Y254D03*
X2030Y254D03*
X2130Y254D03*
X2230Y254D03*
X2330Y254D03*
X2430Y254D03*
G54D14*
X2128Y592D03*
X2228Y592D03*
X2328Y592D03*
X2428Y592D03*
X2528Y592D03*
G54D15*
X1668Y2492D03*
X1568Y2492D03*
X1468Y2492D03*
X1368Y2492D03*
X1268Y2492D03*
X1168Y2492D03*
X1068Y2492D03*
X968Y2492D03*
X868Y2492D03*
X768Y2492D03*
X2528Y2492D03*
X2428Y2492D03*
X2328Y2492D03*
X2228Y2492D03*
X2128Y2492D03*
X2028Y2492D03*
X1928Y2492D03*
X1828Y2492D03*
G54D14*
X1228Y592D03*
X1128Y592D03*
X1328Y592D03*
X1428Y592D03*
X1528Y592D03*
X1628Y592D03*
X1728Y592D03*
X1828Y592D03*
X2028Y592D03*
G54D16*
X1948Y1078D03*
X2065Y408D03*
G54D17*
X2947Y2083D03*
X3247Y2083D03*
X2947Y1983D03*
X3247Y1983D03*
X2947Y1883D03*
X3247Y1883D03*
X2947Y1783D03*
X3247Y1783D03*
G54D18*
X1430Y254D03*
G54D19*
X2947Y2083D03*
G54D20*
X3128Y486D02*
X1751Y486D01*
D02*
X2962Y1204D02*
X3128Y1197D01*
D02*
X3128Y1197D02*
X3128Y486D01*
D02*
X1751Y486D02*
X1734Y562D01*
D02*
X2576Y1903D02*
X2576Y1118D01*
D02*
X2576Y1118D02*
X2901Y1106D01*
D02*
X2229Y2391D02*
X2225Y1903D01*
D02*
X2225Y1903D02*
X2576Y1903D01*
D02*
X2228Y2461D02*
X2229Y2391D01*
D02*
X2901Y906D02*
X2459Y918D01*
D02*
X2459Y918D02*
X2459Y1788D01*
D02*
X2459Y1788D02*
X2143Y1788D01*
D02*
X2143Y1788D02*
X2128Y2461D01*
D02*
X2901Y805D02*
X2342Y801D01*
D02*
X1829Y1706D02*
X1828Y2461D01*
D02*
X2342Y1706D02*
X1829Y1706D01*
D02*
X2342Y801D02*
X2342Y1706D01*
D02*
X1925Y225D02*
X1908Y133D01*
D02*
X1908Y133D02*
X1435Y133D01*
D02*
X1435Y133D02*
X1431Y224D01*
D02*
X1630Y285D02*
X1628Y561D01*
D02*
X1673Y1078D02*
X1929Y1078D01*
D02*
X1668Y2461D02*
X1673Y1078D01*
D02*
X2084Y409D02*
X2223Y409D01*
D02*
X2223Y409D02*
X2229Y284D01*
D02*
X3128Y1196D02*
X3128Y2063D01*
D02*
X3128Y2063D02*
X2977Y2080D01*
D02*
X2962Y1204D02*
X3128Y1196D01*
D02*
X2814Y2613D02*
X2814Y1786D01*
D02*
X962Y2613D02*
X2814Y2613D01*
D02*
X966Y2522D02*
X962Y2613D01*
D02*
X2814Y1786D02*
X2916Y1784D01*
G04 End of Copper1*
M02*