; NON-PLATED HOLES START AT T1
; THROUGH (PLATED) HOLES START AT T100
M48
INCH
T100C0.015748
T101C0.038000
T102C0.038445
T103C0.038417
T104C0.098425
T105C0.039370
%
T100
X020653Y004084
X019481Y010776
T101
X020298Y002543
X022298Y002543
X021298Y002543
X019298Y002543
X015298Y002543
X018298Y002543
X023298Y002543
X024298Y002543
X014298Y002543
X017298Y002543
X016298Y002543
T102
X007676Y024917
X019276Y024917
X021276Y024917
X014676Y024917
X020276Y024917
X011676Y024917
X025276Y024917
X023276Y024917
X013676Y024917
X012676Y024917
X008676Y024917
X015676Y024917
X009676Y024917
X010676Y024917
X018276Y024917
X022276Y024917
X024276Y024917
X016676Y024917
T103
X024276Y005917
X025276Y005917
X018276Y005917
X013276Y005917
X017276Y005917
X016276Y005917
X014276Y005917
X020276Y005917
X012276Y005917
X015276Y005917
X021276Y005917
X022276Y005917
X011276Y005917
X023276Y005917
T104
X035865Y006301
X035865Y013801
T105
X029315Y010051
X029465Y020831
X032465Y019831
X029315Y006051
X032465Y017831
X029315Y009051
X029315Y011051
X029315Y014051
X029465Y017831
X029315Y013051
X029315Y012051
X029465Y018831
X032465Y018831
X035315Y009382
X029315Y008051
X029465Y019831
X029315Y007051
X032465Y020831
X035315Y010760
T00
M30
