G04 MADE WITH FRITZING*
G04 WWW.FRITZING.ORG*
G04 DOUBLE SIDED*
G04 HOLES PLATED*
G04 CONTOUR ON CENTER OF CONTOUR VECTOR*
%ASAXBY*%
%FSLAX23Y23*%
%MOIN*%
%OFA0B0*%
%SFA1.0B1.0*%
%ADD10C,0.075000*%
%ADD11C,0.070000*%
%ADD12C,0.039370*%
%ADD13C,0.082000*%
%ADD14C,0.080000*%
%ADD15C,0.138425*%
%ADD16C,0.086000*%
%ADD17C,0.078000*%
%ADD18R,0.069972X0.070000*%
%ADD19R,0.075000X0.075000*%
%ADD20R,0.082000X0.082000*%
%ADD21R,0.078000X0.078000*%
%ADD22C,0.024000*%
%ADD23C,0.048000*%
%ADD24R,0.001000X0.001000*%
%LNCOPPER0*%
G90*
G70*
G54D10*
X109Y2133D03*
X500Y2132D03*
X772Y1897D03*
G54D11*
X886Y701D03*
X886Y801D03*
X886Y901D03*
X886Y1001D03*
X886Y1101D03*
X886Y1201D03*
X886Y1301D03*
X886Y1401D03*
X886Y1501D03*
X886Y1601D03*
X886Y1701D03*
X886Y1801D03*
X886Y1901D03*
X886Y2001D03*
X886Y2101D03*
X286Y701D03*
X286Y801D03*
X286Y901D03*
X286Y1001D03*
X286Y1101D03*
X286Y1201D03*
X286Y1301D03*
X286Y1401D03*
X286Y1501D03*
X286Y1601D03*
X286Y1701D03*
X286Y1801D03*
X286Y1901D03*
X286Y2001D03*
X286Y2101D03*
G54D12*
X1318Y657D03*
G54D10*
X2144Y1579D03*
X2144Y2073D03*
X1683Y2078D03*
X1921Y1517D03*
X1688Y1579D03*
G54D13*
X2087Y1325D03*
X1789Y1325D03*
G54D10*
X1560Y1561D03*
X1160Y1561D03*
G54D14*
X2396Y1839D03*
X2396Y1991D03*
G54D15*
X2456Y931D03*
G54D16*
X2401Y489D03*
G54D15*
X2456Y181D03*
G54D11*
X1801Y156D03*
X1801Y256D03*
X1801Y356D03*
X1801Y456D03*
X1801Y556D03*
X1801Y656D03*
X1801Y756D03*
X1801Y856D03*
X1801Y956D03*
G54D16*
X2401Y626D03*
G54D17*
X368Y142D03*
X468Y142D03*
X568Y142D03*
X668Y142D03*
X768Y142D03*
X868Y142D03*
X968Y142D03*
X1068Y142D03*
X1168Y142D03*
X1268Y142D03*
X1368Y142D03*
G54D18*
X886Y701D03*
G54D19*
X2144Y1580D03*
G54D20*
X2088Y1325D03*
G54D21*
X368Y142D03*
G54D22*
X1131Y1561D02*
X976Y1561D01*
D02*
X976Y1561D02*
X976Y1100D01*
D02*
X976Y1100D02*
X915Y1100D01*
D02*
X915Y1701D02*
X1236Y1701D01*
D02*
X1236Y1701D02*
X1236Y1061D01*
D02*
X1236Y1061D02*
X1046Y1061D01*
D02*
X1166Y460D02*
X1167Y172D01*
D02*
X1045Y461D02*
X1166Y460D01*
D02*
X1046Y1061D02*
X1045Y461D01*
D02*
X1067Y172D02*
X1065Y401D01*
D02*
X1065Y401D02*
X685Y401D01*
D02*
X685Y401D02*
X687Y2000D01*
D02*
X687Y2000D02*
X857Y2000D01*
D02*
X1147Y510D02*
X1146Y940D01*
D02*
X1266Y510D02*
X1147Y510D01*
D02*
X1267Y172D02*
X1266Y510D01*
D02*
X1146Y940D02*
X1316Y940D01*
D02*
X1316Y940D02*
X1318Y1797D01*
D02*
X1318Y1797D02*
X915Y1800D01*
D02*
X915Y1901D02*
X1406Y1901D01*
D02*
X1406Y1901D02*
X1406Y821D01*
D02*
X1406Y821D02*
X1246Y821D01*
D02*
X1246Y571D02*
X1366Y571D01*
D02*
X1366Y571D02*
X1367Y172D01*
D02*
X1246Y821D02*
X1246Y571D01*
D02*
X966Y331D02*
X406Y331D01*
D02*
X406Y331D02*
X406Y2100D01*
D02*
X967Y172D02*
X966Y331D01*
D02*
X406Y2100D02*
X315Y2100D01*
D02*
X1337Y657D02*
X1770Y656D01*
D02*
X1752Y1681D02*
X1475Y1681D01*
D02*
X1757Y1440D02*
X1752Y1681D01*
D02*
X2066Y1440D02*
X1757Y1440D01*
D02*
X2064Y1681D02*
X2066Y1440D01*
G54D23*
D02*
X2396Y2070D02*
X2184Y2073D01*
D02*
X2396Y2036D02*
X2396Y2070D01*
D02*
X2024Y1835D02*
X1927Y1711D01*
D02*
X1945Y1796D02*
X2024Y1835D01*
D02*
X1927Y1830D02*
X1922Y1557D01*
D02*
X1927Y1711D02*
X1927Y1830D01*
D02*
X2024Y1835D02*
X1945Y1796D01*
D02*
X1927Y1840D02*
X2024Y1835D01*
D02*
X2350Y1839D02*
X1927Y1840D01*
D02*
X2386Y2000D02*
X2325Y2070D01*
D02*
X2325Y2070D02*
X2366Y2025D01*
D02*
X2182Y2062D02*
X2386Y2000D01*
G36*
X40Y2215D02*
X40Y1179D01*
X140Y1179D01*
X140Y1177D01*
X152Y1177D01*
X152Y1175D01*
X158Y1175D01*
X158Y1173D01*
X162Y1173D01*
X162Y1171D01*
X166Y1171D01*
X166Y1169D01*
X168Y1169D01*
X168Y1167D01*
X172Y1167D01*
X172Y1165D01*
X174Y1165D01*
X174Y1163D01*
X176Y1163D01*
X176Y1161D01*
X178Y1161D01*
X178Y1159D01*
X180Y1159D01*
X180Y1157D01*
X182Y1157D01*
X182Y1153D01*
X184Y1153D01*
X184Y1151D01*
X186Y1151D01*
X186Y1147D01*
X188Y1147D01*
X188Y1143D01*
X190Y1143D01*
X190Y1137D01*
X192Y1137D01*
X192Y1127D01*
X194Y1127D01*
X194Y1115D01*
X192Y1115D01*
X192Y1105D01*
X190Y1105D01*
X190Y1099D01*
X188Y1099D01*
X188Y1095D01*
X186Y1095D01*
X186Y1091D01*
X184Y1091D01*
X184Y1089D01*
X182Y1089D01*
X182Y1085D01*
X180Y1085D01*
X180Y1083D01*
X178Y1083D01*
X178Y1081D01*
X176Y1081D01*
X176Y1079D01*
X174Y1079D01*
X174Y1077D01*
X172Y1077D01*
X172Y1075D01*
X168Y1075D01*
X168Y1073D01*
X166Y1073D01*
X166Y1071D01*
X162Y1071D01*
X162Y1069D01*
X158Y1069D01*
X158Y1067D01*
X152Y1067D01*
X152Y1065D01*
X140Y1065D01*
X140Y1063D01*
X260Y1063D01*
X260Y1065D01*
X258Y1065D01*
X258Y1067D01*
X256Y1067D01*
X256Y1069D01*
X254Y1069D01*
X254Y1071D01*
X252Y1071D01*
X252Y1073D01*
X250Y1073D01*
X250Y1075D01*
X248Y1075D01*
X248Y1079D01*
X246Y1079D01*
X246Y1083D01*
X244Y1083D01*
X244Y1089D01*
X242Y1089D01*
X242Y1113D01*
X244Y1113D01*
X244Y1119D01*
X246Y1119D01*
X246Y1123D01*
X248Y1123D01*
X248Y1127D01*
X250Y1127D01*
X250Y1129D01*
X252Y1129D01*
X252Y1131D01*
X254Y1131D01*
X254Y1133D01*
X256Y1133D01*
X256Y1135D01*
X258Y1135D01*
X258Y1137D01*
X260Y1137D01*
X260Y1139D01*
X264Y1139D01*
X264Y1141D01*
X268Y1141D01*
X268Y1161D01*
X264Y1161D01*
X264Y1163D01*
X260Y1163D01*
X260Y1165D01*
X258Y1165D01*
X258Y1167D01*
X256Y1167D01*
X256Y1169D01*
X254Y1169D01*
X254Y1171D01*
X252Y1171D01*
X252Y1173D01*
X250Y1173D01*
X250Y1175D01*
X248Y1175D01*
X248Y1179D01*
X246Y1179D01*
X246Y1183D01*
X244Y1183D01*
X244Y1189D01*
X242Y1189D01*
X242Y1213D01*
X244Y1213D01*
X244Y1219D01*
X246Y1219D01*
X246Y1223D01*
X248Y1223D01*
X248Y1227D01*
X250Y1227D01*
X250Y1229D01*
X252Y1229D01*
X252Y1231D01*
X254Y1231D01*
X254Y1233D01*
X256Y1233D01*
X256Y1235D01*
X258Y1235D01*
X258Y1237D01*
X260Y1237D01*
X260Y1239D01*
X264Y1239D01*
X264Y1241D01*
X268Y1241D01*
X268Y1261D01*
X264Y1261D01*
X264Y1263D01*
X260Y1263D01*
X260Y1265D01*
X258Y1265D01*
X258Y1267D01*
X256Y1267D01*
X256Y1269D01*
X254Y1269D01*
X254Y1271D01*
X252Y1271D01*
X252Y1273D01*
X250Y1273D01*
X250Y1275D01*
X248Y1275D01*
X248Y1279D01*
X246Y1279D01*
X246Y1283D01*
X244Y1283D01*
X244Y1289D01*
X242Y1289D01*
X242Y1313D01*
X244Y1313D01*
X244Y1319D01*
X246Y1319D01*
X246Y1323D01*
X248Y1323D01*
X248Y1327D01*
X250Y1327D01*
X250Y1329D01*
X252Y1329D01*
X252Y1331D01*
X254Y1331D01*
X254Y1333D01*
X256Y1333D01*
X256Y1335D01*
X258Y1335D01*
X258Y1337D01*
X260Y1337D01*
X260Y1339D01*
X264Y1339D01*
X264Y1341D01*
X268Y1341D01*
X268Y1361D01*
X264Y1361D01*
X264Y1363D01*
X260Y1363D01*
X260Y1365D01*
X258Y1365D01*
X258Y1367D01*
X256Y1367D01*
X256Y1369D01*
X254Y1369D01*
X254Y1371D01*
X252Y1371D01*
X252Y1373D01*
X250Y1373D01*
X250Y1375D01*
X248Y1375D01*
X248Y1379D01*
X246Y1379D01*
X246Y1383D01*
X244Y1383D01*
X244Y1389D01*
X242Y1389D01*
X242Y1413D01*
X244Y1413D01*
X244Y1419D01*
X246Y1419D01*
X246Y1423D01*
X248Y1423D01*
X248Y1427D01*
X250Y1427D01*
X250Y1429D01*
X252Y1429D01*
X252Y1431D01*
X254Y1431D01*
X254Y1433D01*
X256Y1433D01*
X256Y1435D01*
X258Y1435D01*
X258Y1437D01*
X260Y1437D01*
X260Y1439D01*
X264Y1439D01*
X264Y1441D01*
X268Y1441D01*
X268Y1461D01*
X264Y1461D01*
X264Y1463D01*
X260Y1463D01*
X260Y1465D01*
X258Y1465D01*
X258Y1467D01*
X256Y1467D01*
X256Y1469D01*
X254Y1469D01*
X254Y1471D01*
X252Y1471D01*
X252Y1473D01*
X250Y1473D01*
X250Y1475D01*
X248Y1475D01*
X248Y1479D01*
X246Y1479D01*
X246Y1483D01*
X244Y1483D01*
X244Y1489D01*
X242Y1489D01*
X242Y1513D01*
X244Y1513D01*
X244Y1519D01*
X246Y1519D01*
X246Y1523D01*
X248Y1523D01*
X248Y1527D01*
X250Y1527D01*
X250Y1529D01*
X252Y1529D01*
X252Y1531D01*
X254Y1531D01*
X254Y1533D01*
X256Y1533D01*
X256Y1535D01*
X258Y1535D01*
X258Y1537D01*
X260Y1537D01*
X260Y1539D01*
X264Y1539D01*
X264Y1541D01*
X268Y1541D01*
X268Y1561D01*
X264Y1561D01*
X264Y1563D01*
X260Y1563D01*
X260Y1565D01*
X258Y1565D01*
X258Y1567D01*
X256Y1567D01*
X256Y1569D01*
X254Y1569D01*
X254Y1571D01*
X252Y1571D01*
X252Y1573D01*
X250Y1573D01*
X250Y1575D01*
X248Y1575D01*
X248Y1579D01*
X246Y1579D01*
X246Y1583D01*
X244Y1583D01*
X244Y1589D01*
X242Y1589D01*
X242Y1613D01*
X244Y1613D01*
X244Y1619D01*
X246Y1619D01*
X246Y1623D01*
X248Y1623D01*
X248Y1627D01*
X250Y1627D01*
X250Y1629D01*
X252Y1629D01*
X252Y1631D01*
X254Y1631D01*
X254Y1633D01*
X256Y1633D01*
X256Y1635D01*
X258Y1635D01*
X258Y1637D01*
X260Y1637D01*
X260Y1639D01*
X264Y1639D01*
X264Y1641D01*
X268Y1641D01*
X268Y1661D01*
X264Y1661D01*
X264Y1663D01*
X260Y1663D01*
X260Y1665D01*
X258Y1665D01*
X258Y1667D01*
X256Y1667D01*
X256Y1669D01*
X254Y1669D01*
X254Y1671D01*
X252Y1671D01*
X252Y1673D01*
X250Y1673D01*
X250Y1675D01*
X248Y1675D01*
X248Y1679D01*
X246Y1679D01*
X246Y1683D01*
X244Y1683D01*
X244Y1689D01*
X242Y1689D01*
X242Y1713D01*
X244Y1713D01*
X244Y1719D01*
X246Y1719D01*
X246Y1723D01*
X248Y1723D01*
X248Y1727D01*
X250Y1727D01*
X250Y1729D01*
X252Y1729D01*
X252Y1731D01*
X254Y1731D01*
X254Y1733D01*
X256Y1733D01*
X256Y1735D01*
X258Y1735D01*
X258Y1737D01*
X260Y1737D01*
X260Y1739D01*
X264Y1739D01*
X264Y1741D01*
X268Y1741D01*
X268Y1761D01*
X264Y1761D01*
X264Y1763D01*
X260Y1763D01*
X260Y1765D01*
X258Y1765D01*
X258Y1767D01*
X256Y1767D01*
X256Y1769D01*
X254Y1769D01*
X254Y1771D01*
X252Y1771D01*
X252Y1773D01*
X250Y1773D01*
X250Y1775D01*
X248Y1775D01*
X248Y1779D01*
X246Y1779D01*
X246Y1783D01*
X244Y1783D01*
X244Y1789D01*
X242Y1789D01*
X242Y1813D01*
X244Y1813D01*
X244Y1819D01*
X246Y1819D01*
X246Y1823D01*
X248Y1823D01*
X248Y1827D01*
X250Y1827D01*
X250Y1829D01*
X252Y1829D01*
X252Y1831D01*
X254Y1831D01*
X254Y1833D01*
X256Y1833D01*
X256Y1835D01*
X258Y1835D01*
X258Y1837D01*
X260Y1837D01*
X260Y1839D01*
X264Y1839D01*
X264Y1841D01*
X268Y1841D01*
X268Y1861D01*
X264Y1861D01*
X264Y1863D01*
X260Y1863D01*
X260Y1865D01*
X258Y1865D01*
X258Y1867D01*
X256Y1867D01*
X256Y1869D01*
X254Y1869D01*
X254Y1871D01*
X252Y1871D01*
X252Y1873D01*
X250Y1873D01*
X250Y1875D01*
X248Y1875D01*
X248Y1879D01*
X246Y1879D01*
X246Y1883D01*
X244Y1883D01*
X244Y1889D01*
X242Y1889D01*
X242Y1913D01*
X244Y1913D01*
X244Y1919D01*
X246Y1919D01*
X246Y1923D01*
X248Y1923D01*
X248Y1927D01*
X250Y1927D01*
X250Y1929D01*
X252Y1929D01*
X252Y1931D01*
X254Y1931D01*
X254Y1933D01*
X256Y1933D01*
X256Y1935D01*
X258Y1935D01*
X258Y1937D01*
X260Y1937D01*
X260Y1939D01*
X264Y1939D01*
X264Y1941D01*
X268Y1941D01*
X268Y1961D01*
X264Y1961D01*
X264Y1963D01*
X260Y1963D01*
X260Y1965D01*
X258Y1965D01*
X258Y1967D01*
X256Y1967D01*
X256Y1969D01*
X254Y1969D01*
X254Y1971D01*
X252Y1971D01*
X252Y1973D01*
X250Y1973D01*
X250Y1975D01*
X248Y1975D01*
X248Y1979D01*
X246Y1979D01*
X246Y1983D01*
X244Y1983D01*
X244Y1989D01*
X242Y1989D01*
X242Y2013D01*
X244Y2013D01*
X244Y2019D01*
X246Y2019D01*
X246Y2023D01*
X248Y2023D01*
X248Y2027D01*
X250Y2027D01*
X250Y2029D01*
X252Y2029D01*
X252Y2031D01*
X254Y2031D01*
X254Y2033D01*
X256Y2033D01*
X256Y2035D01*
X258Y2035D01*
X258Y2037D01*
X260Y2037D01*
X260Y2039D01*
X264Y2039D01*
X264Y2041D01*
X268Y2041D01*
X268Y2061D01*
X264Y2061D01*
X264Y2063D01*
X260Y2063D01*
X260Y2065D01*
X258Y2065D01*
X258Y2067D01*
X256Y2067D01*
X256Y2069D01*
X254Y2069D01*
X254Y2071D01*
X252Y2071D01*
X252Y2073D01*
X250Y2073D01*
X250Y2075D01*
X248Y2075D01*
X248Y2079D01*
X246Y2079D01*
X246Y2083D01*
X244Y2083D01*
X244Y2089D01*
X242Y2089D01*
X242Y2113D01*
X244Y2113D01*
X244Y2119D01*
X246Y2119D01*
X246Y2123D01*
X248Y2123D01*
X248Y2127D01*
X250Y2127D01*
X250Y2129D01*
X252Y2129D01*
X252Y2131D01*
X254Y2131D01*
X254Y2133D01*
X256Y2133D01*
X256Y2135D01*
X258Y2135D01*
X258Y2137D01*
X260Y2137D01*
X260Y2157D01*
X258Y2157D01*
X258Y2159D01*
X256Y2159D01*
X256Y2161D01*
X254Y2161D01*
X254Y2163D01*
X252Y2163D01*
X252Y2167D01*
X250Y2167D01*
X250Y2171D01*
X248Y2171D01*
X248Y2175D01*
X246Y2175D01*
X246Y2183D01*
X244Y2183D01*
X244Y2215D01*
X40Y2215D01*
G37*
D02*
G36*
X934Y2215D02*
X934Y2187D01*
X932Y2187D01*
X932Y2177D01*
X930Y2177D01*
X930Y2171D01*
X928Y2171D01*
X928Y2169D01*
X926Y2169D01*
X926Y2165D01*
X924Y2165D01*
X924Y2161D01*
X922Y2161D01*
X922Y2159D01*
X920Y2159D01*
X920Y2157D01*
X918Y2157D01*
X918Y2155D01*
X916Y2155D01*
X916Y2133D01*
X918Y2133D01*
X918Y2131D01*
X920Y2131D01*
X920Y2129D01*
X922Y2129D01*
X922Y2127D01*
X924Y2127D01*
X924Y2123D01*
X926Y2123D01*
X926Y2119D01*
X928Y2119D01*
X928Y2113D01*
X930Y2113D01*
X930Y2103D01*
X932Y2103D01*
X932Y2099D01*
X930Y2099D01*
X930Y2089D01*
X928Y2089D01*
X928Y2083D01*
X926Y2083D01*
X926Y2079D01*
X924Y2079D01*
X924Y2075D01*
X922Y2075D01*
X922Y2073D01*
X920Y2073D01*
X920Y2071D01*
X918Y2071D01*
X918Y2069D01*
X916Y2069D01*
X916Y2067D01*
X914Y2067D01*
X914Y2065D01*
X912Y2065D01*
X912Y2063D01*
X908Y2063D01*
X908Y2061D01*
X904Y2061D01*
X904Y2041D01*
X908Y2041D01*
X908Y2039D01*
X912Y2039D01*
X912Y2037D01*
X914Y2037D01*
X914Y2035D01*
X916Y2035D01*
X916Y2033D01*
X918Y2033D01*
X918Y2031D01*
X920Y2031D01*
X920Y2029D01*
X922Y2029D01*
X922Y2027D01*
X924Y2027D01*
X924Y2023D01*
X926Y2023D01*
X926Y2019D01*
X928Y2019D01*
X928Y2013D01*
X930Y2013D01*
X930Y2003D01*
X932Y2003D01*
X932Y1999D01*
X930Y1999D01*
X930Y1989D01*
X928Y1989D01*
X928Y1983D01*
X926Y1983D01*
X926Y1979D01*
X924Y1979D01*
X924Y1975D01*
X922Y1975D01*
X922Y1973D01*
X920Y1973D01*
X920Y1971D01*
X918Y1971D01*
X918Y1969D01*
X916Y1969D01*
X916Y1967D01*
X914Y1967D01*
X914Y1965D01*
X912Y1965D01*
X912Y1963D01*
X908Y1963D01*
X908Y1961D01*
X904Y1961D01*
X904Y1941D01*
X908Y1941D01*
X908Y1939D01*
X912Y1939D01*
X912Y1937D01*
X914Y1937D01*
X914Y1935D01*
X916Y1935D01*
X916Y1933D01*
X918Y1933D01*
X918Y1931D01*
X920Y1931D01*
X920Y1929D01*
X922Y1929D01*
X922Y1927D01*
X924Y1927D01*
X924Y1923D01*
X1412Y1923D01*
X1412Y1921D01*
X1416Y1921D01*
X1416Y1919D01*
X1420Y1919D01*
X1420Y1917D01*
X1422Y1917D01*
X1422Y1915D01*
X1424Y1915D01*
X1424Y1911D01*
X1426Y1911D01*
X1426Y1907D01*
X1428Y1907D01*
X1428Y1627D01*
X1698Y1627D01*
X1698Y1625D01*
X1704Y1625D01*
X1704Y1623D01*
X1710Y1623D01*
X1710Y1621D01*
X1712Y1621D01*
X1712Y1619D01*
X1732Y1619D01*
X1732Y1635D01*
X1730Y1635D01*
X1730Y1659D01*
X1474Y1659D01*
X1474Y1661D01*
X1466Y1661D01*
X1466Y1663D01*
X1462Y1663D01*
X1462Y1665D01*
X1460Y1665D01*
X1460Y1667D01*
X1458Y1667D01*
X1458Y1669D01*
X1456Y1669D01*
X1456Y1673D01*
X1454Y1673D01*
X1454Y2215D01*
X934Y2215D01*
G37*
D02*
G36*
X324Y2079D02*
X324Y2075D01*
X322Y2075D01*
X322Y2073D01*
X320Y2073D01*
X320Y2071D01*
X318Y2071D01*
X318Y2069D01*
X316Y2069D01*
X316Y2067D01*
X314Y2067D01*
X314Y2065D01*
X312Y2065D01*
X312Y2063D01*
X308Y2063D01*
X308Y2061D01*
X304Y2061D01*
X304Y2041D01*
X308Y2041D01*
X308Y2039D01*
X312Y2039D01*
X312Y2037D01*
X314Y2037D01*
X314Y2035D01*
X316Y2035D01*
X316Y2033D01*
X318Y2033D01*
X318Y2031D01*
X320Y2031D01*
X320Y2029D01*
X322Y2029D01*
X322Y2027D01*
X324Y2027D01*
X324Y2023D01*
X326Y2023D01*
X326Y2019D01*
X328Y2019D01*
X328Y2013D01*
X330Y2013D01*
X330Y2003D01*
X332Y2003D01*
X332Y1999D01*
X330Y1999D01*
X330Y1989D01*
X328Y1989D01*
X328Y1983D01*
X326Y1983D01*
X326Y1979D01*
X324Y1979D01*
X324Y1975D01*
X322Y1975D01*
X322Y1973D01*
X320Y1973D01*
X320Y1971D01*
X318Y1971D01*
X318Y1969D01*
X316Y1969D01*
X316Y1967D01*
X314Y1967D01*
X314Y1965D01*
X312Y1965D01*
X312Y1963D01*
X308Y1963D01*
X308Y1961D01*
X304Y1961D01*
X304Y1941D01*
X308Y1941D01*
X308Y1939D01*
X312Y1939D01*
X312Y1937D01*
X314Y1937D01*
X314Y1935D01*
X316Y1935D01*
X316Y1933D01*
X318Y1933D01*
X318Y1931D01*
X320Y1931D01*
X320Y1929D01*
X322Y1929D01*
X322Y1927D01*
X324Y1927D01*
X324Y1923D01*
X326Y1923D01*
X326Y1919D01*
X328Y1919D01*
X328Y1913D01*
X330Y1913D01*
X330Y1903D01*
X332Y1903D01*
X332Y1899D01*
X330Y1899D01*
X330Y1889D01*
X328Y1889D01*
X328Y1883D01*
X326Y1883D01*
X326Y1879D01*
X324Y1879D01*
X324Y1875D01*
X322Y1875D01*
X322Y1873D01*
X320Y1873D01*
X320Y1871D01*
X318Y1871D01*
X318Y1869D01*
X316Y1869D01*
X316Y1867D01*
X314Y1867D01*
X314Y1865D01*
X312Y1865D01*
X312Y1863D01*
X308Y1863D01*
X308Y1861D01*
X304Y1861D01*
X304Y1841D01*
X308Y1841D01*
X308Y1839D01*
X312Y1839D01*
X312Y1837D01*
X314Y1837D01*
X314Y1835D01*
X316Y1835D01*
X316Y1833D01*
X318Y1833D01*
X318Y1831D01*
X320Y1831D01*
X320Y1829D01*
X322Y1829D01*
X322Y1827D01*
X324Y1827D01*
X324Y1823D01*
X326Y1823D01*
X326Y1819D01*
X328Y1819D01*
X328Y1813D01*
X330Y1813D01*
X330Y1803D01*
X332Y1803D01*
X332Y1799D01*
X330Y1799D01*
X330Y1789D01*
X328Y1789D01*
X328Y1783D01*
X326Y1783D01*
X326Y1779D01*
X324Y1779D01*
X324Y1775D01*
X322Y1775D01*
X322Y1773D01*
X320Y1773D01*
X320Y1771D01*
X318Y1771D01*
X318Y1769D01*
X316Y1769D01*
X316Y1767D01*
X314Y1767D01*
X314Y1765D01*
X312Y1765D01*
X312Y1763D01*
X308Y1763D01*
X308Y1761D01*
X304Y1761D01*
X304Y1741D01*
X308Y1741D01*
X308Y1739D01*
X312Y1739D01*
X312Y1737D01*
X314Y1737D01*
X314Y1735D01*
X316Y1735D01*
X316Y1733D01*
X318Y1733D01*
X318Y1731D01*
X320Y1731D01*
X320Y1729D01*
X322Y1729D01*
X322Y1727D01*
X324Y1727D01*
X324Y1723D01*
X326Y1723D01*
X326Y1719D01*
X328Y1719D01*
X328Y1713D01*
X330Y1713D01*
X330Y1703D01*
X332Y1703D01*
X332Y1699D01*
X330Y1699D01*
X330Y1689D01*
X328Y1689D01*
X328Y1683D01*
X326Y1683D01*
X326Y1679D01*
X324Y1679D01*
X324Y1675D01*
X322Y1675D01*
X322Y1673D01*
X320Y1673D01*
X320Y1671D01*
X318Y1671D01*
X318Y1669D01*
X316Y1669D01*
X316Y1667D01*
X314Y1667D01*
X314Y1665D01*
X312Y1665D01*
X312Y1663D01*
X308Y1663D01*
X308Y1661D01*
X304Y1661D01*
X304Y1641D01*
X308Y1641D01*
X308Y1639D01*
X312Y1639D01*
X312Y1637D01*
X314Y1637D01*
X314Y1635D01*
X316Y1635D01*
X316Y1633D01*
X318Y1633D01*
X318Y1631D01*
X320Y1631D01*
X320Y1629D01*
X322Y1629D01*
X322Y1627D01*
X324Y1627D01*
X324Y1623D01*
X326Y1623D01*
X326Y1619D01*
X328Y1619D01*
X328Y1613D01*
X330Y1613D01*
X330Y1603D01*
X332Y1603D01*
X332Y1599D01*
X330Y1599D01*
X330Y1589D01*
X328Y1589D01*
X328Y1583D01*
X326Y1583D01*
X326Y1579D01*
X324Y1579D01*
X324Y1575D01*
X322Y1575D01*
X322Y1573D01*
X320Y1573D01*
X320Y1571D01*
X318Y1571D01*
X318Y1569D01*
X316Y1569D01*
X316Y1567D01*
X314Y1567D01*
X314Y1565D01*
X312Y1565D01*
X312Y1563D01*
X308Y1563D01*
X308Y1561D01*
X304Y1561D01*
X304Y1541D01*
X308Y1541D01*
X308Y1539D01*
X312Y1539D01*
X312Y1537D01*
X314Y1537D01*
X314Y1535D01*
X316Y1535D01*
X316Y1533D01*
X318Y1533D01*
X318Y1531D01*
X320Y1531D01*
X320Y1529D01*
X322Y1529D01*
X322Y1527D01*
X324Y1527D01*
X324Y1523D01*
X326Y1523D01*
X326Y1519D01*
X328Y1519D01*
X328Y1513D01*
X330Y1513D01*
X330Y1503D01*
X332Y1503D01*
X332Y1499D01*
X330Y1499D01*
X330Y1489D01*
X328Y1489D01*
X328Y1483D01*
X326Y1483D01*
X326Y1479D01*
X324Y1479D01*
X324Y1475D01*
X322Y1475D01*
X322Y1473D01*
X320Y1473D01*
X320Y1471D01*
X318Y1471D01*
X318Y1469D01*
X316Y1469D01*
X316Y1467D01*
X314Y1467D01*
X314Y1465D01*
X312Y1465D01*
X312Y1463D01*
X308Y1463D01*
X308Y1461D01*
X304Y1461D01*
X304Y1441D01*
X308Y1441D01*
X308Y1439D01*
X312Y1439D01*
X312Y1437D01*
X314Y1437D01*
X314Y1435D01*
X316Y1435D01*
X316Y1433D01*
X318Y1433D01*
X318Y1431D01*
X320Y1431D01*
X320Y1429D01*
X322Y1429D01*
X322Y1427D01*
X324Y1427D01*
X324Y1423D01*
X326Y1423D01*
X326Y1419D01*
X328Y1419D01*
X328Y1413D01*
X330Y1413D01*
X330Y1403D01*
X332Y1403D01*
X332Y1399D01*
X330Y1399D01*
X330Y1389D01*
X328Y1389D01*
X328Y1383D01*
X326Y1383D01*
X326Y1379D01*
X324Y1379D01*
X324Y1375D01*
X322Y1375D01*
X322Y1373D01*
X320Y1373D01*
X320Y1371D01*
X318Y1371D01*
X318Y1369D01*
X316Y1369D01*
X316Y1367D01*
X314Y1367D01*
X314Y1365D01*
X312Y1365D01*
X312Y1363D01*
X308Y1363D01*
X308Y1361D01*
X304Y1361D01*
X304Y1341D01*
X308Y1341D01*
X308Y1339D01*
X312Y1339D01*
X312Y1337D01*
X314Y1337D01*
X314Y1335D01*
X316Y1335D01*
X316Y1333D01*
X318Y1333D01*
X318Y1331D01*
X320Y1331D01*
X320Y1329D01*
X322Y1329D01*
X322Y1327D01*
X324Y1327D01*
X324Y1323D01*
X326Y1323D01*
X326Y1319D01*
X328Y1319D01*
X328Y1313D01*
X330Y1313D01*
X330Y1303D01*
X332Y1303D01*
X332Y1299D01*
X330Y1299D01*
X330Y1289D01*
X328Y1289D01*
X328Y1283D01*
X326Y1283D01*
X326Y1279D01*
X324Y1279D01*
X324Y1275D01*
X322Y1275D01*
X322Y1273D01*
X320Y1273D01*
X320Y1271D01*
X318Y1271D01*
X318Y1269D01*
X316Y1269D01*
X316Y1267D01*
X314Y1267D01*
X314Y1265D01*
X312Y1265D01*
X312Y1263D01*
X308Y1263D01*
X308Y1261D01*
X304Y1261D01*
X304Y1241D01*
X308Y1241D01*
X308Y1239D01*
X312Y1239D01*
X312Y1237D01*
X314Y1237D01*
X314Y1235D01*
X316Y1235D01*
X316Y1233D01*
X318Y1233D01*
X318Y1231D01*
X320Y1231D01*
X320Y1229D01*
X322Y1229D01*
X322Y1227D01*
X324Y1227D01*
X324Y1223D01*
X326Y1223D01*
X326Y1219D01*
X328Y1219D01*
X328Y1213D01*
X330Y1213D01*
X330Y1203D01*
X332Y1203D01*
X332Y1199D01*
X330Y1199D01*
X330Y1189D01*
X328Y1189D01*
X328Y1183D01*
X326Y1183D01*
X326Y1179D01*
X324Y1179D01*
X324Y1175D01*
X322Y1175D01*
X322Y1173D01*
X320Y1173D01*
X320Y1171D01*
X318Y1171D01*
X318Y1169D01*
X316Y1169D01*
X316Y1167D01*
X314Y1167D01*
X314Y1165D01*
X312Y1165D01*
X312Y1163D01*
X308Y1163D01*
X308Y1161D01*
X304Y1161D01*
X304Y1141D01*
X308Y1141D01*
X308Y1139D01*
X312Y1139D01*
X312Y1137D01*
X314Y1137D01*
X314Y1135D01*
X316Y1135D01*
X316Y1133D01*
X318Y1133D01*
X318Y1131D01*
X320Y1131D01*
X320Y1129D01*
X322Y1129D01*
X322Y1127D01*
X324Y1127D01*
X324Y1123D01*
X326Y1123D01*
X326Y1119D01*
X328Y1119D01*
X328Y1113D01*
X330Y1113D01*
X330Y1103D01*
X332Y1103D01*
X332Y1099D01*
X330Y1099D01*
X330Y1089D01*
X328Y1089D01*
X328Y1083D01*
X326Y1083D01*
X326Y1079D01*
X324Y1079D01*
X324Y1075D01*
X322Y1075D01*
X322Y1073D01*
X320Y1073D01*
X320Y1071D01*
X318Y1071D01*
X318Y1069D01*
X316Y1069D01*
X316Y1067D01*
X314Y1067D01*
X314Y1065D01*
X312Y1065D01*
X312Y1063D01*
X308Y1063D01*
X308Y1061D01*
X304Y1061D01*
X304Y1041D01*
X308Y1041D01*
X308Y1039D01*
X312Y1039D01*
X312Y1037D01*
X314Y1037D01*
X314Y1035D01*
X316Y1035D01*
X316Y1033D01*
X318Y1033D01*
X318Y1031D01*
X320Y1031D01*
X320Y1029D01*
X322Y1029D01*
X322Y1027D01*
X324Y1027D01*
X324Y1023D01*
X326Y1023D01*
X326Y1019D01*
X328Y1019D01*
X328Y1013D01*
X330Y1013D01*
X330Y1003D01*
X332Y1003D01*
X332Y999D01*
X330Y999D01*
X330Y989D01*
X328Y989D01*
X328Y983D01*
X326Y983D01*
X326Y979D01*
X324Y979D01*
X324Y975D01*
X322Y975D01*
X322Y973D01*
X320Y973D01*
X320Y971D01*
X318Y971D01*
X318Y969D01*
X316Y969D01*
X316Y967D01*
X314Y967D01*
X314Y965D01*
X312Y965D01*
X312Y963D01*
X308Y963D01*
X308Y961D01*
X304Y961D01*
X304Y941D01*
X308Y941D01*
X308Y939D01*
X312Y939D01*
X312Y937D01*
X314Y937D01*
X314Y935D01*
X316Y935D01*
X316Y933D01*
X318Y933D01*
X318Y931D01*
X320Y931D01*
X320Y929D01*
X322Y929D01*
X322Y927D01*
X324Y927D01*
X324Y923D01*
X326Y923D01*
X326Y919D01*
X328Y919D01*
X328Y913D01*
X330Y913D01*
X330Y903D01*
X332Y903D01*
X332Y899D01*
X330Y899D01*
X330Y889D01*
X328Y889D01*
X328Y883D01*
X326Y883D01*
X326Y879D01*
X324Y879D01*
X324Y875D01*
X322Y875D01*
X322Y873D01*
X320Y873D01*
X320Y871D01*
X318Y871D01*
X318Y869D01*
X316Y869D01*
X316Y867D01*
X314Y867D01*
X314Y865D01*
X312Y865D01*
X312Y863D01*
X308Y863D01*
X308Y861D01*
X304Y861D01*
X304Y841D01*
X308Y841D01*
X308Y839D01*
X312Y839D01*
X312Y837D01*
X314Y837D01*
X314Y835D01*
X316Y835D01*
X316Y833D01*
X318Y833D01*
X318Y831D01*
X320Y831D01*
X320Y829D01*
X322Y829D01*
X322Y827D01*
X324Y827D01*
X324Y823D01*
X326Y823D01*
X326Y819D01*
X328Y819D01*
X328Y813D01*
X330Y813D01*
X330Y803D01*
X332Y803D01*
X332Y799D01*
X330Y799D01*
X330Y789D01*
X328Y789D01*
X328Y783D01*
X326Y783D01*
X326Y779D01*
X324Y779D01*
X324Y775D01*
X322Y775D01*
X322Y773D01*
X320Y773D01*
X320Y771D01*
X318Y771D01*
X318Y769D01*
X316Y769D01*
X316Y767D01*
X314Y767D01*
X314Y765D01*
X312Y765D01*
X312Y763D01*
X308Y763D01*
X308Y761D01*
X304Y761D01*
X304Y741D01*
X308Y741D01*
X308Y739D01*
X312Y739D01*
X312Y737D01*
X314Y737D01*
X314Y735D01*
X316Y735D01*
X316Y733D01*
X318Y733D01*
X318Y731D01*
X320Y731D01*
X320Y729D01*
X322Y729D01*
X322Y727D01*
X324Y727D01*
X324Y723D01*
X326Y723D01*
X326Y719D01*
X328Y719D01*
X328Y713D01*
X330Y713D01*
X330Y703D01*
X332Y703D01*
X332Y699D01*
X330Y699D01*
X330Y689D01*
X328Y689D01*
X328Y683D01*
X326Y683D01*
X326Y679D01*
X324Y679D01*
X324Y675D01*
X322Y675D01*
X322Y673D01*
X320Y673D01*
X320Y653D01*
X324Y653D01*
X324Y651D01*
X326Y651D01*
X326Y649D01*
X328Y649D01*
X328Y647D01*
X330Y647D01*
X330Y645D01*
X332Y645D01*
X332Y643D01*
X334Y643D01*
X334Y641D01*
X336Y641D01*
X336Y639D01*
X338Y639D01*
X338Y635D01*
X340Y635D01*
X340Y631D01*
X342Y631D01*
X342Y625D01*
X344Y625D01*
X344Y617D01*
X346Y617D01*
X346Y605D01*
X344Y605D01*
X344Y597D01*
X342Y597D01*
X342Y591D01*
X340Y591D01*
X340Y587D01*
X338Y587D01*
X338Y583D01*
X336Y583D01*
X336Y581D01*
X334Y581D01*
X334Y579D01*
X332Y579D01*
X332Y577D01*
X330Y577D01*
X330Y575D01*
X328Y575D01*
X328Y573D01*
X326Y573D01*
X326Y571D01*
X324Y571D01*
X324Y569D01*
X320Y569D01*
X320Y567D01*
X316Y567D01*
X316Y565D01*
X310Y565D01*
X310Y563D01*
X302Y563D01*
X302Y561D01*
X384Y561D01*
X384Y2079D01*
X324Y2079D01*
G37*
D02*
G36*
X2086Y1659D02*
X2086Y1627D01*
X2192Y1627D01*
X2192Y1533D01*
X2086Y1533D01*
X2086Y1531D01*
X2088Y1531D01*
X2088Y1435D01*
X2086Y1435D01*
X2086Y1429D01*
X2084Y1429D01*
X2084Y1427D01*
X2082Y1427D01*
X2082Y1425D01*
X2080Y1425D01*
X2080Y1423D01*
X2078Y1423D01*
X2078Y1421D01*
X2074Y1421D01*
X2074Y1419D01*
X2506Y1419D01*
X2506Y1659D01*
X2086Y1659D01*
G37*
D02*
G36*
X1428Y1627D02*
X1428Y1609D01*
X1570Y1609D01*
X1570Y1607D01*
X1576Y1607D01*
X1576Y1605D01*
X1580Y1605D01*
X1580Y1603D01*
X1584Y1603D01*
X1584Y1601D01*
X1588Y1601D01*
X1588Y1599D01*
X1590Y1599D01*
X1590Y1597D01*
X1592Y1597D01*
X1592Y1595D01*
X1594Y1595D01*
X1594Y1593D01*
X1596Y1593D01*
X1596Y1591D01*
X1598Y1591D01*
X1598Y1587D01*
X1600Y1587D01*
X1600Y1585D01*
X1602Y1585D01*
X1602Y1581D01*
X1604Y1581D01*
X1604Y1575D01*
X1606Y1575D01*
X1606Y1563D01*
X1608Y1563D01*
X1608Y1561D01*
X1606Y1561D01*
X1606Y1549D01*
X1604Y1549D01*
X1604Y1543D01*
X1602Y1543D01*
X1602Y1539D01*
X1600Y1539D01*
X1600Y1535D01*
X1598Y1535D01*
X1598Y1533D01*
X1676Y1533D01*
X1676Y1535D01*
X1670Y1535D01*
X1670Y1537D01*
X1666Y1537D01*
X1666Y1539D01*
X1662Y1539D01*
X1662Y1541D01*
X1660Y1541D01*
X1660Y1543D01*
X1658Y1543D01*
X1658Y1545D01*
X1654Y1545D01*
X1654Y1549D01*
X1652Y1549D01*
X1652Y1551D01*
X1650Y1551D01*
X1650Y1553D01*
X1648Y1553D01*
X1648Y1557D01*
X1646Y1557D01*
X1646Y1561D01*
X1644Y1561D01*
X1644Y1567D01*
X1642Y1567D01*
X1642Y1575D01*
X1640Y1575D01*
X1640Y1583D01*
X1642Y1583D01*
X1642Y1593D01*
X1644Y1593D01*
X1644Y1599D01*
X1646Y1599D01*
X1646Y1603D01*
X1648Y1603D01*
X1648Y1605D01*
X1650Y1605D01*
X1650Y1609D01*
X1652Y1609D01*
X1652Y1611D01*
X1654Y1611D01*
X1654Y1613D01*
X1656Y1613D01*
X1656Y1615D01*
X1658Y1615D01*
X1658Y1617D01*
X1660Y1617D01*
X1660Y1619D01*
X1664Y1619D01*
X1664Y1621D01*
X1668Y1621D01*
X1668Y1623D01*
X1672Y1623D01*
X1672Y1625D01*
X1680Y1625D01*
X1680Y1627D01*
X1428Y1627D01*
G37*
D02*
G36*
X1428Y1609D02*
X1428Y1515D01*
X1548Y1515D01*
X1548Y1517D01*
X1542Y1517D01*
X1542Y1519D01*
X1538Y1519D01*
X1538Y1521D01*
X1534Y1521D01*
X1534Y1523D01*
X1532Y1523D01*
X1532Y1525D01*
X1528Y1525D01*
X1528Y1527D01*
X1526Y1527D01*
X1526Y1529D01*
X1524Y1529D01*
X1524Y1531D01*
X1522Y1531D01*
X1522Y1535D01*
X1520Y1535D01*
X1520Y1537D01*
X1518Y1537D01*
X1518Y1541D01*
X1516Y1541D01*
X1516Y1545D01*
X1514Y1545D01*
X1514Y1553D01*
X1512Y1553D01*
X1512Y1571D01*
X1514Y1571D01*
X1514Y1577D01*
X1516Y1577D01*
X1516Y1583D01*
X1518Y1583D01*
X1518Y1585D01*
X1520Y1585D01*
X1520Y1589D01*
X1522Y1589D01*
X1522Y1591D01*
X1524Y1591D01*
X1524Y1595D01*
X1526Y1595D01*
X1526Y1597D01*
X1530Y1597D01*
X1530Y1599D01*
X1532Y1599D01*
X1532Y1601D01*
X1534Y1601D01*
X1534Y1603D01*
X1538Y1603D01*
X1538Y1605D01*
X1542Y1605D01*
X1542Y1607D01*
X1550Y1607D01*
X1550Y1609D01*
X1428Y1609D01*
G37*
D02*
G36*
X1714Y1541D02*
X1714Y1539D01*
X1710Y1539D01*
X1710Y1537D01*
X1708Y1537D01*
X1708Y1535D01*
X1700Y1535D01*
X1700Y1533D01*
X1734Y1533D01*
X1734Y1541D01*
X1714Y1541D01*
G37*
D02*
G36*
X1596Y1533D02*
X1596Y1531D01*
X1734Y1531D01*
X1734Y1533D01*
X1596Y1533D01*
G37*
D02*
G36*
X1596Y1533D02*
X1596Y1531D01*
X1734Y1531D01*
X1734Y1533D01*
X1596Y1533D01*
G37*
D02*
G36*
X1594Y1531D02*
X1594Y1529D01*
X1592Y1529D01*
X1592Y1527D01*
X1590Y1527D01*
X1590Y1525D01*
X1588Y1525D01*
X1588Y1523D01*
X1586Y1523D01*
X1586Y1521D01*
X1582Y1521D01*
X1582Y1519D01*
X1578Y1519D01*
X1578Y1517D01*
X1572Y1517D01*
X1572Y1515D01*
X1734Y1515D01*
X1734Y1531D01*
X1594Y1531D01*
G37*
D02*
G36*
X1428Y1515D02*
X1428Y1513D01*
X1734Y1513D01*
X1734Y1515D01*
X1428Y1515D01*
G37*
D02*
G36*
X1428Y1515D02*
X1428Y1513D01*
X1734Y1513D01*
X1734Y1515D01*
X1428Y1515D01*
G37*
D02*
G36*
X1428Y1513D02*
X1428Y1419D01*
X1748Y1419D01*
X1748Y1421D01*
X1744Y1421D01*
X1744Y1423D01*
X1742Y1423D01*
X1742Y1425D01*
X1740Y1425D01*
X1740Y1427D01*
X1738Y1427D01*
X1738Y1431D01*
X1736Y1431D01*
X1736Y1445D01*
X1734Y1445D01*
X1734Y1513D01*
X1428Y1513D01*
G37*
D02*
G36*
X1428Y1419D02*
X1428Y1417D01*
X2506Y1417D01*
X2506Y1419D01*
X1428Y1419D01*
G37*
D02*
G36*
X1428Y1419D02*
X1428Y1417D01*
X2506Y1417D01*
X2506Y1419D01*
X1428Y1419D01*
G37*
D02*
G36*
X1428Y1417D02*
X1428Y1377D01*
X2140Y1377D01*
X2140Y1275D01*
X2506Y1275D01*
X2506Y1417D01*
X1428Y1417D01*
G37*
D02*
G36*
X1428Y1377D02*
X1428Y1275D01*
X1778Y1275D01*
X1778Y1277D01*
X1772Y1277D01*
X1772Y1279D01*
X1766Y1279D01*
X1766Y1281D01*
X1764Y1281D01*
X1764Y1283D01*
X1760Y1283D01*
X1760Y1285D01*
X1758Y1285D01*
X1758Y1287D01*
X1756Y1287D01*
X1756Y1289D01*
X1752Y1289D01*
X1752Y1293D01*
X1750Y1293D01*
X1750Y1295D01*
X1748Y1295D01*
X1748Y1297D01*
X1746Y1297D01*
X1746Y1301D01*
X1744Y1301D01*
X1744Y1305D01*
X1742Y1305D01*
X1742Y1309D01*
X1740Y1309D01*
X1740Y1319D01*
X1738Y1319D01*
X1738Y1331D01*
X1740Y1331D01*
X1740Y1341D01*
X1742Y1341D01*
X1742Y1347D01*
X1744Y1347D01*
X1744Y1349D01*
X1746Y1349D01*
X1746Y1353D01*
X1748Y1353D01*
X1748Y1357D01*
X1750Y1357D01*
X1750Y1359D01*
X1752Y1359D01*
X1752Y1361D01*
X1754Y1361D01*
X1754Y1363D01*
X1756Y1363D01*
X1756Y1365D01*
X1758Y1365D01*
X1758Y1367D01*
X1762Y1367D01*
X1762Y1369D01*
X1766Y1369D01*
X1766Y1371D01*
X1768Y1371D01*
X1768Y1373D01*
X1774Y1373D01*
X1774Y1375D01*
X1784Y1375D01*
X1784Y1377D01*
X1428Y1377D01*
G37*
D02*
G36*
X1796Y1377D02*
X1796Y1375D01*
X1806Y1375D01*
X1806Y1373D01*
X1810Y1373D01*
X1810Y1371D01*
X1814Y1371D01*
X1814Y1369D01*
X1818Y1369D01*
X1818Y1367D01*
X1820Y1367D01*
X1820Y1365D01*
X1822Y1365D01*
X1822Y1363D01*
X1826Y1363D01*
X1826Y1359D01*
X1828Y1359D01*
X1828Y1357D01*
X1830Y1357D01*
X1830Y1355D01*
X1832Y1355D01*
X1832Y1351D01*
X1834Y1351D01*
X1834Y1349D01*
X1836Y1349D01*
X1836Y1343D01*
X1838Y1343D01*
X1838Y1337D01*
X1840Y1337D01*
X1840Y1313D01*
X1838Y1313D01*
X1838Y1307D01*
X1836Y1307D01*
X1836Y1303D01*
X1834Y1303D01*
X1834Y1299D01*
X1832Y1299D01*
X1832Y1297D01*
X1830Y1297D01*
X1830Y1293D01*
X1828Y1293D01*
X1828Y1291D01*
X1826Y1291D01*
X1826Y1289D01*
X1824Y1289D01*
X1824Y1287D01*
X1822Y1287D01*
X1822Y1285D01*
X1818Y1285D01*
X1818Y1283D01*
X1816Y1283D01*
X1816Y1281D01*
X1812Y1281D01*
X1812Y1279D01*
X1808Y1279D01*
X1808Y1277D01*
X1802Y1277D01*
X1802Y1275D01*
X2038Y1275D01*
X2038Y1319D01*
X2036Y1319D01*
X2036Y1331D01*
X2038Y1331D01*
X2038Y1377D01*
X1796Y1377D01*
G37*
D02*
G36*
X1428Y1275D02*
X1428Y1273D01*
X2506Y1273D01*
X2506Y1275D01*
X1428Y1275D01*
G37*
D02*
G36*
X1428Y1275D02*
X1428Y1273D01*
X2506Y1273D01*
X2506Y1275D01*
X1428Y1275D01*
G37*
D02*
G36*
X1428Y1275D02*
X1428Y1273D01*
X2506Y1273D01*
X2506Y1275D01*
X1428Y1275D01*
G37*
D02*
G36*
X1428Y1273D02*
X1428Y1179D01*
X2450Y1179D01*
X2450Y1177D01*
X2462Y1177D01*
X2462Y1175D01*
X2468Y1175D01*
X2468Y1173D01*
X2472Y1173D01*
X2472Y1171D01*
X2476Y1171D01*
X2476Y1169D01*
X2478Y1169D01*
X2478Y1167D01*
X2482Y1167D01*
X2482Y1165D01*
X2484Y1165D01*
X2484Y1163D01*
X2486Y1163D01*
X2486Y1161D01*
X2506Y1161D01*
X2506Y1273D01*
X1428Y1273D01*
G37*
D02*
G36*
X40Y1179D02*
X40Y1063D01*
X132Y1063D01*
X132Y1065D01*
X122Y1065D01*
X122Y1067D01*
X116Y1067D01*
X116Y1069D01*
X110Y1069D01*
X110Y1071D01*
X106Y1071D01*
X106Y1073D01*
X104Y1073D01*
X104Y1075D01*
X100Y1075D01*
X100Y1077D01*
X98Y1077D01*
X98Y1079D01*
X96Y1079D01*
X96Y1081D01*
X94Y1081D01*
X94Y1083D01*
X92Y1083D01*
X92Y1087D01*
X90Y1087D01*
X90Y1089D01*
X88Y1089D01*
X88Y1093D01*
X86Y1093D01*
X86Y1095D01*
X84Y1095D01*
X84Y1101D01*
X82Y1101D01*
X82Y1107D01*
X80Y1107D01*
X80Y1119D01*
X78Y1119D01*
X78Y1123D01*
X80Y1123D01*
X80Y1135D01*
X82Y1135D01*
X82Y1141D01*
X84Y1141D01*
X84Y1147D01*
X86Y1147D01*
X86Y1149D01*
X88Y1149D01*
X88Y1153D01*
X90Y1153D01*
X90Y1155D01*
X92Y1155D01*
X92Y1159D01*
X94Y1159D01*
X94Y1161D01*
X96Y1161D01*
X96Y1163D01*
X98Y1163D01*
X98Y1165D01*
X100Y1165D01*
X100Y1167D01*
X104Y1167D01*
X104Y1169D01*
X106Y1169D01*
X106Y1171D01*
X110Y1171D01*
X110Y1173D01*
X116Y1173D01*
X116Y1175D01*
X120Y1175D01*
X120Y1177D01*
X132Y1177D01*
X132Y1179D01*
X40Y1179D01*
G37*
D02*
G36*
X1428Y1179D02*
X1428Y1063D01*
X2442Y1063D01*
X2442Y1065D01*
X2432Y1065D01*
X2432Y1067D01*
X2426Y1067D01*
X2426Y1069D01*
X2420Y1069D01*
X2420Y1071D01*
X2416Y1071D01*
X2416Y1073D01*
X2414Y1073D01*
X2414Y1075D01*
X2410Y1075D01*
X2410Y1077D01*
X2408Y1077D01*
X2408Y1079D01*
X2406Y1079D01*
X2406Y1081D01*
X2404Y1081D01*
X2404Y1083D01*
X2402Y1083D01*
X2402Y1087D01*
X2400Y1087D01*
X2400Y1089D01*
X2398Y1089D01*
X2398Y1093D01*
X2396Y1093D01*
X2396Y1095D01*
X2394Y1095D01*
X2394Y1101D01*
X2392Y1101D01*
X2392Y1107D01*
X2390Y1107D01*
X2390Y1119D01*
X2388Y1119D01*
X2388Y1123D01*
X2390Y1123D01*
X2390Y1135D01*
X2392Y1135D01*
X2392Y1141D01*
X2394Y1141D01*
X2394Y1147D01*
X2396Y1147D01*
X2396Y1149D01*
X2398Y1149D01*
X2398Y1153D01*
X2400Y1153D01*
X2400Y1157D01*
X2402Y1157D01*
X2402Y1159D01*
X2404Y1159D01*
X2404Y1161D01*
X2406Y1161D01*
X2406Y1163D01*
X2408Y1163D01*
X2408Y1165D01*
X2410Y1165D01*
X2410Y1167D01*
X2414Y1167D01*
X2414Y1169D01*
X2416Y1169D01*
X2416Y1171D01*
X2420Y1171D01*
X2420Y1173D01*
X2426Y1173D01*
X2426Y1175D01*
X2430Y1175D01*
X2430Y1177D01*
X2442Y1177D01*
X2442Y1179D01*
X1428Y1179D01*
G37*
D02*
G36*
X2486Y1081D02*
X2486Y1079D01*
X2484Y1079D01*
X2484Y1077D01*
X2482Y1077D01*
X2482Y1075D01*
X2478Y1075D01*
X2478Y1073D01*
X2476Y1073D01*
X2476Y1071D01*
X2472Y1071D01*
X2472Y1069D01*
X2468Y1069D01*
X2468Y1067D01*
X2462Y1067D01*
X2462Y1065D01*
X2450Y1065D01*
X2450Y1063D01*
X2506Y1063D01*
X2506Y1081D01*
X2486Y1081D01*
G37*
D02*
G36*
X40Y1063D02*
X40Y1061D01*
X264Y1061D01*
X264Y1063D01*
X40Y1063D01*
G37*
D02*
G36*
X40Y1063D02*
X40Y1061D01*
X264Y1061D01*
X264Y1063D01*
X40Y1063D01*
G37*
D02*
G36*
X1428Y1063D02*
X1428Y1061D01*
X2506Y1061D01*
X2506Y1063D01*
X1428Y1063D01*
G37*
D02*
G36*
X1428Y1063D02*
X1428Y1061D01*
X2506Y1061D01*
X2506Y1063D01*
X1428Y1063D01*
G37*
D02*
G36*
X40Y1061D02*
X40Y561D01*
X290Y561D01*
X290Y563D01*
X282Y563D01*
X282Y565D01*
X276Y565D01*
X276Y567D01*
X272Y567D01*
X272Y569D01*
X268Y569D01*
X268Y571D01*
X266Y571D01*
X266Y573D01*
X264Y573D01*
X264Y575D01*
X262Y575D01*
X262Y577D01*
X260Y577D01*
X260Y579D01*
X258Y579D01*
X258Y581D01*
X256Y581D01*
X256Y585D01*
X254Y585D01*
X254Y587D01*
X252Y587D01*
X252Y591D01*
X250Y591D01*
X250Y597D01*
X248Y597D01*
X248Y607D01*
X246Y607D01*
X246Y615D01*
X248Y615D01*
X248Y625D01*
X250Y625D01*
X250Y631D01*
X252Y631D01*
X252Y635D01*
X254Y635D01*
X254Y637D01*
X256Y637D01*
X256Y641D01*
X258Y641D01*
X258Y643D01*
X260Y643D01*
X260Y665D01*
X258Y665D01*
X258Y667D01*
X256Y667D01*
X256Y669D01*
X254Y669D01*
X254Y671D01*
X252Y671D01*
X252Y673D01*
X250Y673D01*
X250Y675D01*
X248Y675D01*
X248Y679D01*
X246Y679D01*
X246Y683D01*
X244Y683D01*
X244Y689D01*
X242Y689D01*
X242Y713D01*
X244Y713D01*
X244Y719D01*
X246Y719D01*
X246Y723D01*
X248Y723D01*
X248Y727D01*
X250Y727D01*
X250Y729D01*
X252Y729D01*
X252Y731D01*
X254Y731D01*
X254Y733D01*
X256Y733D01*
X256Y735D01*
X258Y735D01*
X258Y737D01*
X260Y737D01*
X260Y739D01*
X264Y739D01*
X264Y741D01*
X268Y741D01*
X268Y761D01*
X264Y761D01*
X264Y763D01*
X260Y763D01*
X260Y765D01*
X258Y765D01*
X258Y767D01*
X256Y767D01*
X256Y769D01*
X254Y769D01*
X254Y771D01*
X252Y771D01*
X252Y773D01*
X250Y773D01*
X250Y775D01*
X248Y775D01*
X248Y779D01*
X246Y779D01*
X246Y783D01*
X244Y783D01*
X244Y789D01*
X242Y789D01*
X242Y813D01*
X244Y813D01*
X244Y819D01*
X246Y819D01*
X246Y823D01*
X248Y823D01*
X248Y827D01*
X250Y827D01*
X250Y829D01*
X252Y829D01*
X252Y831D01*
X254Y831D01*
X254Y833D01*
X256Y833D01*
X256Y835D01*
X258Y835D01*
X258Y837D01*
X260Y837D01*
X260Y839D01*
X264Y839D01*
X264Y841D01*
X268Y841D01*
X268Y861D01*
X264Y861D01*
X264Y863D01*
X260Y863D01*
X260Y865D01*
X258Y865D01*
X258Y867D01*
X256Y867D01*
X256Y869D01*
X254Y869D01*
X254Y871D01*
X252Y871D01*
X252Y873D01*
X250Y873D01*
X250Y875D01*
X248Y875D01*
X248Y879D01*
X246Y879D01*
X246Y883D01*
X244Y883D01*
X244Y889D01*
X242Y889D01*
X242Y913D01*
X244Y913D01*
X244Y919D01*
X246Y919D01*
X246Y923D01*
X248Y923D01*
X248Y927D01*
X250Y927D01*
X250Y929D01*
X252Y929D01*
X252Y931D01*
X254Y931D01*
X254Y933D01*
X256Y933D01*
X256Y935D01*
X258Y935D01*
X258Y937D01*
X260Y937D01*
X260Y939D01*
X264Y939D01*
X264Y941D01*
X268Y941D01*
X268Y961D01*
X264Y961D01*
X264Y963D01*
X260Y963D01*
X260Y965D01*
X258Y965D01*
X258Y967D01*
X256Y967D01*
X256Y969D01*
X254Y969D01*
X254Y971D01*
X252Y971D01*
X252Y973D01*
X250Y973D01*
X250Y975D01*
X248Y975D01*
X248Y979D01*
X246Y979D01*
X246Y983D01*
X244Y983D01*
X244Y989D01*
X242Y989D01*
X242Y1013D01*
X244Y1013D01*
X244Y1019D01*
X246Y1019D01*
X246Y1023D01*
X248Y1023D01*
X248Y1027D01*
X250Y1027D01*
X250Y1029D01*
X252Y1029D01*
X252Y1031D01*
X254Y1031D01*
X254Y1033D01*
X256Y1033D01*
X256Y1035D01*
X258Y1035D01*
X258Y1037D01*
X260Y1037D01*
X260Y1039D01*
X264Y1039D01*
X264Y1041D01*
X268Y1041D01*
X268Y1061D01*
X40Y1061D01*
G37*
D02*
G36*
X1428Y1061D02*
X1428Y1011D01*
X2460Y1011D01*
X2460Y1009D01*
X2474Y1009D01*
X2474Y1007D01*
X2482Y1007D01*
X2482Y1005D01*
X2486Y1005D01*
X2486Y1003D01*
X2506Y1003D01*
X2506Y1061D01*
X1428Y1061D01*
G37*
D02*
G36*
X1428Y1011D02*
X1428Y1001D01*
X1810Y1001D01*
X1810Y999D01*
X1816Y999D01*
X1816Y997D01*
X1822Y997D01*
X1822Y995D01*
X1824Y995D01*
X1824Y993D01*
X1828Y993D01*
X1828Y991D01*
X1830Y991D01*
X1830Y989D01*
X1832Y989D01*
X1832Y987D01*
X1834Y987D01*
X1834Y985D01*
X1836Y985D01*
X1836Y983D01*
X1838Y983D01*
X1838Y981D01*
X1840Y981D01*
X1840Y977D01*
X1842Y977D01*
X1842Y973D01*
X1844Y973D01*
X1844Y965D01*
X1846Y965D01*
X1846Y947D01*
X1844Y947D01*
X1844Y939D01*
X1842Y939D01*
X1842Y935D01*
X1840Y935D01*
X1840Y931D01*
X1838Y931D01*
X1838Y929D01*
X1836Y929D01*
X1836Y927D01*
X1834Y927D01*
X1834Y925D01*
X1832Y925D01*
X1832Y923D01*
X1830Y923D01*
X1830Y921D01*
X1828Y921D01*
X1828Y919D01*
X1824Y919D01*
X1824Y917D01*
X1822Y917D01*
X1822Y895D01*
X1824Y895D01*
X1824Y893D01*
X1828Y893D01*
X1828Y891D01*
X1830Y891D01*
X1830Y889D01*
X1832Y889D01*
X1832Y887D01*
X1834Y887D01*
X1834Y885D01*
X1836Y885D01*
X1836Y883D01*
X1838Y883D01*
X1838Y881D01*
X1840Y881D01*
X1840Y877D01*
X1842Y877D01*
X1842Y873D01*
X1844Y873D01*
X1844Y865D01*
X1846Y865D01*
X1846Y851D01*
X2452Y851D01*
X2452Y853D01*
X2438Y853D01*
X2438Y855D01*
X2432Y855D01*
X2432Y857D01*
X2426Y857D01*
X2426Y859D01*
X2422Y859D01*
X2422Y861D01*
X2418Y861D01*
X2418Y863D01*
X2414Y863D01*
X2414Y865D01*
X2412Y865D01*
X2412Y867D01*
X2408Y867D01*
X2408Y869D01*
X2406Y869D01*
X2406Y871D01*
X2404Y871D01*
X2404Y873D01*
X2402Y873D01*
X2402Y875D01*
X2400Y875D01*
X2400Y877D01*
X2398Y877D01*
X2398Y879D01*
X2396Y879D01*
X2396Y881D01*
X2394Y881D01*
X2394Y883D01*
X2392Y883D01*
X2392Y887D01*
X2390Y887D01*
X2390Y889D01*
X2388Y889D01*
X2388Y893D01*
X2386Y893D01*
X2386Y897D01*
X2384Y897D01*
X2384Y901D01*
X2382Y901D01*
X2382Y907D01*
X2380Y907D01*
X2380Y913D01*
X2378Y913D01*
X2378Y949D01*
X2380Y949D01*
X2380Y955D01*
X2382Y955D01*
X2382Y961D01*
X2384Y961D01*
X2384Y965D01*
X2386Y965D01*
X2386Y969D01*
X2388Y969D01*
X2388Y973D01*
X2390Y973D01*
X2390Y975D01*
X2392Y975D01*
X2392Y979D01*
X2394Y979D01*
X2394Y981D01*
X2396Y981D01*
X2396Y983D01*
X2398Y983D01*
X2398Y985D01*
X2400Y985D01*
X2400Y987D01*
X2402Y987D01*
X2402Y989D01*
X2404Y989D01*
X2404Y991D01*
X2406Y991D01*
X2406Y993D01*
X2408Y993D01*
X2408Y995D01*
X2412Y995D01*
X2412Y997D01*
X2414Y997D01*
X2414Y999D01*
X2418Y999D01*
X2418Y1001D01*
X2422Y1001D01*
X2422Y1003D01*
X2426Y1003D01*
X2426Y1005D01*
X2430Y1005D01*
X2430Y1007D01*
X2438Y1007D01*
X2438Y1009D01*
X2452Y1009D01*
X2452Y1011D01*
X1428Y1011D01*
G37*
D02*
G36*
X1428Y1001D02*
X1428Y817D01*
X1426Y817D01*
X1426Y811D01*
X1424Y811D01*
X1424Y807D01*
X1422Y807D01*
X1422Y805D01*
X1420Y805D01*
X1420Y803D01*
X1416Y803D01*
X1416Y801D01*
X1412Y801D01*
X1412Y799D01*
X1268Y799D01*
X1268Y687D01*
X1324Y687D01*
X1324Y685D01*
X1330Y685D01*
X1330Y683D01*
X1334Y683D01*
X1334Y681D01*
X1336Y681D01*
X1336Y679D01*
X1764Y679D01*
X1764Y683D01*
X1766Y683D01*
X1766Y685D01*
X1768Y685D01*
X1768Y687D01*
X1770Y687D01*
X1770Y689D01*
X1772Y689D01*
X1772Y691D01*
X1774Y691D01*
X1774Y693D01*
X1778Y693D01*
X1778Y695D01*
X1780Y695D01*
X1780Y697D01*
X1782Y697D01*
X1782Y717D01*
X1778Y717D01*
X1778Y719D01*
X1774Y719D01*
X1774Y721D01*
X1772Y721D01*
X1772Y723D01*
X1770Y723D01*
X1770Y725D01*
X1768Y725D01*
X1768Y727D01*
X1766Y727D01*
X1766Y729D01*
X1764Y729D01*
X1764Y733D01*
X1762Y733D01*
X1762Y737D01*
X1760Y737D01*
X1760Y741D01*
X1758Y741D01*
X1758Y749D01*
X1756Y749D01*
X1756Y763D01*
X1758Y763D01*
X1758Y771D01*
X1760Y771D01*
X1760Y775D01*
X1762Y775D01*
X1762Y779D01*
X1764Y779D01*
X1764Y783D01*
X1766Y783D01*
X1766Y785D01*
X1768Y785D01*
X1768Y787D01*
X1770Y787D01*
X1770Y789D01*
X1772Y789D01*
X1772Y791D01*
X1774Y791D01*
X1774Y793D01*
X1778Y793D01*
X1778Y795D01*
X1780Y795D01*
X1780Y797D01*
X1782Y797D01*
X1782Y817D01*
X1778Y817D01*
X1778Y819D01*
X1774Y819D01*
X1774Y821D01*
X1772Y821D01*
X1772Y823D01*
X1770Y823D01*
X1770Y825D01*
X1768Y825D01*
X1768Y827D01*
X1766Y827D01*
X1766Y829D01*
X1764Y829D01*
X1764Y833D01*
X1762Y833D01*
X1762Y837D01*
X1760Y837D01*
X1760Y841D01*
X1758Y841D01*
X1758Y849D01*
X1756Y849D01*
X1756Y863D01*
X1758Y863D01*
X1758Y871D01*
X1760Y871D01*
X1760Y875D01*
X1762Y875D01*
X1762Y879D01*
X1764Y879D01*
X1764Y883D01*
X1766Y883D01*
X1766Y885D01*
X1768Y885D01*
X1768Y887D01*
X1770Y887D01*
X1770Y889D01*
X1772Y889D01*
X1772Y891D01*
X1774Y891D01*
X1774Y893D01*
X1778Y893D01*
X1778Y895D01*
X1780Y895D01*
X1780Y897D01*
X1782Y897D01*
X1782Y917D01*
X1778Y917D01*
X1778Y919D01*
X1774Y919D01*
X1774Y921D01*
X1772Y921D01*
X1772Y923D01*
X1770Y923D01*
X1770Y925D01*
X1768Y925D01*
X1768Y927D01*
X1766Y927D01*
X1766Y929D01*
X1764Y929D01*
X1764Y933D01*
X1762Y933D01*
X1762Y937D01*
X1760Y937D01*
X1760Y941D01*
X1758Y941D01*
X1758Y949D01*
X1756Y949D01*
X1756Y963D01*
X1758Y963D01*
X1758Y971D01*
X1760Y971D01*
X1760Y975D01*
X1762Y975D01*
X1762Y979D01*
X1764Y979D01*
X1764Y983D01*
X1766Y983D01*
X1766Y985D01*
X1768Y985D01*
X1768Y987D01*
X1770Y987D01*
X1770Y989D01*
X1772Y989D01*
X1772Y991D01*
X1774Y991D01*
X1774Y993D01*
X1778Y993D01*
X1778Y995D01*
X1780Y995D01*
X1780Y997D01*
X1786Y997D01*
X1786Y999D01*
X1792Y999D01*
X1792Y1001D01*
X1428Y1001D01*
G37*
D02*
G36*
X2486Y859D02*
X2486Y857D01*
X2482Y857D01*
X2482Y855D01*
X2474Y855D01*
X2474Y853D01*
X2460Y853D01*
X2460Y851D01*
X2506Y851D01*
X2506Y859D01*
X2486Y859D01*
G37*
D02*
G36*
X1846Y851D02*
X1846Y849D01*
X2506Y849D01*
X2506Y851D01*
X1846Y851D01*
G37*
D02*
G36*
X1846Y851D02*
X1846Y849D01*
X2506Y849D01*
X2506Y851D01*
X1846Y851D01*
G37*
D02*
G36*
X1846Y849D02*
X1846Y847D01*
X1844Y847D01*
X1844Y839D01*
X1842Y839D01*
X1842Y835D01*
X1840Y835D01*
X1840Y831D01*
X1838Y831D01*
X1838Y829D01*
X1836Y829D01*
X1836Y827D01*
X1834Y827D01*
X1834Y825D01*
X1832Y825D01*
X1832Y823D01*
X1830Y823D01*
X1830Y821D01*
X1828Y821D01*
X1828Y819D01*
X1824Y819D01*
X1824Y817D01*
X1822Y817D01*
X1822Y795D01*
X1824Y795D01*
X1824Y793D01*
X1828Y793D01*
X1828Y791D01*
X1830Y791D01*
X1830Y789D01*
X1832Y789D01*
X1832Y787D01*
X1834Y787D01*
X1834Y785D01*
X1836Y785D01*
X1836Y783D01*
X1838Y783D01*
X1838Y781D01*
X1840Y781D01*
X1840Y777D01*
X1842Y777D01*
X1842Y773D01*
X1844Y773D01*
X1844Y765D01*
X1846Y765D01*
X1846Y747D01*
X1844Y747D01*
X1844Y739D01*
X1842Y739D01*
X1842Y735D01*
X1840Y735D01*
X1840Y731D01*
X1838Y731D01*
X1838Y729D01*
X1836Y729D01*
X1836Y727D01*
X1834Y727D01*
X1834Y725D01*
X1832Y725D01*
X1832Y723D01*
X1830Y723D01*
X1830Y721D01*
X1828Y721D01*
X1828Y719D01*
X1824Y719D01*
X1824Y717D01*
X1822Y717D01*
X1822Y695D01*
X1824Y695D01*
X1824Y693D01*
X1828Y693D01*
X1828Y691D01*
X1830Y691D01*
X1830Y689D01*
X1832Y689D01*
X1832Y687D01*
X1834Y687D01*
X1834Y685D01*
X1836Y685D01*
X1836Y683D01*
X1838Y683D01*
X1838Y681D01*
X1840Y681D01*
X1840Y679D01*
X2414Y679D01*
X2414Y677D01*
X2422Y677D01*
X2422Y675D01*
X2424Y675D01*
X2424Y673D01*
X2428Y673D01*
X2428Y671D01*
X2432Y671D01*
X2432Y669D01*
X2434Y669D01*
X2434Y667D01*
X2436Y667D01*
X2436Y665D01*
X2438Y665D01*
X2438Y663D01*
X2440Y663D01*
X2440Y661D01*
X2442Y661D01*
X2442Y659D01*
X2444Y659D01*
X2444Y657D01*
X2446Y657D01*
X2446Y653D01*
X2448Y653D01*
X2448Y649D01*
X2450Y649D01*
X2450Y645D01*
X2452Y645D01*
X2452Y637D01*
X2454Y637D01*
X2454Y617D01*
X2452Y617D01*
X2452Y609D01*
X2450Y609D01*
X2450Y605D01*
X2448Y605D01*
X2448Y601D01*
X2446Y601D01*
X2446Y597D01*
X2444Y597D01*
X2444Y595D01*
X2442Y595D01*
X2442Y593D01*
X2440Y593D01*
X2440Y589D01*
X2436Y589D01*
X2436Y587D01*
X2434Y587D01*
X2434Y585D01*
X2432Y585D01*
X2432Y583D01*
X2428Y583D01*
X2428Y581D01*
X2426Y581D01*
X2426Y579D01*
X2422Y579D01*
X2422Y577D01*
X2416Y577D01*
X2416Y575D01*
X2404Y575D01*
X2404Y573D01*
X2506Y573D01*
X2506Y849D01*
X1846Y849D01*
G37*
D02*
G36*
X1268Y687D02*
X1268Y627D01*
X1314Y627D01*
X1314Y629D01*
X1306Y629D01*
X1306Y631D01*
X1302Y631D01*
X1302Y633D01*
X1300Y633D01*
X1300Y635D01*
X1298Y635D01*
X1298Y637D01*
X1296Y637D01*
X1296Y639D01*
X1294Y639D01*
X1294Y641D01*
X1292Y641D01*
X1292Y645D01*
X1290Y645D01*
X1290Y651D01*
X1288Y651D01*
X1288Y663D01*
X1290Y663D01*
X1290Y669D01*
X1292Y669D01*
X1292Y673D01*
X1294Y673D01*
X1294Y675D01*
X1296Y675D01*
X1296Y679D01*
X1300Y679D01*
X1300Y681D01*
X1302Y681D01*
X1302Y683D01*
X1306Y683D01*
X1306Y685D01*
X1312Y685D01*
X1312Y687D01*
X1268Y687D01*
G37*
D02*
G36*
X1840Y679D02*
X1840Y677D01*
X1842Y677D01*
X1842Y673D01*
X1844Y673D01*
X1844Y665D01*
X1846Y665D01*
X1846Y647D01*
X1844Y647D01*
X1844Y639D01*
X1842Y639D01*
X1842Y635D01*
X1840Y635D01*
X1840Y631D01*
X1838Y631D01*
X1838Y629D01*
X1836Y629D01*
X1836Y627D01*
X1834Y627D01*
X1834Y625D01*
X1832Y625D01*
X1832Y623D01*
X1830Y623D01*
X1830Y621D01*
X1828Y621D01*
X1828Y619D01*
X1824Y619D01*
X1824Y617D01*
X1822Y617D01*
X1822Y595D01*
X1824Y595D01*
X1824Y593D01*
X1828Y593D01*
X1828Y591D01*
X1830Y591D01*
X1830Y589D01*
X1832Y589D01*
X1832Y587D01*
X1834Y587D01*
X1834Y585D01*
X1836Y585D01*
X1836Y583D01*
X1838Y583D01*
X1838Y581D01*
X1840Y581D01*
X1840Y577D01*
X1842Y577D01*
X1842Y573D01*
X2400Y573D01*
X2400Y575D01*
X2386Y575D01*
X2386Y577D01*
X2380Y577D01*
X2380Y579D01*
X2378Y579D01*
X2378Y581D01*
X2374Y581D01*
X2374Y583D01*
X2370Y583D01*
X2370Y585D01*
X2368Y585D01*
X2368Y587D01*
X2366Y587D01*
X2366Y589D01*
X2364Y589D01*
X2364Y591D01*
X2362Y591D01*
X2362Y593D01*
X2360Y593D01*
X2360Y595D01*
X2358Y595D01*
X2358Y597D01*
X2356Y597D01*
X2356Y601D01*
X2354Y601D01*
X2354Y605D01*
X2352Y605D01*
X2352Y611D01*
X2350Y611D01*
X2350Y619D01*
X2348Y619D01*
X2348Y635D01*
X2350Y635D01*
X2350Y643D01*
X2352Y643D01*
X2352Y649D01*
X2354Y649D01*
X2354Y653D01*
X2356Y653D01*
X2356Y655D01*
X2358Y655D01*
X2358Y659D01*
X2360Y659D01*
X2360Y661D01*
X2362Y661D01*
X2362Y663D01*
X2364Y663D01*
X2364Y665D01*
X2366Y665D01*
X2366Y667D01*
X2368Y667D01*
X2368Y669D01*
X2370Y669D01*
X2370Y671D01*
X2374Y671D01*
X2374Y673D01*
X2378Y673D01*
X2378Y675D01*
X2382Y675D01*
X2382Y677D01*
X2388Y677D01*
X2388Y679D01*
X1840Y679D01*
G37*
D02*
G36*
X1336Y635D02*
X1336Y633D01*
X1334Y633D01*
X1334Y631D01*
X1330Y631D01*
X1330Y629D01*
X1322Y629D01*
X1322Y627D01*
X1766Y627D01*
X1766Y629D01*
X1764Y629D01*
X1764Y633D01*
X1762Y633D01*
X1762Y635D01*
X1336Y635D01*
G37*
D02*
G36*
X1268Y627D02*
X1268Y625D01*
X1768Y625D01*
X1768Y627D01*
X1268Y627D01*
G37*
D02*
G36*
X1268Y627D02*
X1268Y625D01*
X1768Y625D01*
X1768Y627D01*
X1268Y627D01*
G37*
D02*
G36*
X1268Y625D02*
X1268Y593D01*
X1374Y593D01*
X1374Y591D01*
X1378Y591D01*
X1378Y589D01*
X1380Y589D01*
X1380Y587D01*
X1382Y587D01*
X1382Y585D01*
X1384Y585D01*
X1384Y583D01*
X1386Y583D01*
X1386Y577D01*
X1388Y577D01*
X1388Y293D01*
X1390Y293D01*
X1390Y185D01*
X1394Y185D01*
X1394Y183D01*
X1396Y183D01*
X1396Y181D01*
X1398Y181D01*
X1398Y179D01*
X1402Y179D01*
X1402Y177D01*
X1404Y177D01*
X1404Y173D01*
X1406Y173D01*
X1406Y171D01*
X1408Y171D01*
X1408Y169D01*
X1410Y169D01*
X1410Y165D01*
X1412Y165D01*
X1412Y161D01*
X1414Y161D01*
X1414Y153D01*
X1416Y153D01*
X1416Y131D01*
X1414Y131D01*
X1414Y125D01*
X1412Y125D01*
X1412Y121D01*
X1410Y121D01*
X1410Y117D01*
X1408Y117D01*
X1408Y113D01*
X1406Y113D01*
X1406Y111D01*
X1792Y111D01*
X1792Y113D01*
X1786Y113D01*
X1786Y115D01*
X1782Y115D01*
X1782Y117D01*
X1778Y117D01*
X1778Y119D01*
X1774Y119D01*
X1774Y121D01*
X1772Y121D01*
X1772Y123D01*
X1770Y123D01*
X1770Y125D01*
X1768Y125D01*
X1768Y127D01*
X1766Y127D01*
X1766Y129D01*
X1764Y129D01*
X1764Y133D01*
X1762Y133D01*
X1762Y137D01*
X1760Y137D01*
X1760Y141D01*
X1758Y141D01*
X1758Y149D01*
X1756Y149D01*
X1756Y163D01*
X1758Y163D01*
X1758Y171D01*
X1760Y171D01*
X1760Y175D01*
X1762Y175D01*
X1762Y179D01*
X1764Y179D01*
X1764Y183D01*
X1766Y183D01*
X1766Y185D01*
X1768Y185D01*
X1768Y187D01*
X1770Y187D01*
X1770Y189D01*
X1772Y189D01*
X1772Y191D01*
X1774Y191D01*
X1774Y193D01*
X1778Y193D01*
X1778Y195D01*
X1780Y195D01*
X1780Y197D01*
X1782Y197D01*
X1782Y217D01*
X1778Y217D01*
X1778Y219D01*
X1774Y219D01*
X1774Y221D01*
X1772Y221D01*
X1772Y223D01*
X1770Y223D01*
X1770Y225D01*
X1768Y225D01*
X1768Y227D01*
X1766Y227D01*
X1766Y229D01*
X1764Y229D01*
X1764Y233D01*
X1762Y233D01*
X1762Y237D01*
X1760Y237D01*
X1760Y241D01*
X1758Y241D01*
X1758Y249D01*
X1756Y249D01*
X1756Y263D01*
X1758Y263D01*
X1758Y271D01*
X1760Y271D01*
X1760Y275D01*
X1762Y275D01*
X1762Y279D01*
X1764Y279D01*
X1764Y283D01*
X1766Y283D01*
X1766Y285D01*
X1768Y285D01*
X1768Y287D01*
X1770Y287D01*
X1770Y289D01*
X1772Y289D01*
X1772Y291D01*
X1774Y291D01*
X1774Y293D01*
X1778Y293D01*
X1778Y295D01*
X1780Y295D01*
X1780Y297D01*
X1782Y297D01*
X1782Y317D01*
X1778Y317D01*
X1778Y319D01*
X1774Y319D01*
X1774Y321D01*
X1772Y321D01*
X1772Y323D01*
X1770Y323D01*
X1770Y325D01*
X1768Y325D01*
X1768Y327D01*
X1766Y327D01*
X1766Y329D01*
X1764Y329D01*
X1764Y333D01*
X1762Y333D01*
X1762Y337D01*
X1760Y337D01*
X1760Y341D01*
X1758Y341D01*
X1758Y349D01*
X1756Y349D01*
X1756Y363D01*
X1758Y363D01*
X1758Y371D01*
X1760Y371D01*
X1760Y375D01*
X1762Y375D01*
X1762Y379D01*
X1764Y379D01*
X1764Y383D01*
X1766Y383D01*
X1766Y385D01*
X1768Y385D01*
X1768Y387D01*
X1770Y387D01*
X1770Y389D01*
X1772Y389D01*
X1772Y391D01*
X1774Y391D01*
X1774Y393D01*
X1778Y393D01*
X1778Y395D01*
X1780Y395D01*
X1780Y397D01*
X1782Y397D01*
X1782Y417D01*
X1778Y417D01*
X1778Y419D01*
X1774Y419D01*
X1774Y421D01*
X1772Y421D01*
X1772Y423D01*
X1770Y423D01*
X1770Y425D01*
X1768Y425D01*
X1768Y427D01*
X1766Y427D01*
X1766Y429D01*
X1764Y429D01*
X1764Y433D01*
X1762Y433D01*
X1762Y437D01*
X1760Y437D01*
X1760Y441D01*
X1758Y441D01*
X1758Y449D01*
X1756Y449D01*
X1756Y463D01*
X1758Y463D01*
X1758Y471D01*
X1760Y471D01*
X1760Y475D01*
X1762Y475D01*
X1762Y479D01*
X1764Y479D01*
X1764Y483D01*
X1766Y483D01*
X1766Y485D01*
X1768Y485D01*
X1768Y487D01*
X1770Y487D01*
X1770Y489D01*
X1772Y489D01*
X1772Y491D01*
X1774Y491D01*
X1774Y493D01*
X1778Y493D01*
X1778Y495D01*
X1780Y495D01*
X1780Y497D01*
X1782Y497D01*
X1782Y517D01*
X1778Y517D01*
X1778Y519D01*
X1774Y519D01*
X1774Y521D01*
X1772Y521D01*
X1772Y523D01*
X1770Y523D01*
X1770Y525D01*
X1768Y525D01*
X1768Y527D01*
X1766Y527D01*
X1766Y529D01*
X1764Y529D01*
X1764Y533D01*
X1762Y533D01*
X1762Y537D01*
X1760Y537D01*
X1760Y541D01*
X1758Y541D01*
X1758Y549D01*
X1756Y549D01*
X1756Y563D01*
X1758Y563D01*
X1758Y571D01*
X1760Y571D01*
X1760Y575D01*
X1762Y575D01*
X1762Y579D01*
X1764Y579D01*
X1764Y583D01*
X1766Y583D01*
X1766Y585D01*
X1768Y585D01*
X1768Y587D01*
X1770Y587D01*
X1770Y589D01*
X1772Y589D01*
X1772Y591D01*
X1774Y591D01*
X1774Y593D01*
X1778Y593D01*
X1778Y595D01*
X1780Y595D01*
X1780Y597D01*
X1782Y597D01*
X1782Y617D01*
X1778Y617D01*
X1778Y619D01*
X1774Y619D01*
X1774Y621D01*
X1772Y621D01*
X1772Y623D01*
X1770Y623D01*
X1770Y625D01*
X1268Y625D01*
G37*
D02*
G36*
X1844Y573D02*
X1844Y571D01*
X2506Y571D01*
X2506Y573D01*
X1844Y573D01*
G37*
D02*
G36*
X1844Y573D02*
X1844Y571D01*
X2506Y571D01*
X2506Y573D01*
X1844Y573D01*
G37*
D02*
G36*
X1844Y571D02*
X1844Y565D01*
X1846Y565D01*
X1846Y547D01*
X1844Y547D01*
X1844Y543D01*
X2402Y543D01*
X2402Y541D01*
X2416Y541D01*
X2416Y539D01*
X2422Y539D01*
X2422Y537D01*
X2426Y537D01*
X2426Y535D01*
X2428Y535D01*
X2428Y533D01*
X2432Y533D01*
X2432Y531D01*
X2434Y531D01*
X2434Y529D01*
X2436Y529D01*
X2436Y527D01*
X2440Y527D01*
X2440Y523D01*
X2442Y523D01*
X2442Y521D01*
X2444Y521D01*
X2444Y519D01*
X2446Y519D01*
X2446Y515D01*
X2448Y515D01*
X2448Y511D01*
X2450Y511D01*
X2450Y507D01*
X2452Y507D01*
X2452Y499D01*
X2454Y499D01*
X2454Y479D01*
X2452Y479D01*
X2452Y471D01*
X2450Y471D01*
X2450Y467D01*
X2448Y467D01*
X2448Y463D01*
X2446Y463D01*
X2446Y459D01*
X2444Y459D01*
X2444Y457D01*
X2442Y457D01*
X2442Y455D01*
X2440Y455D01*
X2440Y453D01*
X2438Y453D01*
X2438Y451D01*
X2436Y451D01*
X2436Y449D01*
X2434Y449D01*
X2434Y447D01*
X2432Y447D01*
X2432Y445D01*
X2428Y445D01*
X2428Y443D01*
X2424Y443D01*
X2424Y441D01*
X2422Y441D01*
X2422Y439D01*
X2414Y439D01*
X2414Y437D01*
X2506Y437D01*
X2506Y571D01*
X1844Y571D01*
G37*
D02*
G36*
X40Y561D02*
X40Y559D01*
X384Y559D01*
X384Y561D01*
X40Y561D01*
G37*
D02*
G36*
X40Y561D02*
X40Y559D01*
X384Y559D01*
X384Y561D01*
X40Y561D01*
G37*
D02*
G36*
X40Y559D02*
X40Y239D01*
X140Y239D01*
X140Y237D01*
X152Y237D01*
X152Y235D01*
X158Y235D01*
X158Y233D01*
X162Y233D01*
X162Y231D01*
X166Y231D01*
X166Y229D01*
X168Y229D01*
X168Y227D01*
X172Y227D01*
X172Y225D01*
X174Y225D01*
X174Y223D01*
X176Y223D01*
X176Y221D01*
X178Y221D01*
X178Y219D01*
X180Y219D01*
X180Y217D01*
X182Y217D01*
X182Y213D01*
X184Y213D01*
X184Y211D01*
X186Y211D01*
X186Y207D01*
X188Y207D01*
X188Y203D01*
X190Y203D01*
X190Y197D01*
X192Y197D01*
X192Y191D01*
X880Y191D01*
X880Y189D01*
X886Y189D01*
X886Y187D01*
X890Y187D01*
X890Y185D01*
X894Y185D01*
X894Y183D01*
X896Y183D01*
X896Y181D01*
X898Y181D01*
X898Y179D01*
X902Y179D01*
X902Y177D01*
X904Y177D01*
X904Y173D01*
X906Y173D01*
X906Y171D01*
X908Y171D01*
X908Y169D01*
X928Y169D01*
X928Y173D01*
X930Y173D01*
X930Y175D01*
X932Y175D01*
X932Y177D01*
X934Y177D01*
X934Y179D01*
X936Y179D01*
X936Y181D01*
X938Y181D01*
X938Y183D01*
X942Y183D01*
X942Y185D01*
X946Y185D01*
X946Y205D01*
X944Y205D01*
X944Y309D01*
X400Y309D01*
X400Y311D01*
X396Y311D01*
X396Y313D01*
X392Y313D01*
X392Y315D01*
X390Y315D01*
X390Y317D01*
X388Y317D01*
X388Y319D01*
X386Y319D01*
X386Y325D01*
X384Y325D01*
X384Y559D01*
X40Y559D01*
G37*
D02*
G36*
X1844Y543D02*
X1844Y539D01*
X1842Y539D01*
X1842Y535D01*
X1840Y535D01*
X1840Y531D01*
X1838Y531D01*
X1838Y529D01*
X1836Y529D01*
X1836Y527D01*
X1834Y527D01*
X1834Y525D01*
X1832Y525D01*
X1832Y523D01*
X1830Y523D01*
X1830Y521D01*
X1828Y521D01*
X1828Y519D01*
X1824Y519D01*
X1824Y517D01*
X1822Y517D01*
X1822Y495D01*
X1824Y495D01*
X1824Y493D01*
X1828Y493D01*
X1828Y491D01*
X1830Y491D01*
X1830Y489D01*
X1832Y489D01*
X1832Y487D01*
X1834Y487D01*
X1834Y485D01*
X1836Y485D01*
X1836Y483D01*
X1838Y483D01*
X1838Y481D01*
X1840Y481D01*
X1840Y477D01*
X1842Y477D01*
X1842Y473D01*
X1844Y473D01*
X1844Y465D01*
X1846Y465D01*
X1846Y447D01*
X1844Y447D01*
X1844Y439D01*
X1842Y439D01*
X1842Y437D01*
X2388Y437D01*
X2388Y439D01*
X2382Y439D01*
X2382Y441D01*
X2378Y441D01*
X2378Y443D01*
X2374Y443D01*
X2374Y445D01*
X2370Y445D01*
X2370Y447D01*
X2368Y447D01*
X2368Y449D01*
X2366Y449D01*
X2366Y451D01*
X2364Y451D01*
X2364Y453D01*
X2362Y453D01*
X2362Y455D01*
X2360Y455D01*
X2360Y457D01*
X2358Y457D01*
X2358Y461D01*
X2356Y461D01*
X2356Y463D01*
X2354Y463D01*
X2354Y467D01*
X2352Y467D01*
X2352Y473D01*
X2350Y473D01*
X2350Y481D01*
X2348Y481D01*
X2348Y497D01*
X2350Y497D01*
X2350Y505D01*
X2352Y505D01*
X2352Y511D01*
X2354Y511D01*
X2354Y515D01*
X2356Y515D01*
X2356Y519D01*
X2358Y519D01*
X2358Y521D01*
X2360Y521D01*
X2360Y523D01*
X2362Y523D01*
X2362Y525D01*
X2364Y525D01*
X2364Y527D01*
X2366Y527D01*
X2366Y529D01*
X2368Y529D01*
X2368Y531D01*
X2370Y531D01*
X2370Y533D01*
X2374Y533D01*
X2374Y535D01*
X2378Y535D01*
X2378Y537D01*
X2380Y537D01*
X2380Y539D01*
X2386Y539D01*
X2386Y541D01*
X2400Y541D01*
X2400Y543D01*
X1844Y543D01*
G37*
D02*
G36*
X1842Y437D02*
X1842Y435D01*
X2506Y435D01*
X2506Y437D01*
X1842Y437D01*
G37*
D02*
G36*
X1842Y437D02*
X1842Y435D01*
X2506Y435D01*
X2506Y437D01*
X1842Y437D01*
G37*
D02*
G36*
X1840Y435D02*
X1840Y431D01*
X1838Y431D01*
X1838Y429D01*
X1836Y429D01*
X1836Y427D01*
X1834Y427D01*
X1834Y425D01*
X1832Y425D01*
X1832Y423D01*
X1830Y423D01*
X1830Y421D01*
X1828Y421D01*
X1828Y419D01*
X1824Y419D01*
X1824Y417D01*
X1822Y417D01*
X1822Y395D01*
X1824Y395D01*
X1824Y393D01*
X1828Y393D01*
X1828Y391D01*
X1830Y391D01*
X1830Y389D01*
X1832Y389D01*
X1832Y387D01*
X1834Y387D01*
X1834Y385D01*
X1836Y385D01*
X1836Y383D01*
X1838Y383D01*
X1838Y381D01*
X1840Y381D01*
X1840Y377D01*
X1842Y377D01*
X1842Y373D01*
X1844Y373D01*
X1844Y365D01*
X1846Y365D01*
X1846Y347D01*
X1844Y347D01*
X1844Y339D01*
X1842Y339D01*
X1842Y335D01*
X1840Y335D01*
X1840Y331D01*
X1838Y331D01*
X1838Y329D01*
X1836Y329D01*
X1836Y327D01*
X1834Y327D01*
X1834Y325D01*
X1832Y325D01*
X1832Y323D01*
X1830Y323D01*
X1830Y321D01*
X1828Y321D01*
X1828Y319D01*
X1824Y319D01*
X1824Y317D01*
X1822Y317D01*
X1822Y295D01*
X1824Y295D01*
X1824Y293D01*
X1828Y293D01*
X1828Y291D01*
X1830Y291D01*
X1830Y289D01*
X1832Y289D01*
X1832Y287D01*
X1834Y287D01*
X1834Y285D01*
X1836Y285D01*
X1836Y283D01*
X1838Y283D01*
X1838Y281D01*
X1840Y281D01*
X1840Y277D01*
X1842Y277D01*
X1842Y273D01*
X1844Y273D01*
X1844Y265D01*
X1846Y265D01*
X1846Y261D01*
X2460Y261D01*
X2460Y259D01*
X2474Y259D01*
X2474Y257D01*
X2482Y257D01*
X2482Y255D01*
X2486Y255D01*
X2486Y253D01*
X2506Y253D01*
X2506Y435D01*
X1840Y435D01*
G37*
D02*
G36*
X1846Y261D02*
X1846Y247D01*
X1844Y247D01*
X1844Y239D01*
X1842Y239D01*
X1842Y235D01*
X1840Y235D01*
X1840Y231D01*
X1838Y231D01*
X1838Y229D01*
X1836Y229D01*
X1836Y227D01*
X1834Y227D01*
X1834Y225D01*
X1832Y225D01*
X1832Y223D01*
X1830Y223D01*
X1830Y221D01*
X1828Y221D01*
X1828Y219D01*
X1824Y219D01*
X1824Y217D01*
X1822Y217D01*
X1822Y195D01*
X1824Y195D01*
X1824Y193D01*
X1828Y193D01*
X1828Y191D01*
X1830Y191D01*
X1830Y189D01*
X1832Y189D01*
X1832Y187D01*
X1834Y187D01*
X1834Y185D01*
X1836Y185D01*
X1836Y183D01*
X1838Y183D01*
X1838Y181D01*
X1840Y181D01*
X1840Y177D01*
X1842Y177D01*
X1842Y173D01*
X1844Y173D01*
X1844Y165D01*
X1846Y165D01*
X1846Y147D01*
X1844Y147D01*
X1844Y139D01*
X1842Y139D01*
X1842Y135D01*
X1840Y135D01*
X1840Y131D01*
X1838Y131D01*
X1838Y129D01*
X1836Y129D01*
X1836Y127D01*
X1834Y127D01*
X1834Y125D01*
X1832Y125D01*
X1832Y123D01*
X1830Y123D01*
X1830Y121D01*
X1828Y121D01*
X1828Y119D01*
X1824Y119D01*
X1824Y117D01*
X1822Y117D01*
X1822Y115D01*
X1816Y115D01*
X1816Y113D01*
X1810Y113D01*
X1810Y111D01*
X2418Y111D01*
X2418Y113D01*
X2414Y113D01*
X2414Y115D01*
X2412Y115D01*
X2412Y117D01*
X2408Y117D01*
X2408Y119D01*
X2406Y119D01*
X2406Y121D01*
X2404Y121D01*
X2404Y123D01*
X2402Y123D01*
X2402Y125D01*
X2400Y125D01*
X2400Y127D01*
X2398Y127D01*
X2398Y129D01*
X2396Y129D01*
X2396Y131D01*
X2394Y131D01*
X2394Y133D01*
X2392Y133D01*
X2392Y137D01*
X2390Y137D01*
X2390Y139D01*
X2388Y139D01*
X2388Y143D01*
X2386Y143D01*
X2386Y147D01*
X2384Y147D01*
X2384Y151D01*
X2382Y151D01*
X2382Y157D01*
X2380Y157D01*
X2380Y163D01*
X2378Y163D01*
X2378Y199D01*
X2380Y199D01*
X2380Y205D01*
X2382Y205D01*
X2382Y211D01*
X2384Y211D01*
X2384Y215D01*
X2386Y215D01*
X2386Y219D01*
X2388Y219D01*
X2388Y223D01*
X2390Y223D01*
X2390Y225D01*
X2392Y225D01*
X2392Y229D01*
X2394Y229D01*
X2394Y231D01*
X2396Y231D01*
X2396Y233D01*
X2398Y233D01*
X2398Y235D01*
X2400Y235D01*
X2400Y237D01*
X2402Y237D01*
X2402Y239D01*
X2404Y239D01*
X2404Y241D01*
X2406Y241D01*
X2406Y243D01*
X2408Y243D01*
X2408Y245D01*
X2412Y245D01*
X2412Y247D01*
X2414Y247D01*
X2414Y249D01*
X2418Y249D01*
X2418Y251D01*
X2422Y251D01*
X2422Y253D01*
X2426Y253D01*
X2426Y255D01*
X2430Y255D01*
X2430Y257D01*
X2438Y257D01*
X2438Y259D01*
X2452Y259D01*
X2452Y261D01*
X1846Y261D01*
G37*
D02*
G36*
X40Y239D02*
X40Y123D01*
X132Y123D01*
X132Y125D01*
X122Y125D01*
X122Y127D01*
X116Y127D01*
X116Y129D01*
X110Y129D01*
X110Y131D01*
X106Y131D01*
X106Y133D01*
X104Y133D01*
X104Y135D01*
X100Y135D01*
X100Y137D01*
X98Y137D01*
X98Y139D01*
X96Y139D01*
X96Y141D01*
X94Y141D01*
X94Y143D01*
X92Y143D01*
X92Y147D01*
X90Y147D01*
X90Y149D01*
X88Y149D01*
X88Y153D01*
X86Y153D01*
X86Y155D01*
X84Y155D01*
X84Y161D01*
X82Y161D01*
X82Y167D01*
X80Y167D01*
X80Y179D01*
X78Y179D01*
X78Y183D01*
X80Y183D01*
X80Y195D01*
X82Y195D01*
X82Y201D01*
X84Y201D01*
X84Y207D01*
X86Y207D01*
X86Y209D01*
X88Y209D01*
X88Y213D01*
X90Y213D01*
X90Y215D01*
X92Y215D01*
X92Y219D01*
X94Y219D01*
X94Y221D01*
X96Y221D01*
X96Y223D01*
X98Y223D01*
X98Y225D01*
X100Y225D01*
X100Y227D01*
X104Y227D01*
X104Y229D01*
X106Y229D01*
X106Y231D01*
X110Y231D01*
X110Y233D01*
X116Y233D01*
X116Y235D01*
X120Y235D01*
X120Y237D01*
X132Y237D01*
X132Y239D01*
X40Y239D01*
G37*
D02*
G36*
X192Y191D02*
X192Y187D01*
X194Y187D01*
X194Y175D01*
X192Y175D01*
X192Y165D01*
X190Y165D01*
X190Y159D01*
X188Y159D01*
X188Y155D01*
X186Y155D01*
X186Y151D01*
X184Y151D01*
X184Y149D01*
X182Y149D01*
X182Y145D01*
X180Y145D01*
X180Y143D01*
X178Y143D01*
X178Y141D01*
X176Y141D01*
X176Y139D01*
X174Y139D01*
X174Y137D01*
X172Y137D01*
X172Y135D01*
X168Y135D01*
X168Y133D01*
X166Y133D01*
X166Y131D01*
X162Y131D01*
X162Y129D01*
X158Y129D01*
X158Y127D01*
X152Y127D01*
X152Y125D01*
X140Y125D01*
X140Y123D01*
X318Y123D01*
X318Y191D01*
X192Y191D01*
G37*
D02*
G36*
X416Y191D02*
X416Y179D01*
X436Y179D01*
X436Y181D01*
X438Y181D01*
X438Y183D01*
X442Y183D01*
X442Y185D01*
X446Y185D01*
X446Y187D01*
X450Y187D01*
X450Y189D01*
X456Y189D01*
X456Y191D01*
X416Y191D01*
G37*
D02*
G36*
X480Y191D02*
X480Y189D01*
X486Y189D01*
X486Y187D01*
X490Y187D01*
X490Y185D01*
X494Y185D01*
X494Y183D01*
X496Y183D01*
X496Y181D01*
X498Y181D01*
X498Y179D01*
X502Y179D01*
X502Y177D01*
X504Y177D01*
X504Y173D01*
X506Y173D01*
X506Y171D01*
X508Y171D01*
X508Y169D01*
X528Y169D01*
X528Y173D01*
X530Y173D01*
X530Y175D01*
X532Y175D01*
X532Y177D01*
X534Y177D01*
X534Y179D01*
X536Y179D01*
X536Y181D01*
X538Y181D01*
X538Y183D01*
X542Y183D01*
X542Y185D01*
X546Y185D01*
X546Y187D01*
X550Y187D01*
X550Y189D01*
X556Y189D01*
X556Y191D01*
X480Y191D01*
G37*
D02*
G36*
X580Y191D02*
X580Y189D01*
X586Y189D01*
X586Y187D01*
X590Y187D01*
X590Y185D01*
X594Y185D01*
X594Y183D01*
X596Y183D01*
X596Y181D01*
X598Y181D01*
X598Y179D01*
X602Y179D01*
X602Y177D01*
X604Y177D01*
X604Y173D01*
X606Y173D01*
X606Y171D01*
X608Y171D01*
X608Y169D01*
X628Y169D01*
X628Y173D01*
X630Y173D01*
X630Y175D01*
X632Y175D01*
X632Y177D01*
X634Y177D01*
X634Y179D01*
X636Y179D01*
X636Y181D01*
X638Y181D01*
X638Y183D01*
X642Y183D01*
X642Y185D01*
X646Y185D01*
X646Y187D01*
X650Y187D01*
X650Y189D01*
X656Y189D01*
X656Y191D01*
X580Y191D01*
G37*
D02*
G36*
X680Y191D02*
X680Y189D01*
X686Y189D01*
X686Y187D01*
X690Y187D01*
X690Y185D01*
X694Y185D01*
X694Y183D01*
X696Y183D01*
X696Y181D01*
X698Y181D01*
X698Y179D01*
X702Y179D01*
X702Y177D01*
X704Y177D01*
X704Y173D01*
X706Y173D01*
X706Y171D01*
X708Y171D01*
X708Y169D01*
X728Y169D01*
X728Y173D01*
X730Y173D01*
X730Y175D01*
X732Y175D01*
X732Y177D01*
X734Y177D01*
X734Y179D01*
X736Y179D01*
X736Y181D01*
X738Y181D01*
X738Y183D01*
X742Y183D01*
X742Y185D01*
X746Y185D01*
X746Y187D01*
X750Y187D01*
X750Y189D01*
X756Y189D01*
X756Y191D01*
X680Y191D01*
G37*
D02*
G36*
X780Y191D02*
X780Y189D01*
X786Y189D01*
X786Y187D01*
X790Y187D01*
X790Y185D01*
X794Y185D01*
X794Y183D01*
X796Y183D01*
X796Y181D01*
X798Y181D01*
X798Y179D01*
X802Y179D01*
X802Y177D01*
X804Y177D01*
X804Y173D01*
X806Y173D01*
X806Y171D01*
X808Y171D01*
X808Y169D01*
X828Y169D01*
X828Y173D01*
X830Y173D01*
X830Y175D01*
X832Y175D01*
X832Y177D01*
X834Y177D01*
X834Y179D01*
X836Y179D01*
X836Y181D01*
X838Y181D01*
X838Y183D01*
X842Y183D01*
X842Y185D01*
X846Y185D01*
X846Y187D01*
X850Y187D01*
X850Y189D01*
X856Y189D01*
X856Y191D01*
X780Y191D01*
G37*
D02*
G36*
X40Y123D02*
X40Y121D01*
X318Y121D01*
X318Y123D01*
X40Y123D01*
G37*
D02*
G36*
X40Y123D02*
X40Y121D01*
X318Y121D01*
X318Y123D01*
X40Y123D01*
G37*
D02*
G36*
X40Y121D02*
X40Y93D01*
X320Y93D01*
X320Y95D01*
X318Y95D01*
X318Y121D01*
X40Y121D01*
G37*
D02*
G36*
X508Y115D02*
X508Y113D01*
X506Y113D01*
X506Y111D01*
X504Y111D01*
X504Y109D01*
X502Y109D01*
X502Y107D01*
X500Y107D01*
X500Y105D01*
X498Y105D01*
X498Y103D01*
X494Y103D01*
X494Y101D01*
X492Y101D01*
X492Y99D01*
X488Y99D01*
X488Y97D01*
X482Y97D01*
X482Y95D01*
X472Y95D01*
X472Y93D01*
X562Y93D01*
X562Y95D01*
X554Y95D01*
X554Y97D01*
X548Y97D01*
X548Y99D01*
X544Y99D01*
X544Y101D01*
X540Y101D01*
X540Y103D01*
X538Y103D01*
X538Y105D01*
X536Y105D01*
X536Y107D01*
X532Y107D01*
X532Y111D01*
X530Y111D01*
X530Y113D01*
X528Y113D01*
X528Y115D01*
X508Y115D01*
G37*
D02*
G36*
X608Y115D02*
X608Y113D01*
X606Y113D01*
X606Y111D01*
X604Y111D01*
X604Y109D01*
X602Y109D01*
X602Y107D01*
X600Y107D01*
X600Y105D01*
X598Y105D01*
X598Y103D01*
X594Y103D01*
X594Y101D01*
X592Y101D01*
X592Y99D01*
X588Y99D01*
X588Y97D01*
X582Y97D01*
X582Y95D01*
X572Y95D01*
X572Y93D01*
X662Y93D01*
X662Y95D01*
X654Y95D01*
X654Y97D01*
X648Y97D01*
X648Y99D01*
X644Y99D01*
X644Y101D01*
X640Y101D01*
X640Y103D01*
X638Y103D01*
X638Y105D01*
X636Y105D01*
X636Y107D01*
X632Y107D01*
X632Y111D01*
X630Y111D01*
X630Y113D01*
X628Y113D01*
X628Y115D01*
X608Y115D01*
G37*
D02*
G36*
X708Y115D02*
X708Y113D01*
X706Y113D01*
X706Y111D01*
X704Y111D01*
X704Y109D01*
X702Y109D01*
X702Y107D01*
X700Y107D01*
X700Y105D01*
X698Y105D01*
X698Y103D01*
X694Y103D01*
X694Y101D01*
X692Y101D01*
X692Y99D01*
X688Y99D01*
X688Y97D01*
X682Y97D01*
X682Y95D01*
X672Y95D01*
X672Y93D01*
X762Y93D01*
X762Y95D01*
X754Y95D01*
X754Y97D01*
X748Y97D01*
X748Y99D01*
X744Y99D01*
X744Y101D01*
X740Y101D01*
X740Y103D01*
X738Y103D01*
X738Y105D01*
X736Y105D01*
X736Y107D01*
X732Y107D01*
X732Y111D01*
X730Y111D01*
X730Y113D01*
X728Y113D01*
X728Y115D01*
X708Y115D01*
G37*
D02*
G36*
X808Y115D02*
X808Y113D01*
X806Y113D01*
X806Y111D01*
X804Y111D01*
X804Y109D01*
X802Y109D01*
X802Y107D01*
X800Y107D01*
X800Y105D01*
X798Y105D01*
X798Y103D01*
X794Y103D01*
X794Y101D01*
X792Y101D01*
X792Y99D01*
X788Y99D01*
X788Y97D01*
X782Y97D01*
X782Y95D01*
X772Y95D01*
X772Y93D01*
X862Y93D01*
X862Y95D01*
X854Y95D01*
X854Y97D01*
X848Y97D01*
X848Y99D01*
X844Y99D01*
X844Y101D01*
X840Y101D01*
X840Y103D01*
X838Y103D01*
X838Y105D01*
X836Y105D01*
X836Y107D01*
X832Y107D01*
X832Y111D01*
X830Y111D01*
X830Y113D01*
X828Y113D01*
X828Y115D01*
X808Y115D01*
G37*
D02*
G36*
X908Y115D02*
X908Y113D01*
X906Y113D01*
X906Y111D01*
X904Y111D01*
X904Y109D01*
X902Y109D01*
X902Y107D01*
X900Y107D01*
X900Y105D01*
X898Y105D01*
X898Y103D01*
X894Y103D01*
X894Y101D01*
X892Y101D01*
X892Y99D01*
X888Y99D01*
X888Y97D01*
X882Y97D01*
X882Y95D01*
X872Y95D01*
X872Y93D01*
X962Y93D01*
X962Y95D01*
X954Y95D01*
X954Y97D01*
X948Y97D01*
X948Y99D01*
X944Y99D01*
X944Y101D01*
X940Y101D01*
X940Y103D01*
X938Y103D01*
X938Y105D01*
X936Y105D01*
X936Y107D01*
X932Y107D01*
X932Y111D01*
X930Y111D01*
X930Y113D01*
X928Y113D01*
X928Y115D01*
X908Y115D01*
G37*
D02*
G36*
X1008Y115D02*
X1008Y113D01*
X1006Y113D01*
X1006Y111D01*
X1004Y111D01*
X1004Y109D01*
X1002Y109D01*
X1002Y107D01*
X1000Y107D01*
X1000Y105D01*
X998Y105D01*
X998Y103D01*
X994Y103D01*
X994Y101D01*
X992Y101D01*
X992Y99D01*
X988Y99D01*
X988Y97D01*
X982Y97D01*
X982Y95D01*
X972Y95D01*
X972Y93D01*
X1062Y93D01*
X1062Y95D01*
X1054Y95D01*
X1054Y97D01*
X1048Y97D01*
X1048Y99D01*
X1044Y99D01*
X1044Y101D01*
X1040Y101D01*
X1040Y103D01*
X1038Y103D01*
X1038Y105D01*
X1036Y105D01*
X1036Y107D01*
X1032Y107D01*
X1032Y111D01*
X1030Y111D01*
X1030Y113D01*
X1028Y113D01*
X1028Y115D01*
X1008Y115D01*
G37*
D02*
G36*
X1108Y115D02*
X1108Y113D01*
X1106Y113D01*
X1106Y111D01*
X1104Y111D01*
X1104Y109D01*
X1102Y109D01*
X1102Y107D01*
X1100Y107D01*
X1100Y105D01*
X1098Y105D01*
X1098Y103D01*
X1094Y103D01*
X1094Y101D01*
X1092Y101D01*
X1092Y99D01*
X1088Y99D01*
X1088Y97D01*
X1082Y97D01*
X1082Y95D01*
X1072Y95D01*
X1072Y93D01*
X1162Y93D01*
X1162Y95D01*
X1154Y95D01*
X1154Y97D01*
X1148Y97D01*
X1148Y99D01*
X1144Y99D01*
X1144Y101D01*
X1140Y101D01*
X1140Y103D01*
X1138Y103D01*
X1138Y105D01*
X1136Y105D01*
X1136Y107D01*
X1132Y107D01*
X1132Y111D01*
X1130Y111D01*
X1130Y113D01*
X1128Y113D01*
X1128Y115D01*
X1108Y115D01*
G37*
D02*
G36*
X1208Y115D02*
X1208Y113D01*
X1206Y113D01*
X1206Y111D01*
X1204Y111D01*
X1204Y109D01*
X1202Y109D01*
X1202Y107D01*
X1200Y107D01*
X1200Y105D01*
X1198Y105D01*
X1198Y103D01*
X1194Y103D01*
X1194Y101D01*
X1192Y101D01*
X1192Y99D01*
X1188Y99D01*
X1188Y97D01*
X1182Y97D01*
X1182Y95D01*
X1172Y95D01*
X1172Y93D01*
X1262Y93D01*
X1262Y95D01*
X1254Y95D01*
X1254Y97D01*
X1248Y97D01*
X1248Y99D01*
X1244Y99D01*
X1244Y101D01*
X1240Y101D01*
X1240Y103D01*
X1238Y103D01*
X1238Y105D01*
X1236Y105D01*
X1236Y107D01*
X1232Y107D01*
X1232Y111D01*
X1230Y111D01*
X1230Y113D01*
X1228Y113D01*
X1228Y115D01*
X1208Y115D01*
G37*
D02*
G36*
X1308Y115D02*
X1308Y113D01*
X1306Y113D01*
X1306Y111D01*
X1304Y111D01*
X1304Y109D01*
X1302Y109D01*
X1302Y107D01*
X1300Y107D01*
X1300Y105D01*
X1298Y105D01*
X1298Y103D01*
X1294Y103D01*
X1294Y101D01*
X1292Y101D01*
X1292Y99D01*
X1288Y99D01*
X1288Y97D01*
X1282Y97D01*
X1282Y95D01*
X1272Y95D01*
X1272Y93D01*
X1362Y93D01*
X1362Y95D01*
X1354Y95D01*
X1354Y97D01*
X1348Y97D01*
X1348Y99D01*
X1344Y99D01*
X1344Y101D01*
X1340Y101D01*
X1340Y103D01*
X1338Y103D01*
X1338Y105D01*
X1336Y105D01*
X1336Y107D01*
X1332Y107D01*
X1332Y111D01*
X1330Y111D01*
X1330Y113D01*
X1328Y113D01*
X1328Y115D01*
X1308Y115D01*
G37*
D02*
G36*
X1404Y111D02*
X1404Y109D01*
X2422Y109D01*
X2422Y111D01*
X1404Y111D01*
G37*
D02*
G36*
X1404Y111D02*
X1404Y109D01*
X2422Y109D01*
X2422Y111D01*
X1404Y111D01*
G37*
D02*
G36*
X1402Y109D02*
X1402Y107D01*
X1400Y107D01*
X1400Y105D01*
X1398Y105D01*
X1398Y103D01*
X1394Y103D01*
X1394Y101D01*
X2452Y101D01*
X2452Y103D01*
X2438Y103D01*
X2438Y105D01*
X2432Y105D01*
X2432Y107D01*
X2426Y107D01*
X2426Y109D01*
X1402Y109D01*
G37*
D02*
G36*
X2486Y109D02*
X2486Y107D01*
X2482Y107D01*
X2482Y105D01*
X2474Y105D01*
X2474Y103D01*
X2460Y103D01*
X2460Y101D01*
X2506Y101D01*
X2506Y109D01*
X2486Y109D01*
G37*
D02*
G36*
X416Y107D02*
X416Y93D01*
X462Y93D01*
X462Y95D01*
X454Y95D01*
X454Y97D01*
X448Y97D01*
X448Y99D01*
X444Y99D01*
X444Y101D01*
X440Y101D01*
X440Y103D01*
X438Y103D01*
X438Y105D01*
X436Y105D01*
X436Y107D01*
X416Y107D01*
G37*
D02*
G36*
X1392Y101D02*
X1392Y99D01*
X2506Y99D01*
X2506Y101D01*
X1392Y101D01*
G37*
D02*
G36*
X1392Y101D02*
X1392Y99D01*
X2506Y99D01*
X2506Y101D01*
X1392Y101D01*
G37*
D02*
G36*
X1388Y99D02*
X1388Y97D01*
X1382Y97D01*
X1382Y95D01*
X1372Y95D01*
X1372Y93D01*
X2506Y93D01*
X2506Y99D01*
X1388Y99D01*
G37*
D02*
G36*
X40Y93D02*
X40Y91D01*
X2506Y91D01*
X2506Y93D01*
X40Y93D01*
G37*
D02*
G36*
X40Y93D02*
X40Y91D01*
X2506Y91D01*
X2506Y93D01*
X40Y93D01*
G37*
D02*
G36*
X40Y93D02*
X40Y91D01*
X2506Y91D01*
X2506Y93D01*
X40Y93D01*
G37*
D02*
G36*
X40Y93D02*
X40Y91D01*
X2506Y91D01*
X2506Y93D01*
X40Y93D01*
G37*
D02*
G36*
X40Y93D02*
X40Y91D01*
X2506Y91D01*
X2506Y93D01*
X40Y93D01*
G37*
D02*
G36*
X40Y93D02*
X40Y91D01*
X2506Y91D01*
X2506Y93D01*
X40Y93D01*
G37*
D02*
G36*
X40Y93D02*
X40Y91D01*
X2506Y91D01*
X2506Y93D01*
X40Y93D01*
G37*
D02*
G36*
X40Y93D02*
X40Y91D01*
X2506Y91D01*
X2506Y93D01*
X40Y93D01*
G37*
D02*
G36*
X40Y93D02*
X40Y91D01*
X2506Y91D01*
X2506Y93D01*
X40Y93D01*
G37*
D02*
G36*
X40Y93D02*
X40Y91D01*
X2506Y91D01*
X2506Y93D01*
X40Y93D01*
G37*
D02*
G36*
X40Y93D02*
X40Y91D01*
X2506Y91D01*
X2506Y93D01*
X40Y93D01*
G37*
D02*
G36*
X40Y93D02*
X40Y91D01*
X2506Y91D01*
X2506Y93D01*
X40Y93D01*
G37*
D02*
G36*
X40Y91D02*
X40Y41D01*
X2506Y41D01*
X2506Y91D01*
X40Y91D01*
G37*
D02*
G36*
X342Y2215D02*
X342Y2179D01*
X340Y2179D01*
X340Y2173D01*
X338Y2173D01*
X338Y2169D01*
X336Y2169D01*
X336Y2165D01*
X334Y2165D01*
X334Y2163D01*
X332Y2163D01*
X332Y2161D01*
X330Y2161D01*
X330Y2157D01*
X328Y2157D01*
X328Y2155D01*
X324Y2155D01*
X324Y2153D01*
X322Y2153D01*
X322Y2151D01*
X320Y2151D01*
X320Y2129D01*
X322Y2129D01*
X322Y2127D01*
X324Y2127D01*
X324Y2123D01*
X408Y2123D01*
X408Y2121D01*
X416Y2121D01*
X416Y2119D01*
X418Y2119D01*
X418Y2117D01*
X422Y2117D01*
X422Y2113D01*
X424Y2113D01*
X424Y2111D01*
X426Y2111D01*
X426Y2105D01*
X428Y2105D01*
X428Y353D01*
X974Y353D01*
X974Y351D01*
X978Y351D01*
X978Y349D01*
X980Y349D01*
X980Y347D01*
X982Y347D01*
X982Y345D01*
X984Y345D01*
X984Y343D01*
X986Y343D01*
X986Y337D01*
X988Y337D01*
X988Y207D01*
X990Y207D01*
X990Y185D01*
X994Y185D01*
X994Y183D01*
X996Y183D01*
X996Y181D01*
X998Y181D01*
X998Y179D01*
X1002Y179D01*
X1002Y177D01*
X1004Y177D01*
X1004Y173D01*
X1006Y173D01*
X1006Y171D01*
X1008Y171D01*
X1008Y169D01*
X1028Y169D01*
X1028Y173D01*
X1030Y173D01*
X1030Y175D01*
X1032Y175D01*
X1032Y177D01*
X1034Y177D01*
X1034Y179D01*
X1036Y179D01*
X1036Y181D01*
X1038Y181D01*
X1038Y183D01*
X1042Y183D01*
X1042Y185D01*
X1046Y185D01*
X1046Y211D01*
X1044Y211D01*
X1044Y379D01*
X680Y379D01*
X680Y381D01*
X674Y381D01*
X674Y383D01*
X672Y383D01*
X672Y385D01*
X670Y385D01*
X670Y387D01*
X668Y387D01*
X668Y389D01*
X666Y389D01*
X666Y393D01*
X664Y393D01*
X664Y1981D01*
X666Y1981D01*
X666Y2009D01*
X668Y2009D01*
X668Y2013D01*
X670Y2013D01*
X670Y2015D01*
X672Y2015D01*
X672Y2017D01*
X674Y2017D01*
X674Y2019D01*
X676Y2019D01*
X676Y2021D01*
X682Y2021D01*
X682Y2023D01*
X848Y2023D01*
X848Y2027D01*
X850Y2027D01*
X850Y2029D01*
X852Y2029D01*
X852Y2031D01*
X854Y2031D01*
X854Y2033D01*
X856Y2033D01*
X856Y2035D01*
X858Y2035D01*
X858Y2037D01*
X860Y2037D01*
X860Y2039D01*
X864Y2039D01*
X864Y2041D01*
X868Y2041D01*
X868Y2061D01*
X864Y2061D01*
X864Y2063D01*
X860Y2063D01*
X860Y2065D01*
X858Y2065D01*
X858Y2067D01*
X856Y2067D01*
X856Y2069D01*
X854Y2069D01*
X854Y2071D01*
X852Y2071D01*
X852Y2073D01*
X850Y2073D01*
X850Y2075D01*
X848Y2075D01*
X848Y2079D01*
X846Y2079D01*
X846Y2083D01*
X844Y2083D01*
X844Y2089D01*
X842Y2089D01*
X842Y2113D01*
X844Y2113D01*
X844Y2119D01*
X846Y2119D01*
X846Y2123D01*
X848Y2123D01*
X848Y2127D01*
X850Y2127D01*
X850Y2129D01*
X852Y2129D01*
X852Y2131D01*
X854Y2131D01*
X854Y2153D01*
X852Y2153D01*
X852Y2155D01*
X850Y2155D01*
X850Y2157D01*
X848Y2157D01*
X848Y2159D01*
X846Y2159D01*
X846Y2161D01*
X844Y2161D01*
X844Y2165D01*
X842Y2165D01*
X842Y2169D01*
X840Y2169D01*
X840Y2171D01*
X838Y2171D01*
X838Y2177D01*
X836Y2177D01*
X836Y2185D01*
X834Y2185D01*
X834Y2215D01*
X342Y2215D01*
G37*
D02*
G36*
X710Y1979D02*
X710Y1973D01*
X708Y1973D01*
X708Y561D01*
X870Y561D01*
X870Y563D01*
X862Y563D01*
X862Y565D01*
X856Y565D01*
X856Y567D01*
X852Y567D01*
X852Y569D01*
X848Y569D01*
X848Y571D01*
X846Y571D01*
X846Y573D01*
X844Y573D01*
X844Y575D01*
X842Y575D01*
X842Y577D01*
X840Y577D01*
X840Y579D01*
X838Y579D01*
X838Y581D01*
X836Y581D01*
X836Y585D01*
X834Y585D01*
X834Y587D01*
X832Y587D01*
X832Y591D01*
X830Y591D01*
X830Y597D01*
X828Y597D01*
X828Y607D01*
X826Y607D01*
X826Y615D01*
X828Y615D01*
X828Y625D01*
X830Y625D01*
X830Y631D01*
X832Y631D01*
X832Y635D01*
X834Y635D01*
X834Y637D01*
X836Y637D01*
X836Y641D01*
X838Y641D01*
X838Y643D01*
X840Y643D01*
X840Y645D01*
X842Y645D01*
X842Y747D01*
X858Y747D01*
X858Y767D01*
X856Y767D01*
X856Y769D01*
X854Y769D01*
X854Y771D01*
X852Y771D01*
X852Y773D01*
X850Y773D01*
X850Y775D01*
X848Y775D01*
X848Y779D01*
X846Y779D01*
X846Y783D01*
X844Y783D01*
X844Y789D01*
X842Y789D01*
X842Y813D01*
X844Y813D01*
X844Y819D01*
X846Y819D01*
X846Y823D01*
X848Y823D01*
X848Y827D01*
X850Y827D01*
X850Y829D01*
X852Y829D01*
X852Y831D01*
X854Y831D01*
X854Y833D01*
X856Y833D01*
X856Y835D01*
X858Y835D01*
X858Y837D01*
X860Y837D01*
X860Y839D01*
X864Y839D01*
X864Y841D01*
X868Y841D01*
X868Y861D01*
X864Y861D01*
X864Y863D01*
X860Y863D01*
X860Y865D01*
X858Y865D01*
X858Y867D01*
X856Y867D01*
X856Y869D01*
X854Y869D01*
X854Y871D01*
X852Y871D01*
X852Y873D01*
X850Y873D01*
X850Y875D01*
X848Y875D01*
X848Y879D01*
X846Y879D01*
X846Y883D01*
X844Y883D01*
X844Y889D01*
X842Y889D01*
X842Y913D01*
X844Y913D01*
X844Y919D01*
X846Y919D01*
X846Y923D01*
X848Y923D01*
X848Y927D01*
X850Y927D01*
X850Y929D01*
X852Y929D01*
X852Y931D01*
X854Y931D01*
X854Y933D01*
X856Y933D01*
X856Y935D01*
X858Y935D01*
X858Y937D01*
X860Y937D01*
X860Y939D01*
X864Y939D01*
X864Y941D01*
X868Y941D01*
X868Y961D01*
X864Y961D01*
X864Y963D01*
X860Y963D01*
X860Y965D01*
X858Y965D01*
X858Y967D01*
X856Y967D01*
X856Y969D01*
X854Y969D01*
X854Y971D01*
X852Y971D01*
X852Y973D01*
X850Y973D01*
X850Y975D01*
X848Y975D01*
X848Y979D01*
X846Y979D01*
X846Y983D01*
X844Y983D01*
X844Y989D01*
X842Y989D01*
X842Y1013D01*
X844Y1013D01*
X844Y1019D01*
X846Y1019D01*
X846Y1023D01*
X848Y1023D01*
X848Y1027D01*
X850Y1027D01*
X850Y1029D01*
X852Y1029D01*
X852Y1031D01*
X854Y1031D01*
X854Y1033D01*
X856Y1033D01*
X856Y1035D01*
X858Y1035D01*
X858Y1037D01*
X860Y1037D01*
X860Y1039D01*
X864Y1039D01*
X864Y1041D01*
X868Y1041D01*
X868Y1061D01*
X864Y1061D01*
X864Y1063D01*
X860Y1063D01*
X860Y1065D01*
X858Y1065D01*
X858Y1067D01*
X856Y1067D01*
X856Y1069D01*
X854Y1069D01*
X854Y1071D01*
X852Y1071D01*
X852Y1073D01*
X850Y1073D01*
X850Y1075D01*
X848Y1075D01*
X848Y1079D01*
X846Y1079D01*
X846Y1083D01*
X844Y1083D01*
X844Y1089D01*
X842Y1089D01*
X842Y1113D01*
X844Y1113D01*
X844Y1119D01*
X846Y1119D01*
X846Y1123D01*
X848Y1123D01*
X848Y1127D01*
X850Y1127D01*
X850Y1129D01*
X852Y1129D01*
X852Y1131D01*
X854Y1131D01*
X854Y1133D01*
X856Y1133D01*
X856Y1135D01*
X858Y1135D01*
X858Y1137D01*
X860Y1137D01*
X860Y1139D01*
X864Y1139D01*
X864Y1141D01*
X868Y1141D01*
X868Y1161D01*
X864Y1161D01*
X864Y1163D01*
X860Y1163D01*
X860Y1165D01*
X858Y1165D01*
X858Y1167D01*
X856Y1167D01*
X856Y1169D01*
X854Y1169D01*
X854Y1171D01*
X852Y1171D01*
X852Y1173D01*
X850Y1173D01*
X850Y1175D01*
X848Y1175D01*
X848Y1179D01*
X846Y1179D01*
X846Y1183D01*
X844Y1183D01*
X844Y1189D01*
X842Y1189D01*
X842Y1213D01*
X844Y1213D01*
X844Y1219D01*
X846Y1219D01*
X846Y1223D01*
X848Y1223D01*
X848Y1227D01*
X850Y1227D01*
X850Y1229D01*
X852Y1229D01*
X852Y1231D01*
X854Y1231D01*
X854Y1233D01*
X856Y1233D01*
X856Y1235D01*
X858Y1235D01*
X858Y1237D01*
X860Y1237D01*
X860Y1239D01*
X864Y1239D01*
X864Y1241D01*
X868Y1241D01*
X868Y1261D01*
X864Y1261D01*
X864Y1263D01*
X860Y1263D01*
X860Y1265D01*
X858Y1265D01*
X858Y1267D01*
X856Y1267D01*
X856Y1269D01*
X854Y1269D01*
X854Y1271D01*
X852Y1271D01*
X852Y1273D01*
X850Y1273D01*
X850Y1275D01*
X848Y1275D01*
X848Y1279D01*
X846Y1279D01*
X846Y1283D01*
X844Y1283D01*
X844Y1289D01*
X842Y1289D01*
X842Y1313D01*
X844Y1313D01*
X844Y1319D01*
X846Y1319D01*
X846Y1323D01*
X848Y1323D01*
X848Y1327D01*
X850Y1327D01*
X850Y1329D01*
X852Y1329D01*
X852Y1331D01*
X854Y1331D01*
X854Y1333D01*
X856Y1333D01*
X856Y1335D01*
X858Y1335D01*
X858Y1337D01*
X860Y1337D01*
X860Y1339D01*
X864Y1339D01*
X864Y1341D01*
X868Y1341D01*
X868Y1361D01*
X864Y1361D01*
X864Y1363D01*
X860Y1363D01*
X860Y1365D01*
X858Y1365D01*
X858Y1367D01*
X856Y1367D01*
X856Y1369D01*
X854Y1369D01*
X854Y1371D01*
X852Y1371D01*
X852Y1373D01*
X850Y1373D01*
X850Y1375D01*
X848Y1375D01*
X848Y1379D01*
X846Y1379D01*
X846Y1383D01*
X844Y1383D01*
X844Y1389D01*
X842Y1389D01*
X842Y1413D01*
X844Y1413D01*
X844Y1419D01*
X846Y1419D01*
X846Y1423D01*
X848Y1423D01*
X848Y1427D01*
X850Y1427D01*
X850Y1429D01*
X852Y1429D01*
X852Y1431D01*
X854Y1431D01*
X854Y1433D01*
X856Y1433D01*
X856Y1435D01*
X858Y1435D01*
X858Y1437D01*
X860Y1437D01*
X860Y1439D01*
X864Y1439D01*
X864Y1441D01*
X868Y1441D01*
X868Y1461D01*
X864Y1461D01*
X864Y1463D01*
X860Y1463D01*
X860Y1465D01*
X858Y1465D01*
X858Y1467D01*
X856Y1467D01*
X856Y1469D01*
X854Y1469D01*
X854Y1471D01*
X852Y1471D01*
X852Y1473D01*
X850Y1473D01*
X850Y1475D01*
X848Y1475D01*
X848Y1479D01*
X846Y1479D01*
X846Y1483D01*
X844Y1483D01*
X844Y1489D01*
X842Y1489D01*
X842Y1513D01*
X844Y1513D01*
X844Y1519D01*
X846Y1519D01*
X846Y1523D01*
X848Y1523D01*
X848Y1527D01*
X850Y1527D01*
X850Y1529D01*
X852Y1529D01*
X852Y1531D01*
X854Y1531D01*
X854Y1533D01*
X856Y1533D01*
X856Y1535D01*
X858Y1535D01*
X858Y1537D01*
X860Y1537D01*
X860Y1539D01*
X864Y1539D01*
X864Y1541D01*
X868Y1541D01*
X868Y1561D01*
X864Y1561D01*
X864Y1563D01*
X860Y1563D01*
X860Y1565D01*
X858Y1565D01*
X858Y1567D01*
X856Y1567D01*
X856Y1569D01*
X854Y1569D01*
X854Y1571D01*
X852Y1571D01*
X852Y1573D01*
X850Y1573D01*
X850Y1575D01*
X848Y1575D01*
X848Y1579D01*
X846Y1579D01*
X846Y1583D01*
X844Y1583D01*
X844Y1589D01*
X842Y1589D01*
X842Y1613D01*
X844Y1613D01*
X844Y1619D01*
X846Y1619D01*
X846Y1623D01*
X848Y1623D01*
X848Y1627D01*
X850Y1627D01*
X850Y1629D01*
X852Y1629D01*
X852Y1631D01*
X854Y1631D01*
X854Y1633D01*
X856Y1633D01*
X856Y1635D01*
X858Y1635D01*
X858Y1637D01*
X860Y1637D01*
X860Y1639D01*
X864Y1639D01*
X864Y1641D01*
X868Y1641D01*
X868Y1661D01*
X864Y1661D01*
X864Y1663D01*
X860Y1663D01*
X860Y1665D01*
X858Y1665D01*
X858Y1667D01*
X856Y1667D01*
X856Y1669D01*
X854Y1669D01*
X854Y1671D01*
X852Y1671D01*
X852Y1673D01*
X850Y1673D01*
X850Y1675D01*
X848Y1675D01*
X848Y1679D01*
X846Y1679D01*
X846Y1683D01*
X844Y1683D01*
X844Y1689D01*
X842Y1689D01*
X842Y1713D01*
X844Y1713D01*
X844Y1719D01*
X846Y1719D01*
X846Y1723D01*
X848Y1723D01*
X848Y1727D01*
X850Y1727D01*
X850Y1729D01*
X852Y1729D01*
X852Y1731D01*
X854Y1731D01*
X854Y1733D01*
X856Y1733D01*
X856Y1735D01*
X858Y1735D01*
X858Y1737D01*
X860Y1737D01*
X860Y1739D01*
X864Y1739D01*
X864Y1741D01*
X868Y1741D01*
X868Y1761D01*
X864Y1761D01*
X864Y1763D01*
X860Y1763D01*
X860Y1765D01*
X858Y1765D01*
X858Y1767D01*
X856Y1767D01*
X856Y1769D01*
X854Y1769D01*
X854Y1771D01*
X852Y1771D01*
X852Y1773D01*
X850Y1773D01*
X850Y1775D01*
X848Y1775D01*
X848Y1779D01*
X846Y1779D01*
X846Y1783D01*
X844Y1783D01*
X844Y1789D01*
X842Y1789D01*
X842Y1813D01*
X844Y1813D01*
X844Y1819D01*
X846Y1819D01*
X846Y1823D01*
X848Y1823D01*
X848Y1827D01*
X850Y1827D01*
X850Y1829D01*
X852Y1829D01*
X852Y1831D01*
X854Y1831D01*
X854Y1833D01*
X856Y1833D01*
X856Y1835D01*
X858Y1835D01*
X858Y1837D01*
X860Y1837D01*
X860Y1839D01*
X864Y1839D01*
X864Y1841D01*
X868Y1841D01*
X868Y1861D01*
X864Y1861D01*
X864Y1863D01*
X860Y1863D01*
X860Y1865D01*
X858Y1865D01*
X858Y1867D01*
X856Y1867D01*
X856Y1869D01*
X854Y1869D01*
X854Y1871D01*
X852Y1871D01*
X852Y1873D01*
X850Y1873D01*
X850Y1875D01*
X848Y1875D01*
X848Y1879D01*
X846Y1879D01*
X846Y1883D01*
X844Y1883D01*
X844Y1889D01*
X842Y1889D01*
X842Y1913D01*
X844Y1913D01*
X844Y1919D01*
X846Y1919D01*
X846Y1923D01*
X848Y1923D01*
X848Y1927D01*
X850Y1927D01*
X850Y1929D01*
X852Y1929D01*
X852Y1931D01*
X854Y1931D01*
X854Y1933D01*
X856Y1933D01*
X856Y1935D01*
X858Y1935D01*
X858Y1937D01*
X860Y1937D01*
X860Y1939D01*
X864Y1939D01*
X864Y1941D01*
X868Y1941D01*
X868Y1961D01*
X864Y1961D01*
X864Y1963D01*
X860Y1963D01*
X860Y1965D01*
X858Y1965D01*
X858Y1967D01*
X856Y1967D01*
X856Y1969D01*
X854Y1969D01*
X854Y1971D01*
X852Y1971D01*
X852Y1973D01*
X850Y1973D01*
X850Y1975D01*
X848Y1975D01*
X848Y1979D01*
X710Y1979D01*
G37*
D02*
G36*
X998Y1539D02*
X998Y1515D01*
X1148Y1515D01*
X1148Y1517D01*
X1142Y1517D01*
X1142Y1519D01*
X1138Y1519D01*
X1138Y1521D01*
X1134Y1521D01*
X1134Y1523D01*
X1132Y1523D01*
X1132Y1525D01*
X1128Y1525D01*
X1128Y1527D01*
X1126Y1527D01*
X1126Y1529D01*
X1124Y1529D01*
X1124Y1531D01*
X1122Y1531D01*
X1122Y1535D01*
X1120Y1535D01*
X1120Y1537D01*
X1118Y1537D01*
X1118Y1539D01*
X998Y1539D01*
G37*
D02*
G36*
X1194Y1531D02*
X1194Y1529D01*
X1192Y1529D01*
X1192Y1527D01*
X1190Y1527D01*
X1190Y1525D01*
X1188Y1525D01*
X1188Y1523D01*
X1186Y1523D01*
X1186Y1521D01*
X1182Y1521D01*
X1182Y1519D01*
X1178Y1519D01*
X1178Y1517D01*
X1172Y1517D01*
X1172Y1515D01*
X1214Y1515D01*
X1214Y1531D01*
X1194Y1531D01*
G37*
D02*
G36*
X998Y1515D02*
X998Y1513D01*
X1214Y1513D01*
X1214Y1515D01*
X998Y1515D01*
G37*
D02*
G36*
X998Y1515D02*
X998Y1513D01*
X1214Y1513D01*
X1214Y1515D01*
X998Y1515D01*
G37*
D02*
G36*
X998Y1513D02*
X998Y1095D01*
X996Y1095D01*
X996Y1089D01*
X994Y1089D01*
X994Y1087D01*
X992Y1087D01*
X992Y1085D01*
X990Y1085D01*
X990Y1083D01*
X988Y1083D01*
X988Y1081D01*
X984Y1081D01*
X984Y1079D01*
X924Y1079D01*
X924Y1075D01*
X922Y1075D01*
X922Y1073D01*
X920Y1073D01*
X920Y1071D01*
X918Y1071D01*
X918Y1069D01*
X916Y1069D01*
X916Y1067D01*
X914Y1067D01*
X914Y1065D01*
X912Y1065D01*
X912Y1063D01*
X908Y1063D01*
X908Y1061D01*
X904Y1061D01*
X904Y1041D01*
X908Y1041D01*
X908Y1039D01*
X912Y1039D01*
X912Y1037D01*
X914Y1037D01*
X914Y1035D01*
X916Y1035D01*
X916Y1033D01*
X918Y1033D01*
X918Y1031D01*
X920Y1031D01*
X920Y1029D01*
X922Y1029D01*
X922Y1027D01*
X924Y1027D01*
X924Y1023D01*
X926Y1023D01*
X926Y1019D01*
X928Y1019D01*
X928Y1013D01*
X930Y1013D01*
X930Y1003D01*
X932Y1003D01*
X932Y999D01*
X930Y999D01*
X930Y989D01*
X928Y989D01*
X928Y983D01*
X926Y983D01*
X926Y979D01*
X924Y979D01*
X924Y975D01*
X922Y975D01*
X922Y973D01*
X920Y973D01*
X920Y971D01*
X918Y971D01*
X918Y969D01*
X916Y969D01*
X916Y967D01*
X914Y967D01*
X914Y965D01*
X912Y965D01*
X912Y963D01*
X908Y963D01*
X908Y961D01*
X904Y961D01*
X904Y941D01*
X908Y941D01*
X908Y939D01*
X912Y939D01*
X912Y937D01*
X914Y937D01*
X914Y935D01*
X916Y935D01*
X916Y933D01*
X918Y933D01*
X918Y931D01*
X920Y931D01*
X920Y929D01*
X922Y929D01*
X922Y927D01*
X924Y927D01*
X924Y923D01*
X926Y923D01*
X926Y919D01*
X928Y919D01*
X928Y913D01*
X930Y913D01*
X930Y903D01*
X932Y903D01*
X932Y899D01*
X930Y899D01*
X930Y889D01*
X928Y889D01*
X928Y883D01*
X926Y883D01*
X926Y879D01*
X924Y879D01*
X924Y875D01*
X922Y875D01*
X922Y873D01*
X920Y873D01*
X920Y871D01*
X918Y871D01*
X918Y869D01*
X916Y869D01*
X916Y867D01*
X914Y867D01*
X914Y865D01*
X912Y865D01*
X912Y863D01*
X908Y863D01*
X908Y861D01*
X904Y861D01*
X904Y841D01*
X908Y841D01*
X908Y839D01*
X912Y839D01*
X912Y837D01*
X914Y837D01*
X914Y835D01*
X916Y835D01*
X916Y833D01*
X918Y833D01*
X918Y831D01*
X920Y831D01*
X920Y829D01*
X922Y829D01*
X922Y827D01*
X924Y827D01*
X924Y823D01*
X926Y823D01*
X926Y819D01*
X928Y819D01*
X928Y813D01*
X930Y813D01*
X930Y803D01*
X932Y803D01*
X932Y799D01*
X930Y799D01*
X930Y789D01*
X928Y789D01*
X928Y783D01*
X926Y783D01*
X926Y779D01*
X924Y779D01*
X924Y775D01*
X922Y775D01*
X922Y773D01*
X920Y773D01*
X920Y771D01*
X918Y771D01*
X918Y769D01*
X916Y769D01*
X916Y767D01*
X914Y767D01*
X914Y747D01*
X930Y747D01*
X930Y745D01*
X932Y745D01*
X932Y657D01*
X918Y657D01*
X918Y635D01*
X920Y635D01*
X920Y631D01*
X922Y631D01*
X922Y625D01*
X924Y625D01*
X924Y617D01*
X926Y617D01*
X926Y605D01*
X924Y605D01*
X924Y597D01*
X922Y597D01*
X922Y591D01*
X920Y591D01*
X920Y587D01*
X918Y587D01*
X918Y583D01*
X916Y583D01*
X916Y581D01*
X914Y581D01*
X914Y579D01*
X912Y579D01*
X912Y577D01*
X910Y577D01*
X910Y575D01*
X908Y575D01*
X908Y573D01*
X906Y573D01*
X906Y571D01*
X904Y571D01*
X904Y569D01*
X900Y569D01*
X900Y567D01*
X896Y567D01*
X896Y565D01*
X890Y565D01*
X890Y563D01*
X882Y563D01*
X882Y561D01*
X1024Y561D01*
X1024Y1067D01*
X1026Y1067D01*
X1026Y1071D01*
X1028Y1071D01*
X1028Y1075D01*
X1030Y1075D01*
X1030Y1077D01*
X1032Y1077D01*
X1032Y1079D01*
X1034Y1079D01*
X1034Y1081D01*
X1038Y1081D01*
X1038Y1083D01*
X1214Y1083D01*
X1214Y1513D01*
X998Y1513D01*
G37*
D02*
G36*
X708Y561D02*
X708Y559D01*
X1024Y559D01*
X1024Y561D01*
X708Y561D01*
G37*
D02*
G36*
X708Y561D02*
X708Y559D01*
X1024Y559D01*
X1024Y561D01*
X708Y561D01*
G37*
D02*
G36*
X708Y559D02*
X708Y423D01*
X1034Y423D01*
X1034Y443D01*
X1032Y443D01*
X1032Y445D01*
X1030Y445D01*
X1030Y447D01*
X1028Y447D01*
X1028Y449D01*
X1026Y449D01*
X1026Y453D01*
X1024Y453D01*
X1024Y559D01*
X708Y559D01*
G37*
D02*
G36*
X924Y1879D02*
X924Y1875D01*
X922Y1875D01*
X922Y1873D01*
X920Y1873D01*
X920Y1871D01*
X918Y1871D01*
X918Y1869D01*
X916Y1869D01*
X916Y1867D01*
X914Y1867D01*
X914Y1865D01*
X912Y1865D01*
X912Y1863D01*
X908Y1863D01*
X908Y1861D01*
X904Y1861D01*
X904Y1841D01*
X908Y1841D01*
X908Y1839D01*
X912Y1839D01*
X912Y1837D01*
X914Y1837D01*
X914Y1835D01*
X916Y1835D01*
X916Y1833D01*
X918Y1833D01*
X918Y1831D01*
X920Y1831D01*
X920Y1829D01*
X922Y1829D01*
X922Y1827D01*
X924Y1827D01*
X924Y1823D01*
X1014Y1823D01*
X1014Y1821D01*
X1260Y1821D01*
X1260Y1819D01*
X1326Y1819D01*
X1326Y1817D01*
X1330Y1817D01*
X1330Y1815D01*
X1332Y1815D01*
X1332Y1813D01*
X1334Y1813D01*
X1334Y1811D01*
X1336Y1811D01*
X1336Y1807D01*
X1338Y1807D01*
X1338Y1803D01*
X1340Y1803D01*
X1340Y1465D01*
X1338Y1465D01*
X1338Y935D01*
X1336Y935D01*
X1336Y929D01*
X1334Y929D01*
X1334Y927D01*
X1332Y927D01*
X1332Y925D01*
X1330Y925D01*
X1330Y923D01*
X1328Y923D01*
X1328Y921D01*
X1324Y921D01*
X1324Y919D01*
X1168Y919D01*
X1168Y533D01*
X1236Y533D01*
X1236Y553D01*
X1234Y553D01*
X1234Y555D01*
X1230Y555D01*
X1230Y559D01*
X1228Y559D01*
X1228Y561D01*
X1226Y561D01*
X1226Y565D01*
X1224Y565D01*
X1224Y829D01*
X1226Y829D01*
X1226Y833D01*
X1228Y833D01*
X1228Y835D01*
X1230Y835D01*
X1230Y837D01*
X1232Y837D01*
X1232Y839D01*
X1234Y839D01*
X1234Y841D01*
X1238Y841D01*
X1238Y843D01*
X1384Y843D01*
X1384Y1879D01*
X924Y1879D01*
G37*
D02*
G36*
X924Y1779D02*
X924Y1775D01*
X922Y1775D01*
X922Y1773D01*
X920Y1773D01*
X920Y1771D01*
X918Y1771D01*
X918Y1769D01*
X916Y1769D01*
X916Y1767D01*
X914Y1767D01*
X914Y1765D01*
X912Y1765D01*
X912Y1763D01*
X908Y1763D01*
X908Y1761D01*
X904Y1761D01*
X904Y1741D01*
X908Y1741D01*
X908Y1739D01*
X912Y1739D01*
X912Y1737D01*
X914Y1737D01*
X914Y1735D01*
X916Y1735D01*
X916Y1733D01*
X918Y1733D01*
X918Y1731D01*
X920Y1731D01*
X920Y1729D01*
X922Y1729D01*
X922Y1727D01*
X924Y1727D01*
X924Y1723D01*
X1244Y1723D01*
X1244Y1721D01*
X1248Y1721D01*
X1248Y1719D01*
X1250Y1719D01*
X1250Y1717D01*
X1252Y1717D01*
X1252Y1715D01*
X1254Y1715D01*
X1254Y1713D01*
X1256Y1713D01*
X1256Y1707D01*
X1258Y1707D01*
X1258Y1055D01*
X1256Y1055D01*
X1256Y1051D01*
X1254Y1051D01*
X1254Y1047D01*
X1252Y1047D01*
X1252Y1045D01*
X1250Y1045D01*
X1250Y1043D01*
X1246Y1043D01*
X1246Y1041D01*
X1240Y1041D01*
X1240Y1039D01*
X1068Y1039D01*
X1068Y483D01*
X1126Y483D01*
X1126Y507D01*
X1124Y507D01*
X1124Y947D01*
X1126Y947D01*
X1126Y951D01*
X1128Y951D01*
X1128Y955D01*
X1130Y955D01*
X1130Y957D01*
X1132Y957D01*
X1132Y959D01*
X1136Y959D01*
X1136Y961D01*
X1142Y961D01*
X1142Y963D01*
X1294Y963D01*
X1294Y1471D01*
X1296Y1471D01*
X1296Y1775D01*
X1260Y1775D01*
X1260Y1777D01*
X1012Y1777D01*
X1012Y1779D01*
X924Y1779D01*
G37*
D02*
G36*
X924Y1679D02*
X924Y1675D01*
X922Y1675D01*
X922Y1673D01*
X920Y1673D01*
X920Y1671D01*
X918Y1671D01*
X918Y1669D01*
X916Y1669D01*
X916Y1667D01*
X914Y1667D01*
X914Y1665D01*
X912Y1665D01*
X912Y1663D01*
X908Y1663D01*
X908Y1661D01*
X904Y1661D01*
X904Y1641D01*
X908Y1641D01*
X908Y1639D01*
X912Y1639D01*
X912Y1637D01*
X914Y1637D01*
X914Y1635D01*
X916Y1635D01*
X916Y1633D01*
X918Y1633D01*
X918Y1631D01*
X920Y1631D01*
X920Y1629D01*
X922Y1629D01*
X922Y1627D01*
X924Y1627D01*
X924Y1623D01*
X926Y1623D01*
X926Y1619D01*
X928Y1619D01*
X928Y1613D01*
X930Y1613D01*
X930Y1609D01*
X1170Y1609D01*
X1170Y1607D01*
X1176Y1607D01*
X1176Y1605D01*
X1180Y1605D01*
X1180Y1603D01*
X1184Y1603D01*
X1184Y1601D01*
X1188Y1601D01*
X1188Y1599D01*
X1190Y1599D01*
X1190Y1597D01*
X1192Y1597D01*
X1192Y1595D01*
X1194Y1595D01*
X1194Y1593D01*
X1214Y1593D01*
X1214Y1679D01*
X924Y1679D01*
G37*
D02*
G36*
X930Y1609D02*
X930Y1603D01*
X932Y1603D01*
X932Y1599D01*
X930Y1599D01*
X930Y1589D01*
X928Y1589D01*
X928Y1583D01*
X926Y1583D01*
X926Y1579D01*
X924Y1579D01*
X924Y1575D01*
X922Y1575D01*
X922Y1573D01*
X920Y1573D01*
X920Y1571D01*
X918Y1571D01*
X918Y1569D01*
X916Y1569D01*
X916Y1567D01*
X914Y1567D01*
X914Y1565D01*
X912Y1565D01*
X912Y1563D01*
X908Y1563D01*
X908Y1561D01*
X904Y1561D01*
X904Y1541D01*
X908Y1541D01*
X908Y1539D01*
X912Y1539D01*
X912Y1537D01*
X914Y1537D01*
X914Y1535D01*
X916Y1535D01*
X916Y1533D01*
X918Y1533D01*
X918Y1531D01*
X920Y1531D01*
X920Y1529D01*
X922Y1529D01*
X922Y1527D01*
X924Y1527D01*
X924Y1523D01*
X926Y1523D01*
X926Y1519D01*
X928Y1519D01*
X928Y1513D01*
X930Y1513D01*
X930Y1503D01*
X932Y1503D01*
X932Y1499D01*
X930Y1499D01*
X930Y1489D01*
X928Y1489D01*
X928Y1483D01*
X926Y1483D01*
X926Y1479D01*
X924Y1479D01*
X924Y1475D01*
X922Y1475D01*
X922Y1473D01*
X920Y1473D01*
X920Y1471D01*
X918Y1471D01*
X918Y1469D01*
X916Y1469D01*
X916Y1467D01*
X914Y1467D01*
X914Y1465D01*
X912Y1465D01*
X912Y1463D01*
X908Y1463D01*
X908Y1461D01*
X904Y1461D01*
X904Y1441D01*
X908Y1441D01*
X908Y1439D01*
X912Y1439D01*
X912Y1437D01*
X914Y1437D01*
X914Y1435D01*
X916Y1435D01*
X916Y1433D01*
X918Y1433D01*
X918Y1431D01*
X920Y1431D01*
X920Y1429D01*
X922Y1429D01*
X922Y1427D01*
X924Y1427D01*
X924Y1423D01*
X926Y1423D01*
X926Y1419D01*
X928Y1419D01*
X928Y1413D01*
X930Y1413D01*
X930Y1403D01*
X932Y1403D01*
X932Y1399D01*
X930Y1399D01*
X930Y1389D01*
X928Y1389D01*
X928Y1383D01*
X926Y1383D01*
X926Y1379D01*
X924Y1379D01*
X924Y1375D01*
X922Y1375D01*
X922Y1373D01*
X920Y1373D01*
X920Y1371D01*
X918Y1371D01*
X918Y1369D01*
X916Y1369D01*
X916Y1367D01*
X914Y1367D01*
X914Y1365D01*
X912Y1365D01*
X912Y1363D01*
X908Y1363D01*
X908Y1361D01*
X904Y1361D01*
X904Y1341D01*
X908Y1341D01*
X908Y1339D01*
X912Y1339D01*
X912Y1337D01*
X914Y1337D01*
X914Y1335D01*
X916Y1335D01*
X916Y1333D01*
X918Y1333D01*
X918Y1331D01*
X920Y1331D01*
X920Y1329D01*
X922Y1329D01*
X922Y1327D01*
X924Y1327D01*
X924Y1323D01*
X926Y1323D01*
X926Y1319D01*
X928Y1319D01*
X928Y1313D01*
X930Y1313D01*
X930Y1303D01*
X932Y1303D01*
X932Y1299D01*
X930Y1299D01*
X930Y1289D01*
X928Y1289D01*
X928Y1283D01*
X926Y1283D01*
X926Y1279D01*
X924Y1279D01*
X924Y1275D01*
X922Y1275D01*
X922Y1273D01*
X920Y1273D01*
X920Y1271D01*
X918Y1271D01*
X918Y1269D01*
X916Y1269D01*
X916Y1267D01*
X914Y1267D01*
X914Y1265D01*
X912Y1265D01*
X912Y1263D01*
X908Y1263D01*
X908Y1261D01*
X904Y1261D01*
X904Y1241D01*
X908Y1241D01*
X908Y1239D01*
X912Y1239D01*
X912Y1237D01*
X914Y1237D01*
X914Y1235D01*
X916Y1235D01*
X916Y1233D01*
X918Y1233D01*
X918Y1231D01*
X920Y1231D01*
X920Y1229D01*
X922Y1229D01*
X922Y1227D01*
X924Y1227D01*
X924Y1223D01*
X926Y1223D01*
X926Y1219D01*
X928Y1219D01*
X928Y1213D01*
X930Y1213D01*
X930Y1203D01*
X932Y1203D01*
X932Y1199D01*
X930Y1199D01*
X930Y1189D01*
X928Y1189D01*
X928Y1183D01*
X926Y1183D01*
X926Y1179D01*
X924Y1179D01*
X924Y1175D01*
X922Y1175D01*
X922Y1173D01*
X920Y1173D01*
X920Y1171D01*
X918Y1171D01*
X918Y1169D01*
X916Y1169D01*
X916Y1167D01*
X914Y1167D01*
X914Y1165D01*
X912Y1165D01*
X912Y1163D01*
X908Y1163D01*
X908Y1161D01*
X904Y1161D01*
X904Y1141D01*
X908Y1141D01*
X908Y1139D01*
X912Y1139D01*
X912Y1137D01*
X914Y1137D01*
X914Y1135D01*
X916Y1135D01*
X916Y1133D01*
X918Y1133D01*
X918Y1131D01*
X920Y1131D01*
X920Y1129D01*
X922Y1129D01*
X922Y1127D01*
X924Y1127D01*
X924Y1123D01*
X954Y1123D01*
X954Y1567D01*
X956Y1567D01*
X956Y1573D01*
X958Y1573D01*
X958Y1575D01*
X960Y1575D01*
X960Y1577D01*
X962Y1577D01*
X962Y1579D01*
X964Y1579D01*
X964Y1581D01*
X970Y1581D01*
X970Y1583D01*
X1118Y1583D01*
X1118Y1585D01*
X1120Y1585D01*
X1120Y1589D01*
X1122Y1589D01*
X1122Y1591D01*
X1124Y1591D01*
X1124Y1595D01*
X1126Y1595D01*
X1126Y1597D01*
X1130Y1597D01*
X1130Y1599D01*
X1132Y1599D01*
X1132Y1601D01*
X1134Y1601D01*
X1134Y1603D01*
X1138Y1603D01*
X1138Y1605D01*
X1142Y1605D01*
X1142Y1607D01*
X1150Y1607D01*
X1150Y1609D01*
X930Y1609D01*
G37*
D02*
G36*
X1276Y549D02*
X1276Y529D01*
X1280Y529D01*
X1280Y527D01*
X1282Y527D01*
X1282Y525D01*
X1284Y525D01*
X1284Y521D01*
X1286Y521D01*
X1286Y517D01*
X1288Y517D01*
X1288Y267D01*
X1290Y267D01*
X1290Y185D01*
X1294Y185D01*
X1294Y183D01*
X1296Y183D01*
X1296Y181D01*
X1298Y181D01*
X1298Y179D01*
X1302Y179D01*
X1302Y177D01*
X1304Y177D01*
X1304Y173D01*
X1306Y173D01*
X1306Y171D01*
X1308Y171D01*
X1308Y169D01*
X1328Y169D01*
X1328Y173D01*
X1330Y173D01*
X1330Y175D01*
X1332Y175D01*
X1332Y177D01*
X1334Y177D01*
X1334Y179D01*
X1336Y179D01*
X1336Y181D01*
X1338Y181D01*
X1338Y183D01*
X1342Y183D01*
X1342Y185D01*
X1346Y185D01*
X1346Y289D01*
X1344Y289D01*
X1344Y549D01*
X1276Y549D01*
G37*
D02*
G36*
X1186Y489D02*
X1186Y469D01*
X1188Y469D01*
X1188Y299D01*
X1190Y299D01*
X1190Y185D01*
X1194Y185D01*
X1194Y183D01*
X1196Y183D01*
X1196Y181D01*
X1198Y181D01*
X1198Y179D01*
X1202Y179D01*
X1202Y177D01*
X1204Y177D01*
X1204Y173D01*
X1206Y173D01*
X1206Y171D01*
X1208Y171D01*
X1208Y169D01*
X1228Y169D01*
X1228Y173D01*
X1230Y173D01*
X1230Y175D01*
X1232Y175D01*
X1232Y177D01*
X1234Y177D01*
X1234Y179D01*
X1236Y179D01*
X1236Y181D01*
X1238Y181D01*
X1238Y183D01*
X1242Y183D01*
X1242Y185D01*
X1246Y185D01*
X1246Y263D01*
X1244Y263D01*
X1244Y489D01*
X1186Y489D01*
G37*
D02*
G36*
X1076Y439D02*
X1076Y419D01*
X1080Y419D01*
X1080Y417D01*
X1082Y417D01*
X1082Y415D01*
X1084Y415D01*
X1084Y411D01*
X1086Y411D01*
X1086Y405D01*
X1088Y405D01*
X1088Y213D01*
X1090Y213D01*
X1090Y185D01*
X1094Y185D01*
X1094Y183D01*
X1096Y183D01*
X1096Y181D01*
X1098Y181D01*
X1098Y179D01*
X1102Y179D01*
X1102Y177D01*
X1104Y177D01*
X1104Y173D01*
X1106Y173D01*
X1106Y171D01*
X1108Y171D01*
X1108Y169D01*
X1128Y169D01*
X1128Y173D01*
X1130Y173D01*
X1130Y175D01*
X1132Y175D01*
X1132Y177D01*
X1134Y177D01*
X1134Y179D01*
X1136Y179D01*
X1136Y181D01*
X1138Y181D01*
X1138Y183D01*
X1142Y183D01*
X1142Y185D01*
X1146Y185D01*
X1146Y295D01*
X1144Y295D01*
X1144Y439D01*
X1076Y439D01*
G37*
D02*
G36*
X543Y195D02*
X588Y195D01*
X588Y165D01*
X543Y165D01*
X543Y195D01*
G37*
D02*
G36*
X543Y127D02*
X588Y127D01*
X588Y93D01*
X543Y93D01*
X543Y127D01*
G37*
D02*
G36*
X443Y195D02*
X488Y195D01*
X488Y165D01*
X443Y165D01*
X443Y195D01*
G37*
D02*
G36*
X443Y127D02*
X488Y127D01*
X488Y93D01*
X443Y93D01*
X443Y127D01*
G37*
D02*
G36*
X1664Y1565D02*
X1707Y1565D01*
X1707Y1533D01*
X1664Y1533D01*
X1664Y1565D01*
G37*
D02*
G36*
X238Y824D02*
X268Y824D01*
X268Y783D01*
X238Y783D01*
X238Y824D01*
G37*
D02*
G36*
X1764Y1307D02*
X1811Y1307D01*
X1811Y1275D01*
X1764Y1275D01*
X1764Y1307D01*
G37*
D02*
G36*
X1734Y1351D02*
X1766Y1351D01*
X1766Y1304D01*
X1734Y1304D01*
X1734Y1351D01*
G37*
D02*
G36*
X1808Y1351D02*
X1840Y1351D01*
X1840Y1304D01*
X1808Y1304D01*
X1808Y1351D01*
G37*
D02*
G36*
X838Y1024D02*
X866Y1024D01*
X866Y983D01*
X838Y983D01*
X838Y1024D01*
G37*
D02*
G36*
X900Y1024D02*
X932Y1024D01*
X932Y983D01*
X900Y983D01*
X900Y1024D01*
G37*
D02*
G36*
X1752Y778D02*
X1780Y778D01*
X1780Y737D01*
X1752Y737D01*
X1752Y778D01*
G37*
D02*
G36*
X1818Y778D02*
X1846Y778D01*
X1846Y737D01*
X1818Y737D01*
X1818Y778D01*
G37*
D02*
G54D24*
X1463Y2255D02*
X1486Y2255D01*
X1463Y2254D02*
X1486Y2254D01*
X1463Y2253D02*
X1486Y2253D01*
X1463Y2252D02*
X1486Y2252D01*
X1463Y2251D02*
X1486Y2251D01*
X1463Y2250D02*
X1486Y2250D01*
X1463Y2249D02*
X1486Y2249D01*
X1463Y2248D02*
X1486Y2248D01*
X1463Y2247D02*
X1486Y2247D01*
X1463Y2246D02*
X1486Y2246D01*
X1463Y2245D02*
X1486Y2245D01*
X1463Y2244D02*
X1486Y2244D01*
X1463Y2243D02*
X1486Y2243D01*
X1463Y2242D02*
X1486Y2242D01*
X1463Y2241D02*
X1486Y2241D01*
X1463Y2240D02*
X1486Y2240D01*
X1463Y2239D02*
X1486Y2239D01*
X1463Y2238D02*
X1486Y2238D01*
X1463Y2237D02*
X1486Y2237D01*
X1463Y2236D02*
X1486Y2236D01*
X1463Y2235D02*
X1486Y2235D01*
X1463Y2234D02*
X1486Y2234D01*
X1463Y2233D02*
X1486Y2233D01*
X1463Y2232D02*
X1486Y2232D01*
X1463Y2231D02*
X1486Y2231D01*
X1463Y2230D02*
X1486Y2230D01*
X1463Y2229D02*
X1486Y2229D01*
X1463Y2228D02*
X1486Y2228D01*
X1463Y2227D02*
X1486Y2227D01*
X1463Y2226D02*
X1486Y2226D01*
X1463Y2225D02*
X1486Y2225D01*
X1463Y2224D02*
X1486Y2224D01*
X1463Y2223D02*
X1486Y2223D01*
X1463Y2222D02*
X1486Y2222D01*
X1463Y2221D02*
X1486Y2221D01*
X1463Y2220D02*
X1486Y2220D01*
X1463Y2219D02*
X1486Y2219D01*
X1463Y2218D02*
X1486Y2218D01*
X1463Y2217D02*
X1486Y2217D01*
X1463Y2216D02*
X1486Y2216D01*
X1463Y2215D02*
X1486Y2215D01*
X1463Y2214D02*
X1486Y2214D01*
X1463Y2213D02*
X1486Y2213D01*
X1463Y2212D02*
X1486Y2212D01*
X1463Y2211D02*
X1486Y2211D01*
X1463Y2210D02*
X1486Y2210D01*
X1463Y2209D02*
X1486Y2209D01*
X1463Y2208D02*
X1486Y2208D01*
X1463Y2207D02*
X1486Y2207D01*
X1463Y2206D02*
X1486Y2206D01*
X1463Y2205D02*
X1486Y2205D01*
X1463Y2204D02*
X1486Y2204D01*
X1463Y2203D02*
X1486Y2203D01*
X1463Y2202D02*
X1486Y2202D01*
X1463Y2201D02*
X1486Y2201D01*
X1463Y2200D02*
X1486Y2200D01*
X1463Y2199D02*
X1486Y2199D01*
X1463Y2198D02*
X1486Y2198D01*
X1463Y2197D02*
X1486Y2197D01*
X1463Y2196D02*
X1486Y2196D01*
X1463Y2195D02*
X1486Y2195D01*
X1463Y2194D02*
X1486Y2194D01*
X1463Y2193D02*
X1486Y2193D01*
X1463Y2192D02*
X1486Y2192D01*
X1463Y2191D02*
X1486Y2191D01*
X1463Y2190D02*
X1486Y2190D01*
X1463Y2189D02*
X1486Y2189D01*
X1463Y2188D02*
X1486Y2188D01*
X1463Y2187D02*
X1486Y2187D01*
X1463Y2186D02*
X1486Y2186D01*
X1463Y2185D02*
X1486Y2185D01*
X1463Y2184D02*
X1486Y2184D01*
X1463Y2183D02*
X1486Y2183D01*
X1463Y2182D02*
X1486Y2182D01*
X1463Y2181D02*
X1486Y2181D01*
X1463Y2180D02*
X1486Y2180D01*
X1463Y2179D02*
X1486Y2179D01*
X1463Y2178D02*
X1486Y2178D01*
X1463Y2177D02*
X1486Y2177D01*
X1463Y2176D02*
X1486Y2176D01*
X1463Y2175D02*
X1486Y2175D01*
X1463Y2174D02*
X1486Y2174D01*
X1463Y2173D02*
X1486Y2173D01*
X1463Y2172D02*
X1486Y2172D01*
X1463Y2171D02*
X1486Y2171D01*
X1463Y2170D02*
X1486Y2170D01*
X1463Y2169D02*
X1486Y2169D01*
X1463Y2168D02*
X1486Y2168D01*
X1463Y2167D02*
X1486Y2167D01*
X1463Y2166D02*
X1486Y2166D01*
X1463Y2165D02*
X1486Y2165D01*
X1463Y2164D02*
X1486Y2164D01*
X1463Y2163D02*
X1486Y2163D01*
X1463Y2162D02*
X1486Y2162D01*
X1463Y2161D02*
X1486Y2161D01*
X1463Y2160D02*
X1486Y2160D01*
X1463Y2159D02*
X1486Y2159D01*
X1463Y2158D02*
X1486Y2158D01*
X1463Y2157D02*
X1486Y2157D01*
X1463Y2156D02*
X1486Y2156D01*
X1463Y2155D02*
X1486Y2155D01*
X1463Y2154D02*
X1486Y2154D01*
X1463Y2153D02*
X1486Y2153D01*
X1463Y2152D02*
X1486Y2152D01*
X1463Y2151D02*
X1486Y2151D01*
X1463Y2150D02*
X1486Y2150D01*
X1463Y2149D02*
X1486Y2149D01*
X1463Y2148D02*
X1486Y2148D01*
X1463Y2147D02*
X1486Y2147D01*
X1463Y2146D02*
X1486Y2146D01*
X1463Y2145D02*
X1486Y2145D01*
X1463Y2144D02*
X1486Y2144D01*
X1463Y2143D02*
X1486Y2143D01*
X1463Y2142D02*
X1486Y2142D01*
X1463Y2141D02*
X1486Y2141D01*
X1463Y2140D02*
X1486Y2140D01*
X1463Y2139D02*
X1486Y2139D01*
X1463Y2138D02*
X1486Y2138D01*
X1463Y2137D02*
X1486Y2137D01*
X1463Y2136D02*
X1486Y2136D01*
X1463Y2135D02*
X1486Y2135D01*
X1463Y2134D02*
X1486Y2134D01*
X1463Y2133D02*
X1486Y2133D01*
X1463Y2132D02*
X1486Y2132D01*
X1463Y2131D02*
X1486Y2131D01*
X1463Y2130D02*
X1486Y2130D01*
X1463Y2129D02*
X1486Y2129D01*
X1463Y2128D02*
X1486Y2128D01*
X1463Y2127D02*
X1486Y2127D01*
X1463Y2126D02*
X1486Y2126D01*
X1463Y2125D02*
X1486Y2125D01*
X1463Y2124D02*
X1486Y2124D01*
X1463Y2123D02*
X1486Y2123D01*
X1463Y2122D02*
X1486Y2122D01*
X1463Y2121D02*
X1486Y2121D01*
X1463Y2120D02*
X1486Y2120D01*
X1463Y2119D02*
X1486Y2119D01*
X1463Y2118D02*
X1486Y2118D01*
X1463Y2117D02*
X1486Y2117D01*
X1463Y2116D02*
X1486Y2116D01*
X1463Y2115D02*
X1486Y2115D01*
X1463Y2114D02*
X1486Y2114D01*
X1463Y2113D02*
X1486Y2113D01*
X1463Y2112D02*
X1486Y2112D01*
X1463Y2111D02*
X1486Y2111D01*
X1463Y2110D02*
X1486Y2110D01*
X1463Y2109D02*
X1486Y2109D01*
X1463Y2108D02*
X1486Y2108D01*
X1463Y2107D02*
X1486Y2107D01*
X1463Y2106D02*
X1486Y2106D01*
X1463Y2105D02*
X1486Y2105D01*
X1463Y2104D02*
X1486Y2104D01*
X1463Y2103D02*
X1486Y2103D01*
X1463Y2102D02*
X1486Y2102D01*
X1463Y2101D02*
X1486Y2101D01*
X1463Y2100D02*
X1486Y2100D01*
X1463Y2099D02*
X1486Y2099D01*
X1463Y2098D02*
X1486Y2098D01*
X1463Y2097D02*
X1486Y2097D01*
X1463Y2096D02*
X1486Y2096D01*
X1463Y2095D02*
X1486Y2095D01*
X1463Y2094D02*
X1486Y2094D01*
X1463Y2093D02*
X1486Y2093D01*
X1463Y2092D02*
X1486Y2092D01*
X1463Y2091D02*
X1486Y2091D01*
X1463Y2090D02*
X1486Y2090D01*
X1463Y2089D02*
X1486Y2089D01*
X1463Y2088D02*
X1486Y2088D01*
X1463Y2087D02*
X1486Y2087D01*
X1463Y2086D02*
X1486Y2086D01*
X1463Y2085D02*
X1486Y2085D01*
X1463Y2084D02*
X1486Y2084D01*
X1463Y2083D02*
X1486Y2083D01*
X1463Y2082D02*
X1486Y2082D01*
X1463Y2081D02*
X1486Y2081D01*
X1463Y2080D02*
X1486Y2080D01*
X1463Y2079D02*
X1486Y2079D01*
X1463Y2078D02*
X1486Y2078D01*
X1463Y2077D02*
X1486Y2077D01*
X1463Y2076D02*
X1486Y2076D01*
X1463Y2075D02*
X1486Y2075D01*
X1463Y2074D02*
X1486Y2074D01*
X1463Y2073D02*
X1486Y2073D01*
X1463Y2072D02*
X1486Y2072D01*
X1463Y2071D02*
X1486Y2071D01*
X1463Y2070D02*
X1486Y2070D01*
X1463Y2069D02*
X1486Y2069D01*
X1463Y2068D02*
X1486Y2068D01*
X1463Y2067D02*
X1486Y2067D01*
X1463Y2066D02*
X1486Y2066D01*
X1463Y2065D02*
X1486Y2065D01*
X1463Y2064D02*
X1486Y2064D01*
X1463Y2063D02*
X1486Y2063D01*
X1463Y2062D02*
X1486Y2062D01*
X1463Y2061D02*
X1486Y2061D01*
X1463Y2060D02*
X1486Y2060D01*
X1463Y2059D02*
X1486Y2059D01*
X1463Y2058D02*
X1486Y2058D01*
X1463Y2057D02*
X1486Y2057D01*
X1463Y2056D02*
X1486Y2056D01*
X1463Y2055D02*
X1486Y2055D01*
X1463Y2054D02*
X1486Y2054D01*
X1463Y2053D02*
X1486Y2053D01*
X1463Y2052D02*
X1486Y2052D01*
X1463Y2051D02*
X1486Y2051D01*
X1463Y2050D02*
X1486Y2050D01*
X1463Y2049D02*
X1486Y2049D01*
X1463Y2048D02*
X1486Y2048D01*
X1463Y2047D02*
X1486Y2047D01*
X1463Y2046D02*
X1486Y2046D01*
X1463Y2045D02*
X1486Y2045D01*
X1463Y2044D02*
X1486Y2044D01*
X1463Y2043D02*
X1486Y2043D01*
X1463Y2042D02*
X1486Y2042D01*
X1463Y2041D02*
X1486Y2041D01*
X1463Y2040D02*
X1486Y2040D01*
X1463Y2039D02*
X1486Y2039D01*
X1463Y2038D02*
X1486Y2038D01*
X1463Y2037D02*
X1486Y2037D01*
X1463Y2036D02*
X1486Y2036D01*
X1463Y2035D02*
X1486Y2035D01*
X1463Y2034D02*
X1486Y2034D01*
X1463Y2033D02*
X1486Y2033D01*
X1463Y2032D02*
X1486Y2032D01*
X1463Y2031D02*
X1486Y2031D01*
X1463Y2030D02*
X1486Y2030D01*
X1463Y2029D02*
X1486Y2029D01*
X1463Y2028D02*
X1486Y2028D01*
X1463Y2027D02*
X1486Y2027D01*
X1463Y2026D02*
X1486Y2026D01*
X1463Y2025D02*
X1486Y2025D01*
X1463Y2024D02*
X1486Y2024D01*
X1463Y2023D02*
X1486Y2023D01*
X1463Y2022D02*
X1486Y2022D01*
X1463Y2021D02*
X1486Y2021D01*
X1463Y2020D02*
X1486Y2020D01*
X1463Y2019D02*
X1486Y2019D01*
X1463Y2018D02*
X1486Y2018D01*
X1463Y2017D02*
X1486Y2017D01*
X1463Y2016D02*
X1486Y2016D01*
X1463Y2015D02*
X1486Y2015D01*
X1463Y2014D02*
X1486Y2014D01*
X1463Y2013D02*
X1486Y2013D01*
X1463Y2012D02*
X1486Y2012D01*
X1463Y2011D02*
X1486Y2011D01*
X1463Y2010D02*
X1486Y2010D01*
X1463Y2009D02*
X1486Y2009D01*
X1463Y2008D02*
X1486Y2008D01*
X1463Y2007D02*
X1486Y2007D01*
X1463Y2006D02*
X1486Y2006D01*
X1463Y2005D02*
X1486Y2005D01*
X1463Y2004D02*
X1486Y2004D01*
X1463Y2003D02*
X1486Y2003D01*
X1463Y2002D02*
X1486Y2002D01*
X1463Y2001D02*
X1486Y2001D01*
X1463Y2000D02*
X1486Y2000D01*
X1463Y1999D02*
X1486Y1999D01*
X1463Y1998D02*
X1486Y1998D01*
X1463Y1997D02*
X1486Y1997D01*
X1463Y1996D02*
X1486Y1996D01*
X1463Y1995D02*
X1486Y1995D01*
X1463Y1994D02*
X1486Y1994D01*
X1463Y1993D02*
X1486Y1993D01*
X1463Y1992D02*
X1486Y1992D01*
X1463Y1991D02*
X1486Y1991D01*
X1463Y1990D02*
X1486Y1990D01*
X1463Y1989D02*
X1486Y1989D01*
X1463Y1988D02*
X1486Y1988D01*
X1463Y1987D02*
X1486Y1987D01*
X1463Y1986D02*
X1486Y1986D01*
X1463Y1985D02*
X1486Y1985D01*
X1463Y1984D02*
X1486Y1984D01*
X1463Y1983D02*
X1486Y1983D01*
X1463Y1982D02*
X1486Y1982D01*
X1463Y1981D02*
X1486Y1981D01*
X1463Y1980D02*
X1486Y1980D01*
X1463Y1979D02*
X1486Y1979D01*
X1463Y1978D02*
X1486Y1978D01*
X1463Y1977D02*
X1486Y1977D01*
X1463Y1976D02*
X1486Y1976D01*
X1463Y1975D02*
X1486Y1975D01*
X1463Y1974D02*
X1486Y1974D01*
X1463Y1973D02*
X1486Y1973D01*
X1463Y1972D02*
X1486Y1972D01*
X1463Y1971D02*
X1486Y1971D01*
X1463Y1970D02*
X1486Y1970D01*
X1463Y1969D02*
X1486Y1969D01*
X1463Y1968D02*
X1486Y1968D01*
X1463Y1967D02*
X1486Y1967D01*
X1463Y1966D02*
X1486Y1966D01*
X1463Y1965D02*
X1486Y1965D01*
X1463Y1964D02*
X1486Y1964D01*
X1463Y1963D02*
X1486Y1963D01*
X1463Y1962D02*
X1486Y1962D01*
X1463Y1961D02*
X1486Y1961D01*
X1463Y1960D02*
X1486Y1960D01*
X1463Y1959D02*
X1486Y1959D01*
X1463Y1958D02*
X1486Y1958D01*
X1463Y1957D02*
X1486Y1957D01*
X1463Y1956D02*
X1486Y1956D01*
X1463Y1955D02*
X1486Y1955D01*
X1463Y1954D02*
X1486Y1954D01*
X1463Y1953D02*
X1486Y1953D01*
X1463Y1952D02*
X1486Y1952D01*
X1463Y1951D02*
X1486Y1951D01*
X1463Y1950D02*
X1486Y1950D01*
X1463Y1949D02*
X1486Y1949D01*
X1463Y1948D02*
X1486Y1948D01*
X1463Y1947D02*
X1486Y1947D01*
X1463Y1946D02*
X1486Y1946D01*
X1463Y1945D02*
X1486Y1945D01*
X1463Y1944D02*
X1486Y1944D01*
X1463Y1943D02*
X1486Y1943D01*
X1463Y1942D02*
X1486Y1942D01*
X1463Y1941D02*
X1486Y1941D01*
X1463Y1940D02*
X1486Y1940D01*
X1463Y1939D02*
X1486Y1939D01*
X1463Y1938D02*
X1486Y1938D01*
X1463Y1937D02*
X1486Y1937D01*
X1463Y1936D02*
X1486Y1936D01*
X1463Y1935D02*
X1486Y1935D01*
X1463Y1934D02*
X1486Y1934D01*
X1463Y1933D02*
X1486Y1933D01*
X1463Y1932D02*
X1486Y1932D01*
X1463Y1931D02*
X1486Y1931D01*
X1463Y1930D02*
X1486Y1930D01*
X1463Y1929D02*
X1486Y1929D01*
X1463Y1928D02*
X1486Y1928D01*
X1463Y1927D02*
X1486Y1927D01*
X1463Y1926D02*
X1486Y1926D01*
X1463Y1925D02*
X1486Y1925D01*
X1463Y1924D02*
X1486Y1924D01*
X1463Y1923D02*
X1486Y1923D01*
X1463Y1922D02*
X1486Y1922D01*
X1463Y1921D02*
X1486Y1921D01*
X1463Y1920D02*
X1486Y1920D01*
X1463Y1919D02*
X1486Y1919D01*
X1463Y1918D02*
X1486Y1918D01*
X1463Y1917D02*
X1486Y1917D01*
X1463Y1916D02*
X1486Y1916D01*
X1463Y1915D02*
X1486Y1915D01*
X1463Y1914D02*
X1486Y1914D01*
X1463Y1913D02*
X1486Y1913D01*
X1463Y1912D02*
X1486Y1912D01*
X1463Y1911D02*
X1486Y1911D01*
X1463Y1910D02*
X1486Y1910D01*
X1463Y1909D02*
X1486Y1909D01*
X1463Y1908D02*
X1486Y1908D01*
X1463Y1907D02*
X1486Y1907D01*
X1463Y1906D02*
X1486Y1906D01*
X1463Y1905D02*
X1486Y1905D01*
X1463Y1904D02*
X1486Y1904D01*
X1463Y1903D02*
X1486Y1903D01*
X1463Y1902D02*
X1486Y1902D01*
X1463Y1901D02*
X1486Y1901D01*
X1463Y1900D02*
X1486Y1900D01*
X1463Y1899D02*
X1486Y1899D01*
X1463Y1898D02*
X1486Y1898D01*
X1463Y1897D02*
X1486Y1897D01*
X1463Y1896D02*
X1486Y1896D01*
X1463Y1895D02*
X1486Y1895D01*
X1463Y1894D02*
X1486Y1894D01*
X1463Y1893D02*
X1486Y1893D01*
X1463Y1892D02*
X1486Y1892D01*
X1463Y1891D02*
X1486Y1891D01*
X1463Y1890D02*
X1486Y1890D01*
X1463Y1889D02*
X1486Y1889D01*
X1463Y1888D02*
X1486Y1888D01*
X1463Y1887D02*
X1486Y1887D01*
X1463Y1886D02*
X1486Y1886D01*
X1463Y1885D02*
X1486Y1885D01*
X1463Y1884D02*
X1486Y1884D01*
X1463Y1883D02*
X1486Y1883D01*
X1463Y1882D02*
X1486Y1882D01*
X1463Y1881D02*
X1486Y1881D01*
X1463Y1880D02*
X1486Y1880D01*
X1463Y1879D02*
X1486Y1879D01*
X2356Y1879D02*
X2435Y1879D01*
X1463Y1878D02*
X1486Y1878D01*
X2356Y1878D02*
X2435Y1878D01*
X1463Y1877D02*
X1486Y1877D01*
X2356Y1877D02*
X2435Y1877D01*
X1463Y1876D02*
X1486Y1876D01*
X2356Y1876D02*
X2435Y1876D01*
X1463Y1875D02*
X1486Y1875D01*
X2356Y1875D02*
X2435Y1875D01*
X1463Y1874D02*
X1486Y1874D01*
X2356Y1874D02*
X2435Y1874D01*
X1463Y1873D02*
X1486Y1873D01*
X2356Y1873D02*
X2435Y1873D01*
X1463Y1872D02*
X1486Y1872D01*
X2356Y1872D02*
X2435Y1872D01*
X1463Y1871D02*
X1486Y1871D01*
X2356Y1871D02*
X2435Y1871D01*
X1463Y1870D02*
X1486Y1870D01*
X2356Y1870D02*
X2435Y1870D01*
X1463Y1869D02*
X1486Y1869D01*
X2356Y1869D02*
X2435Y1869D01*
X1463Y1868D02*
X1486Y1868D01*
X2356Y1868D02*
X2435Y1868D01*
X1463Y1867D02*
X1486Y1867D01*
X2356Y1867D02*
X2435Y1867D01*
X1463Y1866D02*
X1486Y1866D01*
X2356Y1866D02*
X2435Y1866D01*
X1463Y1865D02*
X1486Y1865D01*
X2356Y1865D02*
X2435Y1865D01*
X1463Y1864D02*
X1486Y1864D01*
X2356Y1864D02*
X2435Y1864D01*
X1463Y1863D02*
X1486Y1863D01*
X2356Y1863D02*
X2390Y1863D01*
X2400Y1863D02*
X2435Y1863D01*
X1463Y1862D02*
X1486Y1862D01*
X2356Y1862D02*
X2387Y1862D01*
X2404Y1862D02*
X2435Y1862D01*
X1463Y1861D02*
X1486Y1861D01*
X2356Y1861D02*
X2384Y1861D01*
X2406Y1861D02*
X2435Y1861D01*
X1463Y1860D02*
X1486Y1860D01*
X2356Y1860D02*
X2383Y1860D01*
X2408Y1860D02*
X2435Y1860D01*
X1463Y1859D02*
X1486Y1859D01*
X2356Y1859D02*
X2381Y1859D01*
X2409Y1859D02*
X2435Y1859D01*
X1463Y1858D02*
X1486Y1858D01*
X2356Y1858D02*
X2380Y1858D01*
X2411Y1858D02*
X2435Y1858D01*
X1463Y1857D02*
X1486Y1857D01*
X2356Y1857D02*
X2379Y1857D01*
X2412Y1857D02*
X2435Y1857D01*
X1463Y1856D02*
X1486Y1856D01*
X2356Y1856D02*
X2378Y1856D01*
X2413Y1856D02*
X2435Y1856D01*
X1463Y1855D02*
X1486Y1855D01*
X2356Y1855D02*
X2377Y1855D01*
X2414Y1855D02*
X2435Y1855D01*
X1463Y1854D02*
X1486Y1854D01*
X2356Y1854D02*
X2376Y1854D01*
X2414Y1854D02*
X2435Y1854D01*
X1463Y1853D02*
X1486Y1853D01*
X2356Y1853D02*
X2375Y1853D01*
X2415Y1853D02*
X2435Y1853D01*
X1463Y1852D02*
X1486Y1852D01*
X2356Y1852D02*
X2375Y1852D01*
X2416Y1852D02*
X2435Y1852D01*
X1463Y1851D02*
X1486Y1851D01*
X2356Y1851D02*
X2374Y1851D01*
X2416Y1851D02*
X2435Y1851D01*
X1463Y1850D02*
X1486Y1850D01*
X2356Y1850D02*
X2373Y1850D01*
X2417Y1850D02*
X2435Y1850D01*
X1463Y1849D02*
X1486Y1849D01*
X2356Y1849D02*
X2373Y1849D01*
X2417Y1849D02*
X2435Y1849D01*
X1463Y1848D02*
X1486Y1848D01*
X2356Y1848D02*
X2373Y1848D01*
X2418Y1848D02*
X2435Y1848D01*
X1463Y1847D02*
X1486Y1847D01*
X2356Y1847D02*
X2372Y1847D01*
X2418Y1847D02*
X2435Y1847D01*
X1463Y1846D02*
X1486Y1846D01*
X2356Y1846D02*
X2372Y1846D01*
X2418Y1846D02*
X2435Y1846D01*
X1463Y1845D02*
X1486Y1845D01*
X2356Y1845D02*
X2372Y1845D01*
X2419Y1845D02*
X2435Y1845D01*
X1463Y1844D02*
X1486Y1844D01*
X2356Y1844D02*
X2371Y1844D01*
X2419Y1844D02*
X2435Y1844D01*
X1463Y1843D02*
X1486Y1843D01*
X2356Y1843D02*
X2371Y1843D01*
X2419Y1843D02*
X2435Y1843D01*
X1463Y1842D02*
X1486Y1842D01*
X2356Y1842D02*
X2371Y1842D01*
X2419Y1842D02*
X2435Y1842D01*
X1463Y1841D02*
X1486Y1841D01*
X2356Y1841D02*
X2371Y1841D01*
X2419Y1841D02*
X2435Y1841D01*
X1463Y1840D02*
X1486Y1840D01*
X2356Y1840D02*
X2371Y1840D01*
X2419Y1840D02*
X2435Y1840D01*
X1463Y1839D02*
X1486Y1839D01*
X2356Y1839D02*
X2371Y1839D01*
X2419Y1839D02*
X2435Y1839D01*
X1463Y1838D02*
X1486Y1838D01*
X2356Y1838D02*
X2371Y1838D01*
X2419Y1838D02*
X2435Y1838D01*
X1463Y1837D02*
X1486Y1837D01*
X2356Y1837D02*
X2371Y1837D01*
X2419Y1837D02*
X2435Y1837D01*
X1463Y1836D02*
X1486Y1836D01*
X2356Y1836D02*
X2371Y1836D01*
X2419Y1836D02*
X2435Y1836D01*
X1463Y1835D02*
X1486Y1835D01*
X2356Y1835D02*
X2372Y1835D01*
X2419Y1835D02*
X2435Y1835D01*
X1463Y1834D02*
X1486Y1834D01*
X2356Y1834D02*
X2372Y1834D01*
X2419Y1834D02*
X2435Y1834D01*
X1463Y1833D02*
X1486Y1833D01*
X2356Y1833D02*
X2372Y1833D01*
X2418Y1833D02*
X2435Y1833D01*
X1463Y1832D02*
X1486Y1832D01*
X2356Y1832D02*
X2373Y1832D01*
X2418Y1832D02*
X2435Y1832D01*
X1463Y1831D02*
X1486Y1831D01*
X2356Y1831D02*
X2373Y1831D01*
X2418Y1831D02*
X2435Y1831D01*
X1463Y1830D02*
X1486Y1830D01*
X2356Y1830D02*
X2373Y1830D01*
X2417Y1830D02*
X2435Y1830D01*
X1463Y1829D02*
X1486Y1829D01*
X2356Y1829D02*
X2374Y1829D01*
X2417Y1829D02*
X2435Y1829D01*
X1463Y1828D02*
X1486Y1828D01*
X2356Y1828D02*
X2374Y1828D01*
X2416Y1828D02*
X2435Y1828D01*
X1463Y1827D02*
X1486Y1827D01*
X2356Y1827D02*
X2375Y1827D01*
X2416Y1827D02*
X2435Y1827D01*
X1463Y1826D02*
X1486Y1826D01*
X2356Y1826D02*
X2376Y1826D01*
X2415Y1826D02*
X2435Y1826D01*
X1463Y1825D02*
X1486Y1825D01*
X2356Y1825D02*
X2376Y1825D01*
X2414Y1825D02*
X2435Y1825D01*
X1463Y1824D02*
X1486Y1824D01*
X2356Y1824D02*
X2377Y1824D01*
X2413Y1824D02*
X2435Y1824D01*
X1463Y1823D02*
X1486Y1823D01*
X2356Y1823D02*
X2378Y1823D01*
X2412Y1823D02*
X2435Y1823D01*
X1463Y1822D02*
X1486Y1822D01*
X2356Y1822D02*
X2379Y1822D01*
X2411Y1822D02*
X2435Y1822D01*
X1463Y1821D02*
X1486Y1821D01*
X2356Y1821D02*
X2381Y1821D01*
X2410Y1821D02*
X2435Y1821D01*
X1463Y1820D02*
X1486Y1820D01*
X2356Y1820D02*
X2382Y1820D01*
X2408Y1820D02*
X2435Y1820D01*
X1463Y1819D02*
X1486Y1819D01*
X2356Y1819D02*
X2384Y1819D01*
X2407Y1819D02*
X2435Y1819D01*
X1463Y1818D02*
X1486Y1818D01*
X2356Y1818D02*
X2386Y1818D01*
X2405Y1818D02*
X2435Y1818D01*
X1463Y1817D02*
X1486Y1817D01*
X2356Y1817D02*
X2389Y1817D01*
X2402Y1817D02*
X2435Y1817D01*
X1463Y1816D02*
X1486Y1816D01*
X2356Y1816D02*
X2435Y1816D01*
X1463Y1815D02*
X1486Y1815D01*
X2356Y1815D02*
X2435Y1815D01*
X1463Y1814D02*
X1486Y1814D01*
X2356Y1814D02*
X2435Y1814D01*
X1463Y1813D02*
X1486Y1813D01*
X2356Y1813D02*
X2435Y1813D01*
X1463Y1812D02*
X1486Y1812D01*
X2356Y1812D02*
X2435Y1812D01*
X1463Y1811D02*
X1486Y1811D01*
X2356Y1811D02*
X2435Y1811D01*
X1463Y1810D02*
X1486Y1810D01*
X2356Y1810D02*
X2435Y1810D01*
X1463Y1809D02*
X1486Y1809D01*
X2356Y1809D02*
X2435Y1809D01*
X1463Y1808D02*
X1486Y1808D01*
X2356Y1808D02*
X2435Y1808D01*
X1463Y1807D02*
X1486Y1807D01*
X2356Y1807D02*
X2435Y1807D01*
X1463Y1806D02*
X1486Y1806D01*
X2356Y1806D02*
X2435Y1806D01*
X1463Y1805D02*
X1486Y1805D01*
X2356Y1805D02*
X2435Y1805D01*
X1463Y1804D02*
X1486Y1804D01*
X2356Y1804D02*
X2435Y1804D01*
X1463Y1803D02*
X1486Y1803D01*
X2356Y1803D02*
X2435Y1803D01*
X1463Y1802D02*
X1486Y1802D01*
X2356Y1802D02*
X2435Y1802D01*
X1463Y1801D02*
X1486Y1801D01*
X2356Y1801D02*
X2435Y1801D01*
X1463Y1800D02*
X1486Y1800D01*
X2356Y1800D02*
X2434Y1800D01*
X1463Y1799D02*
X1486Y1799D01*
X1463Y1798D02*
X1486Y1798D01*
X1463Y1797D02*
X1486Y1797D01*
X1463Y1796D02*
X1486Y1796D01*
X1463Y1795D02*
X1486Y1795D01*
X1463Y1794D02*
X1486Y1794D01*
X1463Y1793D02*
X1486Y1793D01*
X1463Y1792D02*
X1486Y1792D01*
X1463Y1791D02*
X1486Y1791D01*
X1463Y1790D02*
X1486Y1790D01*
X1463Y1789D02*
X1486Y1789D01*
X1463Y1788D02*
X1486Y1788D01*
X1463Y1787D02*
X1486Y1787D01*
X1463Y1786D02*
X1486Y1786D01*
X1463Y1785D02*
X1486Y1785D01*
X1463Y1784D02*
X1486Y1784D01*
X1463Y1783D02*
X1486Y1783D01*
X1463Y1782D02*
X1486Y1782D01*
X1463Y1781D02*
X1486Y1781D01*
X1463Y1780D02*
X1486Y1780D01*
X1463Y1779D02*
X1486Y1779D01*
X1463Y1778D02*
X1486Y1778D01*
X1463Y1777D02*
X1486Y1777D01*
X1463Y1776D02*
X1486Y1776D01*
X1463Y1775D02*
X1486Y1775D01*
X1463Y1774D02*
X1486Y1774D01*
X1463Y1773D02*
X1486Y1773D01*
X1463Y1772D02*
X1486Y1772D01*
X1463Y1771D02*
X1486Y1771D01*
X1463Y1770D02*
X1486Y1770D01*
X1463Y1769D02*
X1486Y1769D01*
X1463Y1768D02*
X1486Y1768D01*
X1463Y1767D02*
X1486Y1767D01*
X1463Y1766D02*
X1486Y1766D01*
X1463Y1765D02*
X1486Y1765D01*
X1463Y1764D02*
X1486Y1764D01*
X1463Y1763D02*
X1486Y1763D01*
X1463Y1762D02*
X1486Y1762D01*
X1463Y1761D02*
X1486Y1761D01*
X1463Y1760D02*
X1486Y1760D01*
X1463Y1759D02*
X1486Y1759D01*
X1463Y1758D02*
X1486Y1758D01*
X1463Y1757D02*
X1486Y1757D01*
X1463Y1756D02*
X1486Y1756D01*
X1463Y1755D02*
X1486Y1755D01*
X1463Y1754D02*
X1486Y1754D01*
X1463Y1753D02*
X1486Y1753D01*
X1463Y1752D02*
X1486Y1752D01*
X1463Y1751D02*
X1486Y1751D01*
X1463Y1750D02*
X1486Y1750D01*
X1463Y1749D02*
X1486Y1749D01*
X1463Y1748D02*
X1486Y1748D01*
X1463Y1747D02*
X1486Y1747D01*
X1463Y1746D02*
X1486Y1746D01*
X1463Y1745D02*
X1486Y1745D01*
X1463Y1744D02*
X1486Y1744D01*
X1463Y1743D02*
X1486Y1743D01*
X1463Y1742D02*
X1486Y1742D01*
X1463Y1741D02*
X1486Y1741D01*
X1463Y1740D02*
X1486Y1740D01*
X1463Y1739D02*
X1486Y1739D01*
X1463Y1738D02*
X1486Y1738D01*
X1463Y1737D02*
X1486Y1737D01*
X1463Y1736D02*
X1486Y1736D01*
X1463Y1735D02*
X1486Y1735D01*
X1463Y1734D02*
X1486Y1734D01*
X1463Y1733D02*
X1486Y1733D01*
X1463Y1732D02*
X1486Y1732D01*
X1463Y1731D02*
X1486Y1731D01*
X1463Y1730D02*
X1486Y1730D01*
X1463Y1729D02*
X1486Y1729D01*
X1463Y1728D02*
X1486Y1728D01*
X1463Y1727D02*
X1486Y1727D01*
X1463Y1726D02*
X1486Y1726D01*
X1463Y1725D02*
X1486Y1725D01*
X1463Y1724D02*
X1486Y1724D01*
X1463Y1723D02*
X1486Y1723D01*
X1463Y1722D02*
X1486Y1722D01*
X1463Y1721D02*
X1486Y1721D01*
X1463Y1720D02*
X1486Y1720D01*
X1463Y1719D02*
X1486Y1719D01*
X1463Y1718D02*
X1486Y1718D01*
X1463Y1717D02*
X1486Y1717D01*
X1463Y1716D02*
X1486Y1716D01*
X1463Y1715D02*
X1486Y1715D01*
X1463Y1714D02*
X1486Y1714D01*
X1463Y1713D02*
X1486Y1713D01*
X1463Y1712D02*
X1486Y1712D01*
X1463Y1711D02*
X1486Y1711D01*
X1463Y1710D02*
X1486Y1710D01*
X1463Y1709D02*
X1486Y1709D01*
X1463Y1708D02*
X1486Y1708D01*
X1463Y1707D02*
X1486Y1707D01*
X1463Y1706D02*
X1486Y1706D01*
X1463Y1705D02*
X1486Y1705D01*
X1463Y1704D02*
X1486Y1704D01*
X1463Y1703D02*
X1486Y1703D01*
X1463Y1702D02*
X1486Y1702D01*
X1463Y1701D02*
X1486Y1701D01*
X1463Y1700D02*
X1486Y1700D01*
X1463Y1699D02*
X1486Y1699D01*
X1463Y1698D02*
X1486Y1698D01*
X1463Y1697D02*
X1486Y1697D01*
X1463Y1696D02*
X1486Y1696D01*
X1463Y1695D02*
X1486Y1695D01*
X1463Y1694D02*
X1486Y1694D01*
X1463Y1693D02*
X1486Y1693D01*
X1463Y1692D02*
X1486Y1692D01*
X1463Y1691D02*
X1486Y1691D01*
X1463Y1690D02*
X1486Y1690D01*
X1463Y1689D02*
X1486Y1689D01*
X1463Y1688D02*
X1486Y1688D01*
X1463Y1687D02*
X1486Y1687D01*
X1463Y1686D02*
X1486Y1686D01*
X1463Y1685D02*
X1486Y1685D01*
X1463Y1684D02*
X1486Y1684D01*
X1463Y1683D02*
X1486Y1683D01*
X1463Y1682D02*
X1486Y1682D01*
X1463Y1681D02*
X1486Y1681D01*
X1463Y1680D02*
X1486Y1680D01*
X1464Y1679D02*
X1485Y1679D01*
X1464Y1678D02*
X1485Y1678D01*
X1464Y1677D02*
X1485Y1677D01*
X1465Y1676D02*
X1484Y1676D01*
X2053Y1676D02*
X2547Y1676D01*
X1466Y1675D02*
X1483Y1675D01*
X2054Y1675D02*
X2546Y1675D01*
X1467Y1674D02*
X1482Y1674D01*
X2055Y1674D02*
X2545Y1674D01*
X1468Y1673D02*
X1481Y1673D01*
X2056Y1673D02*
X2544Y1673D01*
X1469Y1672D02*
X1480Y1672D01*
X2058Y1672D02*
X2543Y1672D01*
X1472Y1671D02*
X1477Y1671D01*
X2060Y1671D02*
X2540Y1671D01*
D02*
G04 End of Copper0*
M02*