; NON-PLATED HOLES START AT T1
; THROUGH (PLATED) HOLES START AT T100
M48
INCH
T1C0.078740
T2C0.106299
T3C0.094488
T100C0.035000
T101C0.042000
T102C0.036000
T103C0.047244
T104C0.039370
T105C0.038000
T106C0.098425
T107C0.015748
%
T1
X008839Y021911
X008761Y006105
X002961Y006105
X002934Y021911
T2
X024587Y001833
X024587Y009313
T3
X024461Y011205
X001361Y001805
X001361Y011205
T100
X011595Y015612
X019214Y015174
X015595Y015612
X016882Y015790
X021438Y015790
X016829Y020783
X021438Y020730
T101
X020874Y013250
X017894Y013250
T102
X008861Y019005
X008861Y018005
X002861Y016005
X002861Y009005
X008861Y015005
X008861Y012005
X002861Y008005
X008861Y011005
X002861Y012005
X008861Y020005
X002861Y007005
X002861Y014005
X008861Y013005
X008861Y007005
X002861Y015005
X008861Y009005
X002861Y019005
X008861Y021005
X002861Y020005
X002861Y010005
X002861Y021005
X002861Y018005
X002861Y013005
X008861Y010005
X008861Y014005
X002861Y017005
X002861Y011005
X008861Y016005
X008861Y008005
X008861Y017005
T103
X023961Y018387
X023961Y019905
T104
X018011Y007555
X018011Y006555
X024011Y004886
X018011Y005555
X018011Y009555
X018011Y004555
X018011Y003555
X018011Y008555
X018011Y002555
X018011Y001555
X024011Y006264
T105
X011675Y001421
X008675Y001421
X007675Y001421
X010675Y001421
X009675Y001421
X005675Y001421
X013675Y001421
X006675Y001421
X003675Y001421
X004675Y001421
X012675Y001421
T106
X024561Y009305
X024561Y001805
T107
X013177Y006566
T00
M30
